<svg xmlns="http://www.w3.org/2000/svg" xmlns:xlink="http://www.w3.org/1999/xlink" width="1466" zoomAndPan="magnify" viewBox="0 0 1099.5 337.499995" height="450" preserveAspectRatio="xMidYMid meet" version="1.0"><defs><g/><clipPath id="6864fb61ff"><path d="M 42 93.660156 L 1057 93.660156 L 1057 98.902344 L 42 98.902344 Z M 42 93.660156 " clip-rule="nonzero"/></clipPath><clipPath id="2251c5bc9f"><rect x="0" width="318" y="0" height="92"/></clipPath><clipPath id="5a5f0562e2"><rect x="0" width="179" y="0" height="162"/></clipPath><clipPath id="e9dba614c6"><path d="M 42 251.492188 L 1057 251.492188 L 1057 256.734375 L 42 256.734375 Z M 42 251.492188 " clip-rule="nonzero"/></clipPath><clipPath id="2a65db3c96"><rect x="0" width="269" y="0" height="153"/></clipPath><clipPath id="a888f8b5da"><rect x="0" width="350" y="0" height="162"/></clipPath><clipPath id="99dccd35b7"><rect x="0" width="294" y="0" height="71"/></clipPath></defs><path stroke-linecap="butt" transform="matrix(0.00000000130706, -0.74889, 0.74889, 0.00000000130706, 633.202675, 227.450532)" fill="none" stroke-linejoin="miter" d="M 0.00175384 3.500571 L 139.338089 3.50057 " stroke="#ffffff" stroke-width="7" stroke-opacity="1" stroke-miterlimit="4"/><g clip-path="url(#6864fb61ff)"><path fill="#ffffff" d="M 44.660156 93.75 L 1054.121094 93.75 C 1055.5625 93.75 1056.730469 94.917969 1056.730469 96.359375 C 1056.730469 97.800781 1055.5625 98.972656 1054.121094 98.972656 L 44.660156 98.96875 C 43.21875 98.96875 42.050781 97.800781 42.050781 96.359375 C 42.050781 94.917969 43.21875 93.75 44.660156 93.75 Z M 44.660156 93.75 " fill-opacity="0.996" fill-rule="nonzero"/></g><g transform="matrix(1, 0, 0, 1, 395, 1)"><g clip-path="url(#2251c5bc9f)"><g fill="#ffffff" fill-opacity="1"><g transform="translate(1.141733, 68.098285)"><g><path d="M 2.109375 -5.484375 C 1.878906 -6.410156 1.867188 -7.164062 2.078125 -7.75 C 2.296875 -8.34375 2.625 -8.769531 3.0625 -9.03125 C 3.5 -9.289062 3.96875 -9.390625 4.46875 -9.328125 C 4.96875 -9.265625 5.390625 -9.054688 5.734375 -8.703125 C 6.085938 -8.359375 6.265625 -7.875 6.265625 -7.25 C 6.265625 -5.789062 6.546875 -4.609375 7.109375 -3.703125 C 7.671875 -2.804688 8.410156 -2.148438 9.328125 -1.734375 C 10.242188 -1.328125 11.210938 -1.125 12.234375 -1.125 C 13.335938 -1.125 14.347656 -1.226562 15.265625 -1.4375 C 16.179688 -1.65625 16.960938 -2.117188 17.609375 -2.828125 C 18.253906 -3.546875 18.753906 -4.648438 19.109375 -6.140625 C 19.460938 -7.628906 19.640625 -9.660156 19.640625 -12.234375 C 19.640625 -18.097656 19.640625 -23.117188 19.640625 -27.296875 C 19.640625 -31.472656 19.640625 -34.953125 19.640625 -37.734375 C 19.640625 -40.515625 19.640625 -42.734375 19.640625 -44.390625 C 19.640625 -46.054688 19.640625 -47.289062 19.640625 -48.09375 C 19.640625 -48.894531 19.640625 -49.394531 19.640625 -49.59375 C 19.640625 -49.800781 19.640625 -49.832031 19.640625 -49.6875 C 19.640625 -49.550781 19.640625 -49.375 19.640625 -49.15625 C 19.640625 -48.945312 19.640625 -48.84375 19.640625 -48.84375 C 19.640625 -50.34375 19.503906 -51.441406 19.234375 -52.140625 C 18.972656 -52.847656 18.710938 -53.304688 18.453125 -53.515625 C 18.191406 -53.734375 18.0625 -53.84375 18.0625 -53.84375 L 25.609375 -53.84375 C 25.253906 -53.539062 24.96875 -53.226562 24.75 -52.90625 C 24.539062 -52.582031 24.394531 -52.125 24.3125 -51.53125 C 24.226562 -50.945312 24.1875 -50.078125 24.1875 -48.921875 L 24.1875 -13.140625 C 24.1875 -10.484375 23.863281 -8.296875 23.21875 -6.578125 C 22.582031 -4.867188 21.710938 -3.53125 20.609375 -2.5625 C 19.515625 -1.601562 18.253906 -0.9375 16.828125 -0.5625 C 15.398438 -0.1875 13.910156 0 12.359375 0 C 11.453125 0 10.46875 -0.0859375 9.40625 -0.265625 C 8.34375 -0.441406 7.300781 -0.734375 6.28125 -1.140625 C 5.269531 -1.554688 4.390625 -2.117188 3.640625 -2.828125 C 2.890625 -3.546875 2.378906 -4.429688 2.109375 -5.484375 Z M 2.109375 -5.484375 "/></g></g></g><g fill="#ffffff" fill-opacity="1"><g transform="translate(36.931204, 68.098285)"><g><path d="M 2.515625 -17.828125 L 2.515625 -48.578125 C 2.515625 -50.085938 2.382812 -51.21875 2.125 -51.96875 C 1.863281 -52.71875 1.597656 -53.21875 1.328125 -53.46875 C 1.066406 -53.71875 0.9375 -53.84375 0.9375 -53.84375 L 8.640625 -53.84375 C 8.640625 -53.84375 8.515625 -53.71875 8.265625 -53.46875 C 8.015625 -53.21875 7.753906 -52.71875 7.484375 -51.96875 C 7.222656 -51.21875 7.09375 -50.085938 7.09375 -48.578125 C 7.09375 -48.578125 7.09375 -48.570312 7.09375 -48.5625 C 7.09375 -48.550781 7.09375 -48.429688 7.09375 -48.203125 C 7.09375 -47.984375 7.09375 -47.535156 7.09375 -46.859375 C 7.09375 -46.179688 7.09375 -45.195312 7.09375 -43.90625 C 7.09375 -42.625 7.09375 -40.910156 7.09375 -38.765625 C 7.09375 -36.628906 7.09375 -33.96875 7.09375 -30.78125 C 7.09375 -27.601562 7.09375 -23.800781 7.09375 -19.375 C 7.09375 -15.894531 7.625 -12.832031 8.6875 -10.1875 C 9.75 -7.550781 11.394531 -5.492188 13.625 -4.015625 C 15.851562 -2.535156 18.707031 -1.796875 22.1875 -1.796875 C 24.488281 -1.796875 26.554688 -2.128906 28.390625 -2.796875 C 30.234375 -3.460938 31.8125 -4.523438 33.125 -5.984375 C 34.445312 -7.453125 35.457031 -9.378906 36.15625 -11.765625 C 36.851562 -14.160156 37.203125 -17.082031 37.203125 -20.53125 L 37.203125 -48.84375 C 37.203125 -50.34375 37.078125 -51.441406 36.828125 -52.140625 C 36.578125 -52.847656 36.320312 -53.304688 36.0625 -53.515625 C 35.800781 -53.734375 35.671875 -53.84375 35.671875 -53.84375 L 39.65625 -53.84375 C 39.65625 -53.84375 39.519531 -53.738281 39.25 -53.53125 C 38.988281 -53.332031 38.726562 -52.882812 38.46875 -52.1875 C 38.207031 -51.488281 38.078125 -50.390625 38.078125 -48.890625 L 38.078125 -20.09375 C 38.078125 -15.28125 37.507812 -11.40625 36.375 -8.46875 C 35.25 -5.53125 33.519531 -3.382812 31.1875 -2.03125 C 28.863281 -0.675781 25.863281 0 22.1875 0 C 15.78125 0 10.914062 -1.484375 7.59375 -4.453125 C 4.28125 -7.421875 2.585938 -11.878906 2.515625 -17.828125 Z M 2.515625 -17.828125 "/></g></g></g><g fill="#ffffff" fill-opacity="1"><g transform="translate(86.766053, 68.098285)"><g><path d="M 20.6875 -26.28125 C 20.6875 -26.28125 20.566406 -26.472656 20.328125 -26.859375 C 20.085938 -27.253906 19.640625 -27.691406 18.984375 -28.171875 C 18.335938 -28.660156 17.425781 -29.097656 16.25 -29.484375 C 15.082031 -29.878906 13.554688 -30.078125 11.671875 -30.078125 L 7.09375 -30.078125 L 7.09375 -5.25 C 7.09375 -4.375 7.140625 -3.628906 7.234375 -3.015625 C 7.335938 -2.410156 7.46875 -1.90625 7.625 -1.5 L 16.75 -1.5 C 20.25 -1.5 23.179688 -1.691406 25.546875 -2.078125 C 27.910156 -2.472656 29.8125 -2.953125 31.25 -3.515625 C 32.695312 -4.078125 33.785156 -4.628906 34.515625 -5.171875 C 35.253906 -5.722656 35.75 -6.191406 36 -6.578125 C 36.257812 -6.972656 36.390625 -7.171875 36.390625 -7.171875 L 34.84375 -0.03125 L 0.9375 -0.03125 C 0.9375 -0.03125 1.066406 -0.15625 1.328125 -0.40625 C 1.597656 -0.65625 1.863281 -1.15625 2.125 -1.90625 C 2.382812 -2.664062 2.515625 -3.78125 2.515625 -5.25 L 2.515625 -48.84375 C 2.515625 -50.34375 2.382812 -51.441406 2.125 -52.140625 C 1.863281 -52.847656 1.597656 -53.304688 1.328125 -53.515625 C 1.066406 -53.734375 0.9375 -53.84375 0.9375 -53.84375 L 34.84375 -53.84375 L 36.390625 -46.671875 C 36.390625 -46.671875 36.257812 -46.863281 36 -47.25 C 35.75 -47.632812 35.253906 -48.109375 34.515625 -48.671875 C 33.785156 -49.242188 32.695312 -49.800781 31.25 -50.34375 C 29.8125 -50.894531 27.910156 -51.363281 25.546875 -51.75 C 23.179688 -52.144531 20.25 -52.34375 16.75 -52.34375 L 7.546875 -52.34375 C 7.421875 -51.988281 7.3125 -51.523438 7.21875 -50.953125 C 7.132812 -50.378906 7.09375 -49.691406 7.09375 -48.890625 L 7.09375 -31.359375 L 11.671875 -31.359375 C 13.554688 -31.359375 15.082031 -31.550781 16.25 -31.9375 C 17.425781 -32.320312 18.335938 -32.757812 18.984375 -33.25 C 19.640625 -33.738281 20.085938 -34.175781 20.328125 -34.5625 C 20.566406 -34.945312 20.6875 -35.140625 20.6875 -35.140625 Z M 20.6875 -26.28125 "/></g></g></g><g fill="#ffffff" fill-opacity="1"><g transform="translate(133.333653, 68.098285)"><g><path d="M 23.578125 -0.03125 L 4.546875 -48.578125 C 3.960938 -50.085938 3.394531 -51.21875 2.84375 -51.96875 C 2.300781 -52.71875 1.847656 -53.21875 1.484375 -53.46875 C 1.117188 -53.71875 0.9375 -53.84375 0.9375 -53.84375 L 8.640625 -53.84375 C 8.640625 -53.84375 8.585938 -53.769531 8.484375 -53.625 C 8.378906 -53.488281 8.296875 -53.238281 8.234375 -52.875 C 8.171875 -52.519531 8.195312 -52 8.3125 -51.3125 C 8.425781 -50.625 8.695312 -49.710938 9.125 -48.578125 L 25.421875 -6.953125 L 41.71875 -48.578125 C 42.164062 -49.710938 42.445312 -50.625 42.5625 -51.3125 C 42.675781 -52 42.703125 -52.519531 42.640625 -52.875 C 42.578125 -53.238281 42.488281 -53.488281 42.375 -53.625 C 42.257812 -53.769531 42.203125 -53.84375 42.203125 -53.84375 L 46.1875 -53.84375 C 46.1875 -53.84375 46.007812 -53.71875 45.65625 -53.46875 C 45.300781 -53.21875 44.847656 -52.71875 44.296875 -51.96875 C 43.753906 -51.21875 43.179688 -50.085938 42.578125 -48.578125 Z M 23.578125 -0.03125 "/></g></g></g><g fill="#ffffff" fill-opacity="1"><g transform="translate(189.702997, 68.098285)"><g><path d="M 20.6875 -26.28125 C 20.6875 -26.28125 20.566406 -26.472656 20.328125 -26.859375 C 20.085938 -27.253906 19.640625 -27.691406 18.984375 -28.171875 C 18.335938 -28.660156 17.425781 -29.097656 16.25 -29.484375 C 15.082031 -29.878906 13.554688 -30.078125 11.671875 -30.078125 L 7.09375 -30.078125 L 7.09375 -5.25 C 7.09375 -4.375 7.140625 -3.628906 7.234375 -3.015625 C 7.335938 -2.410156 7.46875 -1.90625 7.625 -1.5 L 16.75 -1.5 C 20.25 -1.5 23.179688 -1.691406 25.546875 -2.078125 C 27.910156 -2.472656 29.8125 -2.953125 31.25 -3.515625 C 32.695312 -4.078125 33.785156 -4.628906 34.515625 -5.171875 C 35.253906 -5.722656 35.75 -6.191406 36 -6.578125 C 36.257812 -6.972656 36.390625 -7.171875 36.390625 -7.171875 L 34.84375 -0.03125 L 0.9375 -0.03125 C 0.9375 -0.03125 1.066406 -0.15625 1.328125 -0.40625 C 1.597656 -0.65625 1.863281 -1.15625 2.125 -1.90625 C 2.382812 -2.664062 2.515625 -3.78125 2.515625 -5.25 L 2.515625 -48.84375 C 2.515625 -50.34375 2.382812 -51.441406 2.125 -52.140625 C 1.863281 -52.847656 1.597656 -53.304688 1.328125 -53.515625 C 1.066406 -53.734375 0.9375 -53.84375 0.9375 -53.84375 L 34.84375 -53.84375 L 36.390625 -46.671875 C 36.390625 -46.671875 36.257812 -46.863281 36 -47.25 C 35.75 -47.632812 35.253906 -48.109375 34.515625 -48.671875 C 33.785156 -49.242188 32.695312 -49.800781 31.25 -50.34375 C 29.8125 -50.894531 27.910156 -51.363281 25.546875 -51.75 C 23.179688 -52.144531 20.25 -52.34375 16.75 -52.34375 L 7.546875 -52.34375 C 7.421875 -51.988281 7.3125 -51.523438 7.21875 -50.953125 C 7.132812 -50.378906 7.09375 -49.691406 7.09375 -48.890625 L 7.09375 -31.359375 L 11.671875 -31.359375 C 13.554688 -31.359375 15.082031 -31.550781 16.25 -31.9375 C 17.425781 -32.320312 18.335938 -32.757812 18.984375 -33.25 C 19.640625 -33.738281 20.085938 -34.175781 20.328125 -34.5625 C 20.566406 -34.945312 20.6875 -35.140625 20.6875 -35.140625 Z M 20.6875 -26.28125 "/></g></g></g><g fill="#ffffff" fill-opacity="1"><g transform="translate(236.270597, 68.098285)"><g><path d="M 35.859375 -14.5625 C 35.859375 -16.320312 35.492188 -17.804688 34.765625 -19.015625 C 34.035156 -20.234375 33.046875 -21.265625 31.796875 -22.109375 C 30.546875 -22.960938 29.117188 -23.695312 27.515625 -24.3125 C 25.921875 -24.925781 24.226562 -25.492188 22.4375 -26.015625 C 20.644531 -26.546875 18.851562 -27.09375 17.0625 -27.65625 C 15.269531 -28.21875 13.570312 -28.875 11.96875 -29.625 C 10.375 -30.375 8.945312 -31.285156 7.6875 -32.359375 C 6.4375 -33.441406 5.445312 -34.75 4.71875 -36.28125 C 4 -37.820312 3.640625 -39.671875 3.640625 -41.828125 C 3.640625 -42.179688 3.71875 -42.710938 3.875 -43.421875 C 4.039062 -44.140625 4.335938 -44.945312 4.765625 -45.84375 C 5.191406 -46.75 5.804688 -47.671875 6.609375 -48.609375 C 7.410156 -49.546875 8.441406 -50.398438 9.703125 -51.171875 C 10.972656 -51.953125 12.523438 -52.582031 14.359375 -53.0625 C 16.203125 -53.550781 18.375 -53.796875 20.875 -53.796875 C 23.226562 -53.796875 25.414062 -53.601562 27.4375 -53.21875 C 29.46875 -52.832031 31.238281 -52.375 32.75 -51.84375 C 34.269531 -51.320312 35.453125 -50.867188 36.296875 -50.484375 C 37.148438 -50.097656 37.578125 -49.90625 37.578125 -49.90625 L 36.078125 -41.640625 C 36.078125 -41.640625 36 -41.894531 35.84375 -42.40625 C 35.695312 -42.914062 35.425781 -43.582031 35.03125 -44.40625 C 34.632812 -45.238281 34.066406 -46.109375 33.328125 -47.015625 C 32.585938 -47.929688 31.632812 -48.800781 30.46875 -49.625 C 29.300781 -50.457031 27.882812 -51.128906 26.21875 -51.640625 C 24.5625 -52.160156 22.59375 -52.421875 20.3125 -52.421875 C 19.007812 -52.421875 17.660156 -52.238281 16.265625 -51.875 C 14.878906 -51.507812 13.59375 -50.925781 12.40625 -50.125 C 11.21875 -49.320312 10.253906 -48.242188 9.515625 -46.890625 C 8.773438 -45.546875 8.40625 -43.867188 8.40625 -41.859375 C 8.40625 -40.179688 8.78125 -38.753906 9.53125 -37.578125 C 10.28125 -36.398438 11.304688 -35.398438 12.609375 -34.578125 C 13.910156 -33.753906 15.394531 -33.035156 17.0625 -32.421875 C 18.726562 -31.804688 20.492188 -31.242188 22.359375 -30.734375 C 24.222656 -30.222656 26.082031 -29.675781 27.9375 -29.09375 C 29.789062 -28.519531 31.546875 -27.863281 33.203125 -27.125 C 34.867188 -26.382812 36.351562 -25.484375 37.65625 -24.421875 C 38.957031 -23.359375 39.984375 -22.078125 40.734375 -20.578125 C 41.484375 -19.078125 41.859375 -17.285156 41.859375 -15.203125 C 41.859375 -11.578125 40.988281 -8.648438 39.25 -6.421875 C 37.507812 -4.191406 35.050781 -2.5625 31.875 -1.53125 C 28.695312 -0.507812 24.914062 0 20.53125 0 C 17.90625 0 15.578125 -0.234375 13.546875 -0.703125 C 11.523438 -1.179688 9.773438 -1.796875 8.296875 -2.546875 C 6.816406 -3.296875 5.570312 -4.085938 4.5625 -4.921875 C 3.550781 -5.765625 2.75 -6.550781 2.15625 -7.28125 C 1.570312 -8.007812 1.164062 -8.585938 0.9375 -9.015625 L 4.125 -14.1875 C 4.25 -13.71875 4.539062 -12.976562 5 -11.96875 C 5.46875 -10.96875 6.117188 -9.859375 6.953125 -8.640625 C 7.796875 -7.429688 8.847656 -6.269531 10.109375 -5.15625 C 11.378906 -4.039062 12.882812 -3.117188 14.625 -2.390625 C 16.363281 -1.671875 18.347656 -1.3125 20.578125 -1.3125 C 24.054688 -1.3125 26.921875 -1.851562 29.171875 -2.9375 C 31.421875 -4.03125 33.097656 -5.570312 34.203125 -7.5625 C 35.304688 -9.550781 35.859375 -11.882812 35.859375 -14.5625 Z M 35.859375 -14.5625 "/></g></g></g><g fill="#ffffff" fill-opacity="1"><g transform="translate(288.326994, 68.098285)"><g/></g></g></g></g><g transform="matrix(1, 0, 0, 1, 55, 103)"><g clip-path="url(#5a5f0562e2)"><g fill="#ffffff" fill-opacity="1"><g transform="translate(0.861422, 119.005611)"><g><path d="M 35.984375 -95.78125 C 39.765625 -95.78125 43.367188 -94.96875 46.796875 -93.34375 C 50.222656 -91.71875 53.367188 -89.4375 56.234375 -86.5 C 59.109375 -83.570312 61.585938 -80.113281 63.671875 -76.125 C 65.765625 -72.144531 67.390625 -67.757812 68.546875 -62.96875 C 69.703125 -58.1875 70.28125 -53.148438 70.28125 -47.859375 C 70.28125 -42.566406 69.703125 -37.523438 68.546875 -32.734375 C 67.390625 -27.953125 65.765625 -23.554688 63.671875 -19.546875 C 61.585938 -15.546875 59.109375 -12.078125 56.234375 -9.140625 C 53.367188 -6.203125 50.222656 -3.929688 46.796875 -2.328125 C 43.367188 -0.734375 39.765625 0.0625 35.984375 0.0625 C 32.191406 0.0625 28.582031 -0.734375 25.15625 -2.328125 C 21.738281 -3.929688 18.601562 -6.203125 15.75 -9.140625 C 12.90625 -12.078125 10.425781 -15.546875 8.3125 -19.546875 C 6.195312 -23.554688 4.5625 -27.953125 3.40625 -32.734375 C 2.25 -37.523438 1.671875 -42.566406 1.671875 -47.859375 C 1.671875 -53.148438 2.25 -58.1875 3.40625 -62.96875 C 4.5625 -67.757812 6.195312 -72.144531 8.3125 -76.125 C 10.425781 -80.113281 12.90625 -83.570312 15.75 -86.5 C 18.601562 -89.4375 21.738281 -91.71875 25.15625 -93.34375 C 28.582031 -94.96875 32.191406 -95.78125 35.984375 -95.78125 Z M 35.984375 -2.609375 C 38.828125 -2.609375 41.539062 -3.382812 44.125 -4.9375 C 46.707031 -6.5 49.078125 -8.671875 51.234375 -11.453125 C 53.390625 -14.234375 55.269531 -17.503906 56.875 -21.265625 C 58.476562 -25.023438 59.710938 -29.117188 60.578125 -33.546875 C 61.441406 -37.972656 61.875 -42.585938 61.875 -47.390625 C 61.875 -52.191406 61.441406 -56.835938 60.578125 -61.328125 C 59.710938 -65.828125 58.476562 -70.015625 56.875 -73.890625 C 55.269531 -77.765625 53.390625 -81.144531 51.234375 -84.03125 C 49.078125 -86.925781 46.707031 -89.1875 44.125 -90.8125 C 41.539062 -92.4375 38.828125 -93.25 35.984375 -93.25 C 33.128906 -93.25 30.410156 -92.4375 27.828125 -90.8125 C 25.253906 -89.1875 22.882812 -86.925781 20.71875 -84.03125 C 18.5625 -81.144531 16.679688 -77.765625 15.078125 -73.890625 C 13.484375 -70.015625 12.25 -65.828125 11.375 -61.328125 C 10.507812 -56.835938 10.078125 -52.191406 10.078125 -47.390625 C 10.078125 -42.585938 10.507812 -37.972656 11.375 -33.546875 C 12.25 -29.117188 13.484375 -25.023438 15.078125 -21.265625 C 16.679688 -17.503906 18.5625 -14.234375 20.71875 -11.453125 C 22.882812 -8.671875 25.253906 -6.5 27.828125 -4.9375 C 30.410156 -3.382812 33.128906 -2.609375 35.984375 -2.609375 Z M 35.984375 -2.609375 "/></g></g></g><g fill="#ffffff" fill-opacity="1"><g transform="translate(89.238449, 119.005611)"><g><path d="M 35.984375 -95.65625 C 40.742188 -95.65625 45.191406 -94.863281 49.328125 -93.28125 C 53.460938 -91.695312 57.097656 -89.25 60.234375 -85.9375 C 63.378906 -82.625 65.835938 -78.382812 67.609375 -73.21875 C 69.390625 -68.0625 70.28125 -61.898438 70.28125 -54.734375 C 70.28125 -36.671875 67.242188 -23.019531 61.171875 -13.78125 C 55.097656 -4.550781 46.34375 0.0625 34.90625 0.0625 C 33.75 0.0625 32.179688 -0.0664062 30.203125 -0.328125 C 28.222656 -0.597656 26.085938 -1.132812 23.796875 -1.9375 C 21.503906 -2.738281 19.320312 -3.90625 17.25 -5.4375 C 15.1875 -6.976562 13.488281 -9.015625 12.15625 -11.546875 L 17.6875 -17.15625 C 17.6875 -17.15625 17.851562 -16.664062 18.1875 -15.6875 C 18.519531 -14.707031 19.085938 -13.492188 19.890625 -12.046875 C 20.691406 -10.597656 21.78125 -9.140625 23.15625 -7.671875 C 24.539062 -6.203125 26.273438 -4.976562 28.359375 -4 C 30.453125 -3.019531 32.96875 -2.53125 35.90625 -2.53125 C 35.90625 -2.53125 36.359375 -2.550781 37.265625 -2.59375 C 38.179688 -2.644531 39.382812 -2.828125 40.875 -3.140625 C 42.375 -3.453125 44.023438 -4.003906 45.828125 -4.796875 C 47.628906 -5.597656 49.421875 -6.765625 51.203125 -8.296875 C 52.984375 -9.835938 54.617188 -11.820312 56.109375 -14.25 C 57.597656 -16.675781 58.796875 -19.679688 59.703125 -23.265625 C 60.617188 -26.847656 61.078125 -31.109375 61.078125 -36.046875 C 59.160156 -33.421875 56.820312 -31.226562 54.0625 -29.46875 C 51.300781 -27.707031 48.363281 -26.394531 45.25 -25.53125 C 42.132812 -24.664062 39.046875 -24.234375 35.984375 -24.234375 C 31.265625 -24.234375 26.832031 -25.15625 22.6875 -27 C 18.550781 -28.84375 14.90625 -31.398438 11.75 -34.671875 C 8.59375 -37.941406 6.125 -41.734375 4.34375 -46.046875 C 2.5625 -50.367188 1.671875 -55 1.671875 -59.9375 C 1.671875 -64.875 2.5625 -69.5 4.34375 -73.8125 C 6.125 -78.132812 8.59375 -81.929688 11.75 -85.203125 C 14.90625 -88.472656 18.550781 -91.03125 22.6875 -92.875 C 26.832031 -94.726562 31.265625 -95.65625 35.984375 -95.65625 Z M 35.984375 -27.234375 C 39.535156 -27.234375 42.878906 -27.929688 46.015625 -29.328125 C 49.160156 -30.734375 51.921875 -32.75 54.296875 -35.375 C 56.679688 -38 58.539062 -41.132812 59.875 -44.78125 C 61.207031 -48.4375 61.875 -52.488281 61.875 -56.9375 C 61.875 -62.8125 61.207031 -67.972656 59.875 -72.421875 C 58.539062 -76.867188 56.679688 -80.582031 54.296875 -83.5625 C 51.921875 -86.550781 49.160156 -88.800781 46.015625 -90.3125 C 42.878906 -91.820312 39.535156 -92.578125 35.984375 -92.578125 C 32.421875 -92.578125 29.082031 -91.707031 25.96875 -89.96875 C 22.851562 -88.238281 20.101562 -85.847656 17.71875 -82.796875 C 15.34375 -79.753906 13.472656 -76.25 12.109375 -72.28125 C 10.753906 -68.320312 10.078125 -64.097656 10.078125 -59.609375 C 10.078125 -55.160156 10.753906 -50.976562 12.109375 -47.0625 C 13.472656 -43.144531 15.34375 -39.691406 17.71875 -36.703125 C 20.101562 -33.722656 22.851562 -31.398438 25.96875 -29.734375 C 29.082031 -28.066406 32.421875 -27.234375 35.984375 -27.234375 Z M 35.984375 -27.234375 "/></g></g></g></g></g><g clip-path="url(#e9dba614c6)"><path fill="#ffffff" d="M 44.660156 251.582031 L 1054.121094 251.585938 C 1055.5625 251.585938 1056.730469 252.753906 1056.730469 254.195312 C 1056.730469 255.636719 1055.5625 256.804688 1054.121094 256.804688 L 44.660156 256.804688 C 43.21875 256.804688 42.050781 255.632812 42.050781 254.191406 C 42.050781 252.75 43.21875 251.582031 44.660156 251.582031 Z M 44.660156 251.582031 " fill-opacity="0.996" fill-rule="nonzero"/></g><path stroke-linecap="butt" transform="matrix(0.00000000130706, -0.74889, 0.74889, 0.00000000130706, 271.543849, 227.450532)" fill="none" stroke-linejoin="miter" d="M 0.00175384 3.498794 L 139.338089 3.498793 " stroke="#ffffff" stroke-width="7" stroke-opacity="1" stroke-miterlimit="4"/><g transform="matrix(1, 0, 0, 1, 328, 108)"><g clip-path="url(#2a65db3c96)"><g fill="#ffffff" fill-opacity="1"><g transform="translate(0.967075, 113.588429)"><g><path d="M 64.15625 -0.0625 C 64.15625 -0.0625 64.25 -0.164062 64.4375 -0.375 C 64.625 -0.582031 64.769531 -0.988281 64.875 -1.59375 C 64.976562 -2.195312 64.9375 -3.070312 64.75 -4.21875 C 64.5625 -5.375 64.09375 -6.890625 63.34375 -8.765625 L 56.203125 -27.046875 L 16.21875 -27.046875 L 9.015625 -8.765625 C 8.304688 -6.890625 7.859375 -5.375 7.671875 -4.21875 C 7.484375 -3.070312 7.441406 -2.195312 7.546875 -1.59375 C 7.648438 -0.988281 7.785156 -0.582031 7.953125 -0.375 C 8.117188 -0.164062 8.203125 -0.0625 8.203125 -0.0625 L 1.5625 -0.0625 C 1.5625 -0.0625 1.863281 -0.269531 2.46875 -0.6875 C 3.070312 -1.101562 3.832031 -1.9375 4.75 -3.1875 C 5.675781 -4.4375 6.617188 -6.296875 7.578125 -8.765625 L 39.3125 -89.703125 L 70.984375 -8.765625 C 71.984375 -6.296875 72.941406 -4.4375 73.859375 -3.1875 C 74.773438 -1.9375 75.523438 -1.101562 76.109375 -0.6875 C 76.691406 -0.269531 76.984375 -0.0625 76.984375 -0.0625 Z M 16.78125 -28.546875 L 55.640625 -28.546875 L 36.171875 -78.171875 Z M 16.78125 -28.546875 "/></g></g></g><g fill="#ffffff" fill-opacity="1"><g transform="translate(94.916157, 113.588429)"><g><path d="M 45.125 -54.203125 C 50.84375 -53.328125 55.460938 -51.6875 58.984375 -49.28125 C 62.515625 -46.882812 65.09375 -43.796875 66.71875 -40.015625 C 68.351562 -36.242188 69.171875 -31.816406 69.171875 -26.734375 C 69.171875 -22.640625 68.363281 -18.941406 66.75 -15.640625 C 65.144531 -12.347656 62.921875 -9.539062 60.078125 -7.21875 C 57.242188 -4.90625 54 -3.132812 50.34375 -1.90625 C 46.695312 -0.675781 42.832031 -0.0625 38.75 -0.0625 L 1.5625 -0.0625 C 1.5625 -0.0625 1.78125 -0.269531 2.21875 -0.6875 C 2.65625 -1.101562 3.09375 -1.9375 3.53125 -3.1875 C 3.96875 -4.4375 4.1875 -6.296875 4.1875 -8.765625 L 4.1875 -81.4375 C 4.1875 -83.9375 3.96875 -85.769531 3.53125 -86.9375 C 3.09375 -88.101562 2.65625 -88.851562 2.21875 -89.1875 C 1.78125 -89.53125 1.5625 -89.703125 1.5625 -89.703125 L 21.03125 -89.703125 C 27.039062 -89.703125 32.441406 -89.476562 37.234375 -89.03125 C 42.035156 -88.59375 46.144531 -87.757812 49.5625 -86.53125 C 52.988281 -85.300781 55.617188 -83.515625 57.453125 -81.171875 C 59.296875 -78.835938 60.238281 -75.753906 60.28125 -71.921875 C 60.363281 -68.285156 59.742188 -65.28125 58.421875 -62.90625 C 57.109375 -60.53125 55.304688 -58.640625 53.015625 -57.234375 C 50.722656 -55.835938 48.09375 -54.828125 45.125 -54.203125 Z M 11.828125 -81.5 L 11.828125 -51.640625 C 13.617188 -52.472656 16.210938 -53.234375 19.609375 -53.921875 C 23.015625 -54.609375 27.679688 -54.953125 33.609375 -54.953125 C 37.328125 -54.953125 40.59375 -55.492188 43.40625 -56.578125 C 46.226562 -57.671875 48.421875 -59.457031 49.984375 -61.9375 C 51.546875 -64.414062 52.328125 -67.785156 52.328125 -72.046875 C 52.367188 -77.640625 49.894531 -81.582031 44.90625 -83.875 C 39.925781 -86.164062 32.570312 -87.3125 22.84375 -87.3125 L 12.578125 -87.3125 C 12.367188 -86.6875 12.191406 -85.90625 12.046875 -84.96875 C 11.898438 -84.03125 11.828125 -82.875 11.828125 -81.5 Z M 34.234375 -2.8125 C 37.453125 -2.8125 40.644531 -3.25 43.8125 -4.125 C 46.988281 -5.007812 49.890625 -6.398438 52.515625 -8.296875 C 55.140625 -10.191406 57.242188 -12.671875 58.828125 -15.734375 C 60.421875 -18.804688 61.21875 -22.515625 61.21875 -26.859375 C 61.21875 -32.273438 60.367188 -36.710938 58.671875 -40.171875 C 56.984375 -43.640625 54.671875 -46.320312 51.734375 -48.21875 C 48.796875 -50.125 45.394531 -51.453125 41.53125 -52.203125 C 37.664062 -52.953125 33.566406 -53.328125 29.234375 -53.328125 C 25.640625 -53.328125 22.6875 -53.078125 20.375 -52.578125 C 18.0625 -52.078125 16.222656 -51.453125 14.859375 -50.703125 C 13.503906 -49.953125 12.492188 -49.222656 11.828125 -48.515625 L 11.828125 -8.765625 C 11.828125 -7.390625 11.898438 -6.207031 12.046875 -5.21875 C 12.191406 -4.238281 12.390625 -3.4375 12.640625 -2.8125 Z M 34.234375 -2.8125 "/></g></g></g><g fill="#ffffff" fill-opacity="1"><g transform="translate(181.04136, 113.588429)"><g><path d="M 58.03125 -8.765625 C 59.570312 -6.296875 60.9375 -4.4375 62.125 -3.1875 C 63.3125 -1.9375 64.25 -1.101562 64.9375 -0.6875 C 65.625 -0.269531 65.96875 -0.0625 65.96875 -0.0625 L 53.140625 -0.0625 C 53.140625 -0.0625 53.203125 -0.164062 53.328125 -0.375 C 53.453125 -0.582031 53.503906 -0.988281 53.484375 -1.59375 C 53.460938 -2.195312 53.234375 -3.070312 52.796875 -4.21875 C 52.359375 -5.375 51.578125 -6.890625 50.453125 -8.765625 L 34.484375 -34.796875 C 34.484375 -34.796875 33.929688 -34.796875 32.828125 -34.796875 C 31.722656 -34.796875 30.3125 -34.796875 28.59375 -34.796875 C 26.882812 -34.796875 25.0625 -34.796875 23.125 -34.796875 C 21.1875 -34.796875 19.359375 -34.796875 17.640625 -34.796875 C 15.929688 -34.796875 14.535156 -34.796875 13.453125 -34.796875 C 12.367188 -34.796875 11.828125 -34.796875 11.828125 -34.796875 L 11.828125 -8.328125 C 11.828125 -5.859375 12.046875 -4.03125 12.484375 -2.84375 C 12.921875 -1.65625 13.347656 -0.894531 13.765625 -0.5625 C 14.179688 -0.226562 14.390625 -0.0625 14.390625 -0.0625 L 1.5625 -0.0625 C 1.5625 -0.0625 1.78125 -0.238281 2.21875 -0.59375 C 2.65625 -0.945312 3.09375 -1.71875 3.53125 -2.90625 C 3.96875 -4.09375 4.1875 -5.921875 4.1875 -8.390625 L 4.1875 -81 C 4.1875 -83.5 3.96875 -85.363281 3.53125 -86.59375 C 3.09375 -87.820312 2.65625 -88.644531 2.21875 -89.0625 C 1.78125 -89.488281 1.5625 -89.703125 1.5625 -89.703125 C 1.5625 -89.703125 2.195312 -89.703125 3.46875 -89.703125 C 4.75 -89.703125 6.453125 -89.703125 8.578125 -89.703125 C 10.703125 -89.703125 13.035156 -89.703125 15.578125 -89.703125 C 18.128906 -89.703125 20.707031 -89.703125 23.3125 -89.703125 C 25.925781 -89.703125 28.347656 -89.703125 30.578125 -89.703125 C 32.804688 -89.703125 34.648438 -89.703125 36.109375 -89.703125 C 37.578125 -89.703125 38.4375 -89.703125 38.6875 -89.703125 C 42.769531 -89.703125 46.644531 -89.082031 50.3125 -87.84375 C 53.988281 -86.613281 57.234375 -84.84375 60.046875 -82.53125 C 62.867188 -80.21875 65.09375 -77.421875 66.71875 -74.140625 C 68.351562 -70.867188 69.171875 -67.1875 69.171875 -63.09375 C 69.171875 -57.707031 68.25 -53.039062 66.40625 -49.09375 C 64.570312 -45.15625 61.660156 -42.015625 57.671875 -39.671875 C 53.691406 -37.335938 48.445312 -35.835938 41.9375 -35.171875 Z M 30.296875 -37.0625 C 34.679688 -37.0625 38.738281 -37.40625 42.46875 -38.09375 C 46.207031 -38.78125 49.484375 -40.039062 52.296875 -41.875 C 55.109375 -43.707031 57.296875 -46.3125 58.859375 -49.6875 C 60.429688 -53.070312 61.21875 -57.476562 61.21875 -62.90625 C 61.21875 -67.25 60.421875 -70.953125 58.828125 -74.015625 C 57.242188 -77.085938 55.140625 -79.570312 52.515625 -81.46875 C 49.890625 -83.363281 46.976562 -84.75 43.78125 -85.625 C 40.59375 -86.5 37.390625 -86.9375 34.171875 -86.9375 L 12.578125 -86.9375 C 12.367188 -86.3125 12.191406 -85.507812 12.046875 -84.53125 C 11.898438 -83.550781 11.828125 -82.375 11.828125 -81 L 11.828125 -37.0625 Z M 30.296875 -37.0625 "/></g></g></g></g></g><g transform="matrix(1, 0, 0, 1, 683, 103)"><g clip-path="url(#a888f8b5da)"><g fill="#ffffff" fill-opacity="1"><g transform="translate(1.273132, 119.005611)"><g><path d="M 59.078125 -62.28125 C 59.078125 -69.664062 57.984375 -75.601562 55.796875 -80.09375 C 53.617188 -84.59375 50.5625 -87.875 46.625 -89.9375 C 42.6875 -92.007812 38.113281 -93.046875 32.90625 -93.046875 C 29.300781 -93.046875 26.097656 -92.457031 23.296875 -91.28125 C 20.492188 -90.101562 18.035156 -88.488281 15.921875 -86.4375 C 13.804688 -84.394531 12.023438 -82.035156 10.578125 -79.359375 C 9.128906 -76.691406 7.960938 -73.847656 7.078125 -70.828125 L 1.671875 -77.625 C 2.734375 -79.539062 4.242188 -81.546875 6.203125 -83.640625 C 8.160156 -85.734375 10.472656 -87.703125 13.140625 -89.546875 C 15.816406 -91.390625 18.8125 -92.890625 22.125 -94.046875 C 25.4375 -95.203125 29.03125 -95.78125 32.90625 -95.78125 C 37.625 -95.78125 42.039062 -95.164062 46.15625 -93.9375 C 50.269531 -92.71875 53.875 -90.828125 56.96875 -88.265625 C 60.0625 -85.710938 62.472656 -82.441406 64.203125 -78.453125 C 65.941406 -74.472656 66.8125 -69.726562 66.8125 -64.21875 C 66.8125 -59.675781 66.1875 -55.3125 64.9375 -51.125 C 63.695312 -46.945312 62.007812 -43 59.875 -39.28125 C 57.738281 -35.5625 55.347656 -32.078125 52.703125 -28.828125 C 50.054688 -25.585938 47.304688 -22.617188 44.453125 -19.921875 C 41.609375 -17.234375 38.835938 -14.832031 36.140625 -12.71875 C 33.453125 -10.601562 31.015625 -8.800781 28.828125 -7.3125 C 26.648438 -5.820312 24.867188 -4.675781 23.484375 -3.875 C 22.109375 -3.070312 21.351562 -2.648438 21.21875 -2.609375 L 28.5625 -2.609375 C 34.789062 -2.609375 40.039062 -2.90625 44.3125 -3.5 C 48.59375 -4.101562 52.078125 -4.859375 54.765625 -5.765625 C 57.460938 -6.679688 59.519531 -7.617188 60.9375 -8.578125 C 62.363281 -9.535156 63.363281 -10.390625 63.9375 -11.140625 C 64.519531 -11.898438 64.832031 -12.390625 64.875 -12.609375 L 64.875 -12.75 C 64.875 -12.75 64.875 -12.738281 64.875 -12.71875 C 64.875 -12.695312 64.875 -12.660156 64.875 -12.609375 L 62.21875 0 L 7.875 0 C 7.875 0 8.597656 -0.410156 10.046875 -1.234375 C 11.492188 -2.054688 13.425781 -3.234375 15.84375 -4.765625 C 18.269531 -6.304688 21.007812 -8.1875 24.0625 -10.40625 C 27.113281 -12.632812 30.25 -15.148438 33.46875 -17.953125 C 36.695312 -20.753906 39.832031 -23.8125 42.875 -27.125 C 45.925781 -30.445312 48.664062 -33.976562 51.09375 -37.71875 C 53.519531 -41.457031 55.457031 -45.382812 56.90625 -49.5 C 58.351562 -53.613281 59.078125 -57.875 59.078125 -62.28125 Z M 59.078125 -62.28125 "/></g></g></g><g fill="#ffffff" fill-opacity="1"><g transform="translate(86.179291, 119.005611)"><g><path d="M 35.984375 -95.78125 C 39.765625 -95.78125 43.367188 -94.96875 46.796875 -93.34375 C 50.222656 -91.71875 53.367188 -89.4375 56.234375 -86.5 C 59.109375 -83.570312 61.585938 -80.113281 63.671875 -76.125 C 65.765625 -72.144531 67.390625 -67.757812 68.546875 -62.96875 C 69.703125 -58.1875 70.28125 -53.148438 70.28125 -47.859375 C 70.28125 -42.566406 69.703125 -37.523438 68.546875 -32.734375 C 67.390625 -27.953125 65.765625 -23.554688 63.671875 -19.546875 C 61.585938 -15.546875 59.109375 -12.078125 56.234375 -9.140625 C 53.367188 -6.203125 50.222656 -3.929688 46.796875 -2.328125 C 43.367188 -0.734375 39.765625 0.0625 35.984375 0.0625 C 32.191406 0.0625 28.582031 -0.734375 25.15625 -2.328125 C 21.738281 -3.929688 18.601562 -6.203125 15.75 -9.140625 C 12.90625 -12.078125 10.425781 -15.546875 8.3125 -19.546875 C 6.195312 -23.554688 4.5625 -27.953125 3.40625 -32.734375 C 2.25 -37.523438 1.671875 -42.566406 1.671875 -47.859375 C 1.671875 -53.148438 2.25 -58.1875 3.40625 -62.96875 C 4.5625 -67.757812 6.195312 -72.144531 8.3125 -76.125 C 10.425781 -80.113281 12.90625 -83.570312 15.75 -86.5 C 18.601562 -89.4375 21.738281 -91.71875 25.15625 -93.34375 C 28.582031 -94.96875 32.191406 -95.78125 35.984375 -95.78125 Z M 35.984375 -2.609375 C 38.828125 -2.609375 41.539062 -3.382812 44.125 -4.9375 C 46.707031 -6.5 49.078125 -8.671875 51.234375 -11.453125 C 53.390625 -14.234375 55.269531 -17.503906 56.875 -21.265625 C 58.476562 -25.023438 59.710938 -29.117188 60.578125 -33.546875 C 61.441406 -37.972656 61.875 -42.585938 61.875 -47.390625 C 61.875 -52.191406 61.441406 -56.835938 60.578125 -61.328125 C 59.710938 -65.828125 58.476562 -70.015625 56.875 -73.890625 C 55.269531 -77.765625 53.390625 -81.144531 51.234375 -84.03125 C 49.078125 -86.925781 46.707031 -89.1875 44.125 -90.8125 C 41.539062 -92.4375 38.828125 -93.25 35.984375 -93.25 C 33.128906 -93.25 30.410156 -92.4375 27.828125 -90.8125 C 25.253906 -89.1875 22.882812 -86.925781 20.71875 -84.03125 C 18.5625 -81.144531 16.679688 -77.765625 15.078125 -73.890625 C 13.484375 -70.015625 12.25 -65.828125 11.375 -61.328125 C 10.507812 -56.835938 10.078125 -52.191406 10.078125 -47.390625 C 10.078125 -42.585938 10.507812 -37.972656 11.375 -33.546875 C 12.25 -29.117188 13.484375 -25.023438 15.078125 -21.265625 C 16.679688 -17.503906 18.5625 -14.234375 20.71875 -11.453125 C 22.882812 -8.671875 25.253906 -6.5 27.828125 -4.9375 C 30.410156 -3.382812 33.128906 -2.609375 35.984375 -2.609375 Z M 35.984375 -2.609375 "/></g></g></g><g fill="#ffffff" fill-opacity="1"><g transform="translate(174.556318, 119.005611)"><g><path d="M 59.078125 -62.28125 C 59.078125 -69.664062 57.984375 -75.601562 55.796875 -80.09375 C 53.617188 -84.59375 50.5625 -87.875 46.625 -89.9375 C 42.6875 -92.007812 38.113281 -93.046875 32.90625 -93.046875 C 29.300781 -93.046875 26.097656 -92.457031 23.296875 -91.28125 C 20.492188 -90.101562 18.035156 -88.488281 15.921875 -86.4375 C 13.804688 -84.394531 12.023438 -82.035156 10.578125 -79.359375 C 9.128906 -76.691406 7.960938 -73.847656 7.078125 -70.828125 L 1.671875 -77.625 C 2.734375 -79.539062 4.242188 -81.546875 6.203125 -83.640625 C 8.160156 -85.734375 10.472656 -87.703125 13.140625 -89.546875 C 15.816406 -91.390625 18.8125 -92.890625 22.125 -94.046875 C 25.4375 -95.203125 29.03125 -95.78125 32.90625 -95.78125 C 37.625 -95.78125 42.039062 -95.164062 46.15625 -93.9375 C 50.269531 -92.71875 53.875 -90.828125 56.96875 -88.265625 C 60.0625 -85.710938 62.472656 -82.441406 64.203125 -78.453125 C 65.941406 -74.472656 66.8125 -69.726562 66.8125 -64.21875 C 66.8125 -59.675781 66.1875 -55.3125 64.9375 -51.125 C 63.695312 -46.945312 62.007812 -43 59.875 -39.28125 C 57.738281 -35.5625 55.347656 -32.078125 52.703125 -28.828125 C 50.054688 -25.585938 47.304688 -22.617188 44.453125 -19.921875 C 41.609375 -17.234375 38.835938 -14.832031 36.140625 -12.71875 C 33.453125 -10.601562 31.015625 -8.800781 28.828125 -7.3125 C 26.648438 -5.820312 24.867188 -4.675781 23.484375 -3.875 C 22.109375 -3.070312 21.351562 -2.648438 21.21875 -2.609375 L 28.5625 -2.609375 C 34.789062 -2.609375 40.039062 -2.90625 44.3125 -3.5 C 48.59375 -4.101562 52.078125 -4.859375 54.765625 -5.765625 C 57.460938 -6.679688 59.519531 -7.617188 60.9375 -8.578125 C 62.363281 -9.535156 63.363281 -10.390625 63.9375 -11.140625 C 64.519531 -11.898438 64.832031 -12.390625 64.875 -12.609375 L 64.875 -12.75 C 64.875 -12.75 64.875 -12.738281 64.875 -12.71875 C 64.875 -12.695312 64.875 -12.660156 64.875 -12.609375 L 62.21875 0 L 7.875 0 C 7.875 0 8.597656 -0.410156 10.046875 -1.234375 C 11.492188 -2.054688 13.425781 -3.234375 15.84375 -4.765625 C 18.269531 -6.304688 21.007812 -8.1875 24.0625 -10.40625 C 27.113281 -12.632812 30.25 -15.148438 33.46875 -17.953125 C 36.695312 -20.753906 39.832031 -23.8125 42.875 -27.125 C 45.925781 -30.445312 48.664062 -33.976562 51.09375 -37.71875 C 53.519531 -41.457031 55.457031 -45.382812 56.90625 -49.5 C 58.351562 -53.613281 59.078125 -57.875 59.078125 -62.28125 Z M 59.078125 -62.28125 "/></g></g></g><g fill="#ffffff" fill-opacity="1"><g transform="translate(259.462477, 119.005611)"><g><path d="M 35.984375 -71.359375 C 40.742188 -71.359375 45.191406 -70.429688 49.328125 -68.578125 C 53.460938 -66.734375 57.097656 -64.175781 60.234375 -60.90625 C 63.378906 -57.632812 65.835938 -53.835938 67.609375 -49.515625 C 69.390625 -45.203125 70.28125 -40.578125 70.28125 -35.640625 C 70.28125 -30.703125 69.390625 -26.070312 67.609375 -21.75 C 65.835938 -17.4375 63.378906 -13.644531 60.234375 -10.375 C 57.097656 -7.101562 53.460938 -4.546875 49.328125 -2.703125 C 45.191406 -0.859375 40.742188 0.0625 35.984375 0.0625 C 31.265625 0.0625 26.820312 -0.722656 22.65625 -2.296875 C 18.5 -3.878906 14.851562 -6.335938 11.71875 -9.671875 C 8.582031 -13.015625 6.125 -17.265625 4.34375 -22.421875 C 2.5625 -27.585938 1.671875 -33.726562 1.671875 -40.84375 C 1.671875 -58.957031 4.726562 -72.617188 10.84375 -81.828125 C 16.96875 -91.046875 25.722656 -95.65625 37.109375 -95.65625 C 38.265625 -95.65625 39.832031 -95.519531 41.8125 -95.25 C 43.800781 -94.988281 45.925781 -94.457031 48.1875 -93.65625 C 50.457031 -92.851562 52.640625 -91.679688 54.734375 -90.140625 C 56.828125 -88.609375 58.539062 -86.570312 59.875 -84.03125 L 54.265625 -78.4375 C 54.265625 -78.4375 54.097656 -78.925781 53.765625 -79.90625 C 53.429688 -80.882812 52.863281 -82.09375 52.0625 -83.53125 C 51.257812 -84.976562 50.164062 -86.4375 48.78125 -87.90625 C 47.40625 -89.375 45.671875 -90.597656 43.578125 -91.578125 C 41.492188 -92.554688 38.984375 -93.046875 36.046875 -93.046875 C 36.046875 -93.046875 35.585938 -93.023438 34.671875 -92.984375 C 33.765625 -92.941406 32.566406 -92.765625 31.078125 -92.453125 C 29.585938 -92.140625 27.953125 -91.582031 26.171875 -90.78125 C 24.390625 -89.976562 22.597656 -88.804688 20.796875 -87.265625 C 18.992188 -85.734375 17.34375 -83.753906 15.84375 -81.328125 C 14.351562 -78.910156 13.148438 -75.910156 12.234375 -72.328125 C 11.328125 -68.742188 10.875 -64.484375 10.875 -59.546875 C 12.832031 -62.210938 15.191406 -64.410156 17.953125 -66.140625 C 20.710938 -67.878906 23.648438 -69.179688 26.765625 -70.046875 C 29.878906 -70.921875 32.953125 -71.359375 35.984375 -71.359375 Z M 35.984375 -3 C 39.535156 -3 42.878906 -3.863281 46.015625 -5.59375 C 49.160156 -7.332031 51.921875 -9.726562 54.296875 -12.78125 C 56.679688 -15.832031 58.539062 -19.347656 59.875 -23.328125 C 61.207031 -27.304688 61.875 -31.523438 61.875 -35.984375 C 61.875 -40.472656 61.207031 -44.675781 59.875 -48.59375 C 58.539062 -52.507812 56.679688 -55.945312 54.296875 -58.90625 C 51.921875 -61.863281 49.160156 -64.1875 46.015625 -65.875 C 42.878906 -67.570312 39.535156 -68.421875 35.984375 -68.421875 C 32.421875 -68.421875 29.066406 -67.707031 25.921875 -66.28125 C 22.785156 -64.851562 20.023438 -62.835938 17.640625 -60.234375 C 15.265625 -57.640625 13.410156 -54.515625 12.078125 -50.859375 C 10.742188 -47.210938 10.078125 -43.164062 10.078125 -38.71875 C 10.078125 -32.800781 10.742188 -27.613281 12.078125 -23.15625 C 13.410156 -18.707031 15.265625 -14.992188 17.640625 -12.015625 C 20.023438 -9.035156 22.785156 -6.785156 25.921875 -5.265625 C 29.066406 -3.753906 32.421875 -3 35.984375 -3 Z M 35.984375 -3 "/></g></g></g></g></g><g transform="matrix(1, 0, 0, 1, 406, 266)"><g clip-path="url(#99dccd35b7)"><g fill="#ffffff" fill-opacity="1"><g transform="translate(1.440815, 55.330703)"><g><path d="M 23.1875 -26.828125 C 25.488281 -26.347656 27.523438 -25.535156 29.296875 -24.390625 C 31.066406 -23.253906 32.457031 -21.789062 33.46875 -20 C 34.476562 -18.207031 34.984375 -16.066406 34.984375 -13.578125 C 34.984375 -11.265625 34.539062 -9.25 33.65625 -7.53125 C 32.769531 -5.820312 31.546875 -4.410156 29.984375 -3.296875 C 28.421875 -2.179688 26.601562 -1.347656 24.53125 -0.796875 C 22.46875 -0.242188 20.257812 0.03125 17.90625 0.03125 C 15.539062 0.03125 13.320312 -0.242188 11.25 -0.796875 C 9.175781 -1.347656 7.351562 -2.179688 5.78125 -3.296875 C 4.21875 -4.410156 2.992188 -5.820312 2.109375 -7.53125 C 1.222656 -9.25 0.78125 -11.265625 0.78125 -13.578125 C 0.78125 -16.128906 1.3125 -18.3125 2.375 -20.125 C 3.4375 -21.9375 4.894531 -23.410156 6.75 -24.546875 C 8.613281 -25.691406 10.722656 -26.484375 13.078125 -26.921875 C 11.472656 -27.296875 10.054688 -27.863281 8.828125 -28.625 C 7.597656 -29.382812 6.628906 -30.34375 5.921875 -31.5 C 5.222656 -32.65625 4.875 -34.003906 4.875 -35.546875 C 4.875 -37.117188 5.222656 -38.492188 5.921875 -39.671875 C 6.628906 -40.847656 7.601562 -41.820312 8.84375 -42.59375 C 10.082031 -43.363281 11.515625 -43.941406 13.140625 -44.328125 C 14.765625 -44.710938 16.507812 -44.90625 18.375 -44.90625 C 20.226562 -44.90625 21.96875 -44.710938 23.59375 -44.328125 C 25.226562 -43.941406 26.660156 -43.363281 27.890625 -42.59375 C 29.117188 -41.820312 30.082031 -40.847656 30.78125 -39.671875 C 31.476562 -38.492188 31.828125 -37.117188 31.828125 -35.546875 C 31.828125 -33.941406 31.460938 -32.550781 30.734375 -31.375 C 30.003906 -30.195312 28.984375 -29.234375 27.671875 -28.484375 C 26.367188 -27.734375 24.875 -27.179688 23.1875 -26.828125 Z M 8.203125 -35.671875 C 8.203125 -33.816406 8.644531 -32.28125 9.53125 -31.0625 C 10.414062 -29.84375 11.597656 -28.925781 13.078125 -28.3125 C 14.554688 -27.695312 16.21875 -27.367188 18.0625 -27.328125 L 18.375 -27.328125 C 20.25 -27.328125 21.953125 -27.628906 23.484375 -28.234375 C 25.015625 -28.835938 26.238281 -29.753906 27.15625 -30.984375 C 28.082031 -32.210938 28.546875 -33.773438 28.546875 -35.671875 C 28.546875 -37.578125 28.082031 -39.132812 27.15625 -40.34375 C 26.238281 -41.550781 25.015625 -42.453125 23.484375 -43.046875 C 21.953125 -43.640625 20.25 -43.9375 18.375 -43.9375 C 16.507812 -43.9375 14.804688 -43.640625 13.265625 -43.046875 C 11.722656 -42.453125 10.492188 -41.550781 9.578125 -40.34375 C 8.660156 -39.132812 8.203125 -37.578125 8.203125 -35.671875 Z M 17.90625 -1.40625 C 19.675781 -1.40625 21.335938 -1.65625 22.890625 -2.15625 C 24.441406 -2.65625 25.8125 -3.410156 27 -4.421875 C 28.195312 -5.441406 29.128906 -6.726562 29.796875 -8.28125 C 30.460938 -9.832031 30.796875 -11.648438 30.796875 -13.734375 C 30.796875 -15.828125 30.460938 -17.640625 29.796875 -19.171875 C 29.128906 -20.703125 28.195312 -21.960938 27 -22.953125 C 25.8125 -23.941406 24.441406 -24.679688 22.890625 -25.171875 C 21.335938 -25.660156 19.675781 -25.90625 17.90625 -25.90625 C 16.125 -25.90625 14.453125 -25.660156 12.890625 -25.171875 C 11.328125 -24.679688 9.957031 -23.941406 8.78125 -22.953125 C 7.601562 -21.960938 6.675781 -20.703125 6 -19.171875 C 5.332031 -17.640625 5 -15.828125 5 -13.734375 C 5 -11.648438 5.332031 -9.832031 6 -8.28125 C 6.675781 -6.726562 7.601562 -5.441406 8.78125 -4.421875 C 9.957031 -3.410156 11.328125 -2.65625 12.890625 -2.15625 C 14.453125 -1.65625 16.125 -1.40625 17.90625 -1.40625 Z M 17.90625 -1.40625 "/></g></g></g><g fill="#ffffff" fill-opacity="1"><g transform="translate(44.913388, 55.330703)"><g><path d="M 3.75 -31.171875 C 2.9375 -31.171875 2.238281 -31.457031 1.65625 -32.03125 C 1.070312 -32.601562 0.78125 -33.296875 0.78125 -34.109375 C 0.78125 -34.941406 1.070312 -35.644531 1.65625 -36.21875 C 2.238281 -36.800781 2.9375 -37.09375 3.75 -37.09375 C 4.5625 -37.09375 5.253906 -36.800781 5.828125 -36.21875 C 6.410156 -35.644531 6.703125 -34.941406 6.703125 -34.109375 C 6.703125 -33.296875 6.410156 -32.601562 5.828125 -32.03125 C 5.253906 -31.457031 4.5625 -31.171875 3.75 -31.171875 Z M 3.75 -16.5 C 4.5625 -16.5 5.253906 -16.207031 5.828125 -15.625 C 6.410156 -15.050781 6.703125 -14.359375 6.703125 -13.546875 C 6.703125 -12.734375 6.410156 -12.035156 5.828125 -11.453125 C 5.253906 -10.867188 4.5625 -10.578125 3.75 -10.578125 C 2.9375 -10.578125 2.238281 -10.867188 1.65625 -11.453125 C 1.070312 -12.035156 0.78125 -12.734375 0.78125 -13.546875 C 0.78125 -14.359375 1.070312 -15.050781 1.65625 -15.625 C 2.238281 -16.207031 2.9375 -16.5 3.75 -16.5 Z M 3.75 -16.5 "/></g></g></g><g fill="#ffffff" fill-opacity="1"><g transform="translate(60.094837, 55.330703)"><g><path d="M 16.875 -44.90625 C 18.644531 -44.90625 20.332031 -44.523438 21.9375 -43.765625 C 23.539062 -43.003906 25.015625 -41.9375 26.359375 -40.5625 C 27.710938 -39.1875 28.878906 -37.5625 29.859375 -35.6875 C 30.835938 -33.820312 31.597656 -31.769531 32.140625 -29.53125 C 32.679688 -27.289062 32.953125 -24.925781 32.953125 -22.4375 C 32.953125 -19.957031 32.679688 -17.59375 32.140625 -15.34375 C 31.597656 -13.101562 30.835938 -11.046875 29.859375 -9.171875 C 28.878906 -7.296875 27.710938 -5.664062 26.359375 -4.28125 C 25.015625 -2.90625 23.539062 -1.84375 21.9375 -1.09375 C 20.332031 -0.34375 18.644531 0.03125 16.875 0.03125 C 15.09375 0.03125 13.398438 -0.34375 11.796875 -1.09375 C 10.191406 -1.84375 8.722656 -2.90625 7.390625 -4.28125 C 6.054688 -5.664062 4.890625 -7.296875 3.890625 -9.171875 C 2.898438 -11.046875 2.132812 -13.101562 1.59375 -15.34375 C 1.050781 -17.59375 0.78125 -19.957031 0.78125 -22.4375 C 0.78125 -24.925781 1.050781 -27.289062 1.59375 -29.53125 C 2.132812 -31.769531 2.898438 -33.820312 3.890625 -35.6875 C 4.890625 -37.5625 6.054688 -39.1875 7.390625 -40.5625 C 8.722656 -41.9375 10.191406 -43.003906 11.796875 -43.765625 C 13.398438 -44.523438 15.09375 -44.90625 16.875 -44.90625 Z M 16.875 -1.21875 C 18.207031 -1.21875 19.476562 -1.582031 20.6875 -2.3125 C 21.894531 -3.039062 23.003906 -4.054688 24.015625 -5.359375 C 25.023438 -6.671875 25.90625 -8.207031 26.65625 -9.96875 C 27.414062 -11.726562 28 -13.644531 28.40625 -15.71875 C 28.8125 -17.800781 29.015625 -19.96875 29.015625 -22.21875 C 29.015625 -24.46875 28.8125 -26.644531 28.40625 -28.75 C 28 -30.863281 27.414062 -32.828125 26.65625 -34.640625 C 25.90625 -36.460938 25.023438 -38.050781 24.015625 -39.40625 C 23.003906 -40.757812 21.894531 -41.816406 20.6875 -42.578125 C 19.476562 -43.335938 18.207031 -43.71875 16.875 -43.71875 C 15.53125 -43.71875 14.253906 -43.335938 13.046875 -42.578125 C 11.835938 -41.816406 10.726562 -40.757812 9.71875 -39.40625 C 8.707031 -38.050781 7.828125 -36.460938 7.078125 -34.640625 C 6.328125 -32.828125 5.742188 -30.863281 5.328125 -28.75 C 4.921875 -26.644531 4.71875 -24.46875 4.71875 -22.21875 C 4.71875 -19.96875 4.921875 -17.800781 5.328125 -15.71875 C 5.742188 -13.644531 6.328125 -11.726562 7.078125 -9.96875 C 7.828125 -8.207031 8.707031 -6.671875 9.71875 -5.359375 C 10.726562 -4.054688 11.835938 -3.039062 13.046875 -2.3125 C 14.253906 -1.582031 15.53125 -1.21875 16.875 -1.21875 Z M 16.875 -1.21875 "/></g></g></g><g fill="#ffffff" fill-opacity="1"><g transform="translate(101.533197, 55.330703)"><g><path d="M 16.875 -44.90625 C 18.644531 -44.90625 20.332031 -44.523438 21.9375 -43.765625 C 23.539062 -43.003906 25.015625 -41.9375 26.359375 -40.5625 C 27.710938 -39.1875 28.878906 -37.5625 29.859375 -35.6875 C 30.835938 -33.820312 31.597656 -31.769531 32.140625 -29.53125 C 32.679688 -27.289062 32.953125 -24.925781 32.953125 -22.4375 C 32.953125 -19.957031 32.679688 -17.59375 32.140625 -15.34375 C 31.597656 -13.101562 30.835938 -11.046875 29.859375 -9.171875 C 28.878906 -7.296875 27.710938 -5.664062 26.359375 -4.28125 C 25.015625 -2.90625 23.539062 -1.84375 21.9375 -1.09375 C 20.332031 -0.34375 18.644531 0.03125 16.875 0.03125 C 15.09375 0.03125 13.398438 -0.34375 11.796875 -1.09375 C 10.191406 -1.84375 8.722656 -2.90625 7.390625 -4.28125 C 6.054688 -5.664062 4.890625 -7.296875 3.890625 -9.171875 C 2.898438 -11.046875 2.132812 -13.101562 1.59375 -15.34375 C 1.050781 -17.59375 0.78125 -19.957031 0.78125 -22.4375 C 0.78125 -24.925781 1.050781 -27.289062 1.59375 -29.53125 C 2.132812 -31.769531 2.898438 -33.820312 3.890625 -35.6875 C 4.890625 -37.5625 6.054688 -39.1875 7.390625 -40.5625 C 8.722656 -41.9375 10.191406 -43.003906 11.796875 -43.765625 C 13.398438 -44.523438 15.09375 -44.90625 16.875 -44.90625 Z M 16.875 -1.21875 C 18.207031 -1.21875 19.476562 -1.582031 20.6875 -2.3125 C 21.894531 -3.039062 23.003906 -4.054688 24.015625 -5.359375 C 25.023438 -6.671875 25.90625 -8.207031 26.65625 -9.96875 C 27.414062 -11.726562 28 -13.644531 28.40625 -15.71875 C 28.8125 -17.800781 29.015625 -19.96875 29.015625 -22.21875 C 29.015625 -24.46875 28.8125 -26.644531 28.40625 -28.75 C 28 -30.863281 27.414062 -32.828125 26.65625 -34.640625 C 25.90625 -36.460938 25.023438 -38.050781 24.015625 -39.40625 C 23.003906 -40.757812 21.894531 -41.816406 20.6875 -42.578125 C 19.476562 -43.335938 18.207031 -43.71875 16.875 -43.71875 C 15.53125 -43.71875 14.253906 -43.335938 13.046875 -42.578125 C 11.835938 -41.816406 10.726562 -40.757812 9.71875 -39.40625 C 8.707031 -38.050781 7.828125 -36.460938 7.078125 -34.640625 C 6.328125 -32.828125 5.742188 -30.863281 5.328125 -28.75 C 4.921875 -26.644531 4.71875 -24.46875 4.71875 -22.21875 C 4.71875 -19.96875 4.921875 -17.800781 5.328125 -15.71875 C 5.742188 -13.644531 6.328125 -11.726562 7.078125 -9.96875 C 7.828125 -8.207031 8.707031 -6.671875 9.71875 -5.359375 C 10.726562 -4.054688 11.835938 -3.039062 13.046875 -2.3125 C 14.253906 -1.582031 15.53125 -1.21875 16.875 -1.21875 Z M 16.875 -1.21875 "/></g></g></g><g fill="#ffffff" fill-opacity="1"><g transform="translate(142.971557, 55.330703)"><g/></g></g><g fill="#ffffff" fill-opacity="1"><g transform="translate(166.321137, 55.330703)"><g><path d="M 19.34375 -44.84375 C 21.382812 -44.84375 23.320312 -44.535156 25.15625 -43.921875 C 27 -43.304688 28.625 -42.421875 30.03125 -41.265625 C 31.4375 -40.109375 32.546875 -38.707031 33.359375 -37.0625 C 34.171875 -35.425781 34.578125 -33.585938 34.578125 -31.546875 C 34.578125 -28.523438 33.992188 -25.957031 32.828125 -23.84375 C 31.660156 -21.738281 29.796875 -20.140625 27.234375 -19.046875 C 24.679688 -17.953125 21.300781 -17.40625 17.09375 -17.40625 L 5.921875 -17.40625 L 5.921875 -4.15625 C 5.921875 -2.925781 6.03125 -2.015625 6.25 -1.421875 C 6.46875 -0.828125 6.679688 -0.445312 6.890625 -0.28125 C 7.097656 -0.113281 7.203125 -0.03125 7.203125 -0.03125 L 0.78125 -0.03125 C 0.78125 -0.03125 0.890625 -0.117188 1.109375 -0.296875 C 1.328125 -0.472656 1.546875 -0.859375 1.765625 -1.453125 C 1.984375 -2.046875 2.09375 -2.957031 2.09375 -4.1875 L 2.09375 -40.5 C 2.09375 -41.75 1.984375 -42.679688 1.765625 -43.296875 C 1.546875 -43.910156 1.328125 -44.320312 1.109375 -44.53125 C 0.890625 -44.738281 0.78125 -44.84375 0.78125 -44.84375 C 0.78125 -44.84375 1.097656 -44.84375 1.734375 -44.84375 C 2.367188 -44.84375 3.21875 -44.84375 4.28125 -44.84375 C 5.351562 -44.84375 6.523438 -44.84375 7.796875 -44.84375 C 9.066406 -44.84375 10.351562 -44.84375 11.65625 -44.84375 C 12.957031 -44.84375 14.164062 -44.84375 15.28125 -44.84375 C 16.40625 -44.84375 17.332031 -44.84375 18.0625 -44.84375 C 18.789062 -44.84375 19.21875 -44.84375 19.34375 -44.84375 Z M 15.171875 -18.53125 C 17.347656 -18.53125 19.375 -18.703125 21.25 -19.046875 C 23.125 -19.390625 24.757812 -20.019531 26.15625 -20.9375 C 27.5625 -21.851562 28.65625 -23.15625 29.4375 -24.84375 C 30.21875 -26.539062 30.609375 -28.742188 30.609375 -31.453125 C 30.609375 -33.617188 30.210938 -35.46875 29.421875 -37 C 28.628906 -38.539062 27.570312 -39.785156 26.25 -40.734375 C 24.9375 -41.679688 23.484375 -42.375 21.890625 -42.8125 C 20.296875 -43.25 18.695312 -43.46875 17.09375 -43.46875 L 6.296875 -43.46875 C 6.191406 -43.15625 6.101562 -42.753906 6.03125 -42.265625 C 5.957031 -41.773438 5.921875 -41.1875 5.921875 -40.5 L 5.921875 -18.53125 Z M 15.171875 -18.53125 "/></g></g></g><g fill="#ffffff" fill-opacity="1"><g transform="translate(209.386878, 55.330703)"><g><path d="M 3.75 -6.046875 C 4.5625 -6.046875 5.253906 -5.753906 5.828125 -5.171875 C 6.410156 -4.597656 6.703125 -3.90625 6.703125 -3.09375 C 6.703125 -2.28125 6.410156 -1.585938 5.828125 -1.015625 C 5.253906 -0.441406 4.5625 -0.15625 3.75 -0.15625 C 2.9375 -0.15625 2.238281 -0.441406 1.65625 -1.015625 C 1.070312 -1.585938 0.78125 -2.28125 0.78125 -3.09375 C 0.78125 -3.90625 1.070312 -4.597656 1.65625 -5.171875 C 2.238281 -5.753906 2.9375 -6.046875 3.75 -6.046875 Z M 3.75 -6.046875 "/></g></g></g><g fill="#ffffff" fill-opacity="1"><g transform="translate(224.568327, 55.330703)"><g><path d="M 44.375 -44.875 C 44.375 -44.875 44.265625 -44.789062 44.046875 -44.625 C 43.828125 -44.457031 43.609375 -44.082031 43.390625 -43.5 C 43.171875 -42.914062 43.0625 -42 43.0625 -40.75 L 43.0625 -4.375 C 43.0625 -3.144531 43.171875 -2.21875 43.390625 -1.59375 C 43.609375 -0.96875 43.828125 -0.550781 44.046875 -0.34375 C 44.265625 -0.132812 44.375 -0.03125 44.375 -0.03125 L 37.96875 -0.03125 C 37.96875 -0.03125 38.078125 -0.132812 38.296875 -0.34375 C 38.515625 -0.550781 38.726562 -0.96875 38.9375 -1.59375 C 39.144531 -2.21875 39.25 -3.144531 39.25 -4.375 L 39.25 -41.8125 C 39.226562 -41.769531 39.050781 -41.359375 38.71875 -40.578125 C 38.382812 -39.796875 37.929688 -38.71875 37.359375 -37.34375 C 36.785156 -35.976562 36.117188 -34.410156 35.359375 -32.640625 C 34.609375 -30.867188 33.8125 -28.972656 32.96875 -26.953125 C 32.125 -24.941406 31.257812 -22.890625 30.375 -20.796875 C 29.488281 -18.703125 28.617188 -16.644531 27.765625 -14.625 C 26.910156 -12.613281 26.109375 -10.734375 25.359375 -8.984375 C 24.617188 -7.234375 23.96875 -5.679688 23.40625 -4.328125 C 22.84375 -2.984375 22.398438 -1.929688 22.078125 -1.171875 C 21.753906 -0.410156 21.59375 -0.03125 21.59375 -0.03125 C 21.59375 -0.03125 21.425781 -0.410156 21.09375 -1.171875 C 20.757812 -1.929688 20.300781 -2.984375 19.71875 -4.328125 C 19.132812 -5.679688 18.460938 -7.234375 17.703125 -8.984375 C 16.941406 -10.734375 16.117188 -12.609375 15.234375 -14.609375 C 14.359375 -16.617188 13.460938 -18.671875 12.546875 -20.765625 C 11.628906 -22.859375 10.734375 -24.910156 9.859375 -26.921875 C 8.984375 -28.941406 8.160156 -30.835938 7.390625 -32.609375 C 6.617188 -34.378906 5.929688 -35.941406 5.328125 -37.296875 C 4.734375 -38.660156 4.265625 -39.738281 3.921875 -40.53125 C 3.578125 -41.320312 3.394531 -41.726562 3.375 -41.75 C 3.375 -41.707031 3.375 -41.257812 3.375 -40.40625 C 3.375 -39.550781 3.375 -38.390625 3.375 -36.921875 C 3.375 -35.460938 3.375 -33.800781 3.375 -31.9375 C 3.375 -30.070312 3.367188 -28.101562 3.359375 -26.03125 C 3.347656 -23.96875 3.34375 -21.910156 3.34375 -19.859375 C 3.34375 -17.804688 3.34375 -15.847656 3.34375 -13.984375 C 3.34375 -12.128906 3.34375 -10.484375 3.34375 -9.046875 C 3.34375 -7.609375 3.34375 -6.46875 3.34375 -5.625 C 3.34375 -4.789062 3.34375 -4.375 3.34375 -4.375 C 3.34375 -3.144531 3.453125 -2.21875 3.671875 -1.59375 C 3.890625 -0.96875 4.109375 -0.550781 4.328125 -0.34375 C 4.546875 -0.132812 4.65625 -0.03125 4.65625 -0.03125 L 1.34375 -0.03125 C 1.34375 -0.03125 1.453125 -0.132812 1.671875 -0.34375 C 1.890625 -0.550781 2.101562 -0.96875 2.3125 -1.59375 C 2.519531 -2.21875 2.625 -3.144531 2.625 -4.375 L 2.625 -40.71875 C 2.625 -41.820312 2.46875 -42.671875 2.15625 -43.265625 C 1.84375 -43.859375 1.535156 -44.273438 1.234375 -44.515625 C 0.929688 -44.753906 0.78125 -44.875 0.78125 -44.875 L 5.890625 -44.875 L 22.84375 -5.1875 L 39.78125 -44.875 Z M 44.375 -44.875 "/></g></g></g><g fill="#ffffff" fill-opacity="1"><g transform="translate(277.429555, 55.330703)"><g><path d="M 3.75 -6.046875 C 4.5625 -6.046875 5.253906 -5.753906 5.828125 -5.171875 C 6.410156 -4.597656 6.703125 -3.90625 6.703125 -3.09375 C 6.703125 -2.28125 6.410156 -1.585938 5.828125 -1.015625 C 5.253906 -0.441406 4.5625 -0.15625 3.75 -0.15625 C 2.9375 -0.15625 2.238281 -0.441406 1.65625 -1.015625 C 1.070312 -1.585938 0.78125 -2.28125 0.78125 -3.09375 C 0.78125 -3.90625 1.070312 -4.597656 1.65625 -5.171875 C 2.238281 -5.753906 2.9375 -6.046875 3.75 -6.046875 Z M 3.75 -6.046875 "/></g></g></g></g></g></svg>