<svg xmlns="http://www.w3.org/2000/svg" xmlns:xlink="http://www.w3.org/1999/xlink" width="800" zoomAndPan="magnify" viewBox="0 0 600 599.999999" height="800" preserveAspectRatio="xMidYMid meet" version="1.0"><path fill="#b79251" d="M 194.457031 234.316406 C 192.171875 234.316406 192.171875 230.703125 194.457031 230.703125 C 196.746094 230.703125 196.746094 234.316406 194.457031 234.316406 Z M 196.023438 253.703125 C 193.734375 253.703125 193.734375 257.3125 196.023438 257.3125 C 198.3125 257.3125 198.3125 253.703125 196.023438 253.703125 Z M 231.421875 238.890625 C 229.136719 238.890625 229.136719 242.503906 231.421875 242.503906 C 233.710938 242.503906 233.710938 238.890625 231.421875 238.890625 Z M 233.832031 108.25 C 239.128906 111.621094 244.789062 114.269531 250.566406 116.4375 C 252.734375 117.28125 253.699219 113.789062 251.53125 112.945312 C 240.816406 108.730469 231.183594 102.953125 223.113281 94.644531 C 221.550781 92.957031 218.902344 95.484375 220.585938 97.171875 C 224.558594 101.386719 229.015625 105.117188 233.832031 108.128906 Z M 256.226562 82.601562 C 264.777344 85.25 273.324219 88.261719 281.390625 91.996094 C 288.015625 95.125 294.757812 98.617188 300.296875 103.554688 C 301.980469 105.117188 304.632812 102.589844 302.824219 101.023438 C 297.046875 95.96875 290.183594 92.113281 283.199219 88.984375 C 274.769531 85.132812 265.980469 82 257.070312 79.230469 C 254.902344 78.507812 253.941406 82 256.105469 82.722656 Z M 428.652344 256.472656 C 430.9375 256.472656 430.9375 252.859375 428.652344 252.859375 C 426.363281 252.859375 426.363281 256.472656 428.652344 256.472656 Z M 403.605469 299.699219 C 405.894531 299.699219 405.894531 296.085938 403.605469 296.085938 C 401.320312 296.085938 401.320312 299.699219 403.605469 299.699219 Z M 425.398438 279.226562 C 427.6875 279.226562 427.6875 275.617188 425.398438 275.617188 C 423.113281 275.617188 423.113281 279.226562 425.398438 279.226562 Z M 391.203125 261.890625 C 393.492188 261.890625 393.492188 258.277344 391.203125 258.277344 C 388.917969 258.277344 388.917969 261.890625 391.203125 261.890625 Z M 424.675781 311.617188 C 422.390625 311.617188 422.390625 315.230469 424.675781 315.230469 C 426.964844 315.230469 426.964844 311.617188 424.675781 311.617188 Z M 379.042969 131.007812 C 368.808594 136.304688 357.609375 137.75 346.292969 138.230469 C 344.003906 138.230469 344.003906 141.964844 346.292969 141.84375 C 358.332031 141.363281 370.132812 139.796875 380.847656 134.136719 C 382.894531 133.054688 381.089844 129.921875 379.042969 131.007812 Z M 331.964844 118.605469 C 337.984375 114.148438 344.847656 110.898438 351.832031 108.25 C 360.257812 105.117188 369.050781 102.589844 377.839844 100.542969 C 380.125 100.0625 379.164062 96.570312 376.875 97.050781 C 367.84375 99.097656 358.933594 101.628906 350.386719 104.878906 C 343.28125 107.527344 336.179688 110.777344 330.15625 115.351562 C 328.351562 116.679688 330.15625 119.929688 331.964844 118.484375 Z M 549.058594 562.308594 C 536.296875 571.699219 518.113281 579.765625 498.125 585.183594 C 482.113281 589.519531 466.941406 591.566406 453.9375 591.566406 C 432.144531 591.566406 416.609375 585.785156 413.71875 575.070312 C 409.144531 558.214844 435.632812 537.140625 475.488281 525.703125 C 472.839844 515.828125 470.070312 505.835938 467.421875 495.960938 C 460.199219 469.472656 452.851562 442.863281 445.507812 416.371094 C 438.042969 389.523438 430.578125 362.792969 422.871094 335.941406 C 422.75 335.457031 422.871094 334.976562 422.992188 334.617188 C 421.1875 334.734375 419.378906 334.734375 417.574219 334.617188 C 402.523438 333.171875 389.519531 321.972656 381.332031 309.933594 C 376.875 303.308594 373.144531 295.964844 369.53125 288.859375 C 365.917969 281.757812 362.425781 274.53125 359.175781 267.308594 C 352.792969 253.101562 347.015625 238.53125 341.957031 223.71875 C 331 192.292969 322.453125 160.265625 313.542969 128.238281 C 302.824219 158.460938 291.988281 188.683594 278.742188 218.0625 C 272.242188 232.390625 265.136719 246.476562 257.3125 260.203125 C 253.335938 267.1875 249.125 274.050781 244.789062 280.914062 C 240.453125 287.535156 236.121094 293.917969 230.21875 299.214844 C 220.707031 308.003906 207.460938 314.867188 194.457031 312.820312 C 194.699219 313.183594 194.699219 313.664062 194.457031 314.148438 C 189.039062 328.957031 183.742188 343.765625 178.445312 358.578125 C 169.171875 384.464844 159.902344 410.472656 150.75 436.359375 C 143.285156 457.433594 135.941406 478.625 128.476562 499.816406 C 167.367188 514.023438 192.289062 536.902344 186.632812 553.398438 C 183.742188 561.703125 173.144531 566.519531 156.769531 567.125 C 155.6875 567.125 154.484375 567.125 153.277344 567.125 C 138.105469 567.125 119.925781 563.75 101.746094 557.371094 C 59.960938 542.921875 31.667969 518.476562 37.566406 501.742188 C 43.226562 485.367188 76.699219 482.71875 115.953125 495.480469 C 119.445312 485.605469 122.816406 475.734375 126.308594 465.859375 C 135.457031 439.492188 144.730469 413.242188 154.121094 386.871094 C 163.511719 360.625 172.90625 334.375 182.539062 308.246094 C 172.183594 302.105469 164.835938 291.269531 162.070312 279.589844 C 157.855469 262.371094 161.347656 244.429688 165.078125 227.453125 C 169.050781 209.753906 173.988281 192.414062 179.890625 175.316406 C 191.566406 141 206.257812 107.769531 221.550781 74.894531 C 221.550781 74.777344 221.550781 74.65625 221.671875 74.535156 C 221.671875 74.292969 221.910156 74.175781 222.03125 73.933594 C 222.394531 73.332031 222.875 72.847656 223.355469 72.367188 C 226.726562 69.359375 231.664062 68.753906 236 68.753906 C 242.261719 68.753906 248.640625 69.960938 254.660156 71.40625 C 269.351562 75.015625 283.679688 80.675781 296.925781 87.78125 C 299.933594 89.464844 302.945312 91.152344 305.957031 93.078125 C 308.964844 95.003906 311.976562 97.050781 314.382812 99.699219 C 317.273438 102.832031 319.921875 107.046875 319.320312 111.5 C 319.320312 112.101562 319.078125 112.585938 318.960938 113.066406 C 320.40625 111.863281 321.96875 110.777344 323.535156 109.816406 C 329.316406 106.203125 335.574219 103.3125 341.835938 100.664062 C 355.683594 94.882812 370.375 90.550781 385.304688 88.742188 C 391.082031 88.019531 396.984375 87.660156 402.761719 88.742188 C 406.617188 89.464844 410.949219 91.152344 412.878906 94.765625 C 412.878906 94.765625 412.878906 95.003906 412.878906 95.003906 C 412.878906 95.003906 412.878906 95.003906 412.878906 95.125 C 414.5625 99.339844 416.128906 103.675781 417.695312 107.886719 C 430.578125 142.082031 442.496094 176.761719 450.804688 212.28125 C 454.898438 229.859375 458.390625 247.679688 460.199219 265.621094 C 461.882812 281.878906 461.761719 299.816406 452.972656 314.144531 C 448.757812 321.007812 442.496094 327.03125 435.273438 330.761719 C 439.609375 345.691406 443.824219 360.746094 448.035156 375.796875 C 455.621094 402.765625 463.085938 429.738281 470.554688 456.828125 C 476.574219 478.625 482.472656 500.417969 488.253906 522.210938 C 528.347656 512.335938 561.460938 517.273438 566.035156 534.011719 C 568.324219 542.4375 562.304688 552.433594 549.058594 562.1875 Z M 412.636719 104.515625 C 410.347656 110.175781 404.691406 114.511719 399.753906 117.640625 C 391.804688 122.699219 383.015625 126.429688 374.105469 129.320312 C 363.75 132.570312 353.035156 134.617188 342.320312 135.222656 C 337.140625 135.460938 331.84375 135.582031 326.664062 135.222656 C 324.257812 134.980469 321.730469 134.617188 319.441406 133.65625 C 320.644531 137.148438 322.089844 140.519531 323.535156 143.890625 C 328.109375 152.558594 333.890625 160.507812 340.273438 167.851562 C 357.25 187.238281 378.683594 202.648438 401.679688 214.207031 C 407.339844 217.097656 413.238281 219.625 419.140625 221.914062 C 425.160156 224.203125 431.300781 226.007812 437.199219 228.417969 C 441.777344 230.34375 446.109375 232.75 449.601562 236.242188 C 450.925781 237.445312 452.011719 238.890625 453.09375 240.214844 C 450.566406 226.007812 447.433594 211.921875 443.703125 198.074219 C 435.273438 166.285156 424.4375 135.339844 412.757812 104.636719 Z M 445.148438 237.207031 C 440.332031 233.113281 434.191406 230.945312 428.289062 229.019531 C 403.847656 220.949219 380.730469 208.308594 360.621094 192.292969 C 351.109375 184.707031 341.957031 176.039062 334.132812 166.40625 C 336.417969 170.5 338.707031 174.714844 341.714844 178.328125 C 344.847656 182.058594 348.339844 185.671875 351.953125 189.042969 C 361.464844 197.832031 372.058594 205.417969 383.136719 212.039062 C 390.121094 216.253906 397.226562 220.109375 404.449219 223.601562 C 412.277344 227.453125 420.34375 231.1875 428.53125 233.953125 C 434.308594 235.882812 440.449219 236.605469 446.230469 238.53125 C 446.351562 238.53125 446.472656 238.53125 446.589844 238.652344 C 446.109375 238.167969 445.507812 237.566406 444.90625 237.085938 Z M 316.429688 122.820312 C 315.46875 126.792969 318.476562 129.5625 322.089844 130.644531 C 326.183594 131.847656 330.757812 131.730469 335.09375 131.730469 C 340.152344 131.730469 345.089844 131.488281 350.144531 130.886719 C 360.019531 129.683594 369.773438 127.273438 379.042969 123.78125 C 386.75 120.890625 394.457031 117.28125 401.078125 112.34375 C 406.015625 108.730469 411.792969 103.070312 409.507812 96.328125 C 409.144531 95.726562 409.023438 95.484375 408.542969 95.003906 C 407.578125 94.042969 406.015625 93.320312 404.449219 92.835938 C 402.402344 92.234375 400.234375 91.875 398.066406 91.753906 C 392.410156 91.390625 386.628906 91.996094 380.96875 92.957031 C 367.242188 95.246094 353.636719 99.460938 340.875 105 C 335.214844 107.40625 329.554688 110.175781 324.378906 113.546875 C 321.007812 115.714844 317.515625 118.84375 316.429688 122.820312 Z M 224.679688 76.222656 C 224.078125 77.664062 223.835938 79.109375 223.957031 80.675781 C 224.320312 84.046875 226.488281 87.058594 228.652344 89.464844 C 231.304688 92.355469 234.433594 94.882812 237.804688 97.050781 C 245.269531 102.109375 253.457031 106.082031 261.886719 109.210938 C 271.039062 112.585938 280.671875 114.992188 290.300781 116.074219 C 295 116.679688 299.816406 117.039062 304.511719 116.917969 C 307.882812 116.917969 312.21875 116.558594 314.503906 113.789062 C 317.152344 110.539062 315.105469 106.203125 312.820312 103.3125 C 310.652344 100.664062 307.761719 98.617188 304.871094 96.691406 C 299.574219 93.078125 293.792969 90.066406 288.015625 87.296875 C 275.613281 81.277344 262.367188 76.460938 248.761719 73.691406 C 243.585938 72.609375 238.167969 71.886719 232.867188 72.367188 C 231.183594 72.488281 229.015625 72.96875 227.570312 73.570312 C 226.125 74.292969 225.160156 75.015625 224.558594 76.101562 Z M 170.980469 217.460938 C 173.628906 214.929688 176.515625 212.761719 179.769531 210.835938 C 180.492188 208.066406 181.214844 205.296875 181.9375 202.527344 C 187.714844 180.492188 195.542969 159.0625 204.453125 138.230469 C 205.414062 136.0625 208.425781 137.988281 207.582031 140.035156 C 202.644531 151.597656 198.070312 163.277344 193.976562 175.074219 C 190.363281 185.671875 187.113281 196.265625 184.464844 207.105469 C 184.464844 207.585938 184.222656 207.945312 184.101562 208.429688 C 188.917969 206.019531 193.976562 203.972656 198.792969 202.167969 C 211.074219 197.472656 223.957031 194.460938 236 189.042969 C 246.472656 184.226562 256.46875 178.328125 265.738281 171.34375 C 282.476562 158.820312 296.804688 143.289062 308.484375 126.070312 C 309.808594 123.902344 311.011719 121.734375 312.097656 119.449219 C 311.855469 119.449219 311.613281 119.566406 311.375 119.6875 C 307.039062 120.890625 302.34375 120.53125 297.886719 120.289062 C 292.589844 119.929688 287.414062 119.328125 282.234375 118.363281 C 271.878906 116.4375 261.765625 113.304688 252.132812 108.851562 C 243.824219 105.117188 235.515625 100.421875 228.652344 94.28125 C 225.402344 91.390625 222.511719 87.78125 221.1875 83.808594 C 220.585938 85.132812 219.863281 86.574219 219.261719 87.902344 C 204.453125 119.929688 190.605469 152.558594 179.890625 186.273438 C 176.636719 196.628906 173.628906 206.984375 170.980469 217.460938 Z M 291.628906 152.921875 C 275.855469 169.777344 256.828125 183.867188 235.636719 193.136719 C 223.355469 198.433594 210.351562 201.445312 197.949219 206.382812 C 193.855469 208.066406 189.519531 209.753906 185.425781 211.921875 C 192.410156 210.476562 199.875 210.597656 206.378906 210.714844 C 215.167969 210.957031 223.957031 211.800781 232.628906 210.957031 C 239.851562 210.234375 246.714844 207.828125 252.855469 203.972656 C 264.535156 196.871094 273.203125 185.671875 280.308594 174.234375 C 283.4375 169.175781 286.089844 163.757812 288.976562 158.699219 C 290.421875 156.171875 291.988281 153.523438 293.554688 150.996094 C 292.953125 151.714844 292.347656 152.320312 291.746094 153.042969 Z M 127.269531 503.066406 C 125.945312 507.039062 124.5 510.894531 123.175781 514.867188 C 127.269531 519.199219 128.234375 525.945312 126.789062 531.722656 C 126.546875 532.6875 125.707031 533.046875 124.863281 532.925781 C 124.863281 532.925781 124.621094 532.925781 124.5 532.925781 C 118.480469 532.085938 112.703125 530.15625 107.28125 527.507812 C 106.441406 527.027344 106.199219 525.824219 106.679688 524.980469 C 107.164062 524.136719 108.246094 523.898438 109.210938 524.378906 C 113.785156 526.667969 118.601562 528.230469 123.660156 529.195312 C 124.378906 524.015625 122.9375 518.238281 118.238281 515.46875 C 112.097656 511.976562 104.394531 513.78125 99.9375 519.082031 C 98.492188 520.886719 95.84375 518.238281 97.410156 516.550781 C 100.78125 512.578125 105.71875 510.289062 110.773438 510.050781 C 110.773438 509.929688 110.773438 509.808594 110.773438 509.6875 C 112.097656 506.078125 113.304688 502.34375 114.628906 498.730469 C 77.902344 486.929688 45.753906 488.496094 40.816406 502.824219 C 35.882812 517.152344 64.296875 540.511719 102.828125 553.878906 C 122.09375 560.5 141.117188 563.871094 156.53125 563.390625 C 171.097656 562.910156 180.851562 558.695312 183.140625 552.070312 C 188.078125 537.742188 163.632812 516.429688 127.269531 503.066406 Z M 191.6875 312.101562 C 190.964844 311.859375 190.242188 311.738281 189.402344 311.496094 C 188.078125 311.015625 186.871094 310.535156 185.667969 309.933594 C 180.371094 324.382812 175.074219 338.832031 169.894531 353.277344 C 160.382812 379.648438 150.992188 406.019531 141.71875 432.507812 C 132.570312 458.515625 123.539062 484.402344 114.507812 510.410156 C 116.433594 510.773438 118.238281 511.375 120.046875 512.457031 C 120.046875 512.457031 120.046875 512.457031 120.167969 512.457031 C 125.222656 498.128906 130.160156 483.679688 135.21875 469.351562 C 144.367188 443.34375 153.519531 417.457031 162.671875 391.570312 C 172.0625 365.320312 181.453125 339.191406 190.964844 312.941406 C 191.085938 312.582031 191.328125 312.21875 191.6875 312.101562 Z M 280.671875 204.457031 C 290.300781 181.820312 298.730469 158.820312 307.039062 135.582031 C 304.269531 140.277344 301.378906 144.851562 298.609375 149.429688 C 295.960938 153.761719 293.191406 158.097656 290.785156 162.671875 C 287.652344 168.453125 284.644531 174.234375 281.03125 179.773438 C 273.566406 191.210938 264.292969 201.925781 252.132812 208.429688 C 245.632812 211.921875 238.40625 213.847656 231.0625 214.449219 C 222.273438 215.171875 213.484375 214.207031 204.8125 214.085938 C 197.949219 214.085938 190.964844 214.085938 184.222656 215.773438 C 183.621094 215.894531 182.898438 216.132812 182.296875 216.253906 C 180.851562 221.671875 179.527344 227.210938 178.324219 232.75 C 176.398438 241.539062 174.710938 250.570312 174.230469 259.601562 C 173.867188 267.308594 174.351562 275.496094 177.84375 282.480469 C 178.925781 284.527344 175.796875 286.332031 174.710938 284.285156 C 170.617188 275.976562 170.136719 266.34375 170.738281 257.3125 C 171.339844 247.921875 173.144531 238.769531 175.3125 229.621094 C 176.277344 225.648438 177.121094 221.792969 178.203125 217.820312 C 174.710938 219.507812 171.699219 222.035156 169.652344 225.648438 C 169.535156 225.886719 169.414062 226.007812 169.171875 226.128906 C 168.328125 229.980469 167.488281 233.835938 166.765625 237.566406 C 163.632812 253.582031 161.464844 271.882812 168.8125 287.175781 C 174.589844 299.214844 186.753906 309.8125 200.71875 309.210938 C 208.0625 308.847656 215.167969 305.71875 221.066406 301.625 C 227.328125 297.410156 232.867188 291.992188 237.203125 285.730469 C 246.234375 272.96875 254.058594 259.242188 261.40625 245.394531 C 268.507812 231.90625 275.011719 218.179688 281.03125 204.214844 Z M 426.484375 330.28125 C 440.8125 326.910156 451.046875 314.386719 454.898438 300.78125 C 459.597656 284.40625 457.1875 266.828125 454.660156 250.332031 C 454.539062 250.210938 454.417969 250.089844 454.296875 249.847656 C 453.09375 247.441406 451.527344 245.152344 449.242188 243.707031 C 447.074219 242.382812 444.542969 241.660156 442.136719 241.058594 C 438.886719 240.335938 435.515625 239.613281 432.261719 238.769531 C 427.6875 237.566406 423.234375 235.761719 418.777344 233.953125 C 392.527344 222.878906 366.28125 208.550781 346.050781 188.199219 C 342.800781 184.949219 339.550781 181.578125 336.902344 177.726562 C 333.648438 173.148438 331 168.09375 328.472656 163.035156 C 327.386719 160.746094 326.183594 158.578125 325.101562 156.292969 C 332.203125 181.457031 339.429688 206.503906 348.460938 231.066406 C 353.757812 245.515625 359.535156 259.722656 366.160156 273.570312 C 369.53125 280.671875 373.023438 287.65625 376.753906 294.519531 C 380.367188 301.261719 383.980469 308.003906 389.035156 313.785156 C 398.066406 324.261719 412.15625 333.894531 426.722656 330.402344 Z M 482.835938 539.066406 C 482.953125 539.066406 483.074219 538.949219 483.316406 538.828125 C 485.121094 538.105469 486.929688 537.625 488.613281 537.382812 C 484.640625 522.570312 480.546875 507.640625 476.574219 492.832031 C 469.226562 465.859375 461.882812 439.007812 454.417969 412.160156 C 447.074219 385.546875 439.488281 358.9375 431.902344 332.328125 C 429.976562 333.050781 427.929688 333.652344 425.882812 334.015625 C 426.121094 334.253906 426.242188 334.496094 426.363281 334.855469 C 430.699219 350.027344 434.914062 365.199219 439.246094 380.371094 C 446.710938 406.859375 454.058594 433.351562 461.28125 459.960938 C 468.507812 486.328125 475.730469 512.699219 482.835938 539.066406 Z M 562.542969 535.09375 C 558.691406 520.523438 526.664062 516.550781 489.214844 525.824219 C 490.179688 529.554688 491.261719 533.167969 492.226562 536.902344 C 492.226562 537.140625 492.226562 537.261719 492.226562 537.382812 C 497.402344 537.863281 502.21875 540.632812 505.351562 545.089844 C 506.675781 547.015625 503.542969 548.820312 502.21875 546.894531 C 498.246094 541.476562 490.78125 539.1875 484.640625 542.078125 C 479.222656 544.605469 477.296875 551.351562 478.257812 556.886719 C 478.621094 559.175781 475.128906 560.140625 474.765625 557.851562 C 473.683594 551.953125 475.128906 545.207031 479.582031 541.113281 C 478.5 537.019531 477.417969 533.046875 476.332031 528.953125 C 439.125 539.671875 413.117188 559.175781 417.09375 573.867188 C 421.066406 588.554688 457.667969 592.046875 497.042969 581.453125 C 516.667969 576.152344 534.367188 568.328125 546.890625 559.175781 C 558.691406 550.507812 564.351562 541.71875 562.542969 534.855469 Z M 499.332031 550.023438 C 494.273438 552.675781 488.734375 554.359375 483.074219 555.203125 C 482.113281 555.324219 481.628906 556.527344 481.871094 557.371094 C 482.113281 558.453125 483.074219 558.816406 484.039062 558.574219 C 490.058594 557.609375 495.839844 555.804688 501.136719 553.035156 C 501.980469 552.554688 502.21875 551.351562 501.738281 550.507812 C 501.257812 549.664062 500.171875 549.421875 499.210938 549.90625 Z M 415.886719 319.804688 C 404.570312 317.035156 396.503906 307.886719 390.601562 298.375 C 383.980469 287.777344 378.199219 276.339844 372.902344 265.019531 C 369.773438 258.398438 366.882812 251.773438 364.113281 245.03125 C 363.269531 242.863281 359.777344 243.828125 360.621094 245.996094 C 365.679688 258.398438 371.214844 270.4375 377.476562 282.238281 C 383.257812 293.195312 389.15625 305.117188 398.308594 313.785156 C 403.003906 318.242188 408.664062 321.730469 415.046875 323.296875 C 417.332031 323.898438 418.296875 320.40625 416.007812 319.804688 Z M 316.3125 73.089844 C 315.105469 68.996094 314.144531 64.902344 314.144531 60.6875 C 314.144531 57.917969 314.746094 54.546875 317.273438 52.863281 C 320.285156 50.816406 324.136719 52.742188 326.425781 55.148438 C 328.832031 57.796875 329.796875 61.050781 330.277344 64.421875 C 331.121094 69.839844 330.757812 75.015625 329.195312 80.195312 C 327.386719 86.09375 325.460938 91.875 324.136719 97.894531 C 324.136719 98.375 323.894531 98.859375 323.777344 99.339844 C 323.535156 100.421875 322.691406 100.785156 321.847656 100.664062 C 320.886719 100.542969 319.921875 99.699219 320.285156 98.496094 C 321.367188 94.402344 320.765625 90.066406 319.921875 85.972656 C 318.960938 81.640625 317.636719 77.425781 316.3125 73.089844 Z M 318.839844 68.875 C 319.800781 72.488281 321.007812 76.101562 321.96875 79.710938 C 322.570312 81.757812 323.054688 83.808594 323.535156 85.855469 C 324.257812 83.566406 324.980469 81.277344 325.582031 78.992188 C 326.90625 74.535156 327.386719 70.082031 326.664062 65.503906 C 326.183594 62.496094 325.582031 59.484375 323.414062 57.316406 C 322.453125 56.355469 320.644531 54.910156 319.320312 55.75 C 318.359375 56.234375 318.117188 57.558594 317.875 58.519531 C 317.152344 61.890625 318.117188 65.746094 318.839844 68.996094 Z M 292.953125 45.878906 C 291.507812 42.988281 290.542969 39.136719 292.109375 36.125 C 292.832031 34.679688 294.277344 33.597656 295.960938 33.597656 C 297.886719 33.597656 299.210938 35.042969 300.296875 36.488281 C 301.980469 38.894531 302.585938 41.90625 302.945312 44.675781 C 303.308594 47.445312 303.425781 50.332031 303.789062 53.222656 C 303.789062 53.464844 303.789062 53.824219 303.789062 54.066406 C 303.789062 54.910156 302.824219 55.632812 301.980469 55.632812 C 301.140625 55.632812 301.257812 55.632812 301.019531 55.390625 C 301.019531 55.390625 300.898438 55.390625 300.777344 55.269531 C 297.886719 52.621094 294.878906 49.730469 293.070312 46.117188 Z M 297.40625 46.238281 C 298.128906 47.324219 298.972656 48.285156 299.816406 49.128906 C 299.816406 47.925781 299.574219 46.722656 299.453125 45.515625 C 299.210938 43.351562 298.730469 40.941406 297.648438 39.015625 C 297.285156 38.414062 296.5625 37.328125 295.839844 37.207031 C 295.839844 37.207031 295.722656 37.207031 295.601562 37.207031 C 295.480469 37.328125 295.359375 37.449219 295.238281 37.570312 C 295 37.929688 294.878906 38.414062 294.878906 38.894531 C 294.636719 41.421875 295.960938 43.953125 297.285156 46 Z M 314.625 22.761719 C 314.503906 19.148438 314.625 14.8125 316.792969 11.804688 C 317.753906 10.238281 319.320312 9.035156 321.128906 8.550781 C 323.535156 7.949219 325.222656 9.515625 326.0625 11.5625 C 327.75 16.015625 326.90625 21.316406 325.582031 25.769531 C 324.257812 30.34375 322.210938 34.679688 319.441406 38.535156 C 318.71875 39.617188 316.914062 39.496094 316.3125 38.414062 C 316.070312 38.050781 315.949219 37.570312 316.070312 37.089844 C 316.070312 32.152344 314.984375 27.457031 314.746094 22.519531 Z M 318.238281 23.84375 C 318.359375 26.492188 318.839844 29.261719 319.199219 31.910156 C 320.644531 29.140625 321.730469 26.371094 322.453125 23.363281 C 323.054688 20.953125 323.414062 18.304688 323.292969 15.777344 C 323.292969 14.933594 323.054688 12.765625 322.453125 12.285156 C 321.96875 11.804688 321.007812 12.523438 320.523438 13.007812 C 317.996094 15.535156 318.117188 20.59375 318.359375 23.84375 Z M 318.238281 23.84375 " fill-opacity="1" fill-rule="nonzero"/></svg>