<svg xmlns="http://www.w3.org/2000/svg" xmlns:xlink="http://www.w3.org/1999/xlink" width="800" zoomAndPan="magnify" viewBox="0 0 600 599.999999" height="800" preserveAspectRatio="xMidYMid meet" version="1.0"><defs><filter x="0%" y="0%" width="100%" height="100%" id="6d992bdcd2"><feColorMatrix values="0 0 0 0 1 0 0 0 0 1 0 0 0 0 1 0 0 0 1 0" color-interpolation-filters="sRGB"/></filter><g/><mask id="6fdd3b139b"><g filter="url(#6d992bdcd2)"><rect x="-60" width="720" fill="#000000" y="-60" height="719.999999" fill-opacity="0.63"/></g></mask><clipPath id="71e3b5c0bd"><path d="M 0.199219 0 L 509 0 L 509 600 L 0.199219 600 Z M 0.199219 0 " clip-rule="nonzero"/></clipPath><clipPath id="b1e12852b2"><rect x="0" width="509" y="0" height="600"/></clipPath><clipPath id="53e2bcda9d"><rect x="0" width="509" y="0" height="600"/></clipPath><clipPath id="bb1dc7127c"><rect x="0" width="600" y="0" height="592"/></clipPath></defs><g mask="url(#6fdd3b139b)"><g transform="matrix(1, 0, 0, 1, 31, -0.000000000000034788)"><g clip-path="url(#53e2bcda9d)"><g clip-path="url(#71e3b5c0bd)"><g transform="matrix(1, 0, 0, 1, 0.000000000000003553, -0.000000000000034788)"><g clip-path="url(#b1e12852b2)"><g fill="#b79251" fill-opacity="1"><g transform="translate(1.148224, 517.215891)"><g><path d="M 206.21875 0 C 194.726562 0 181.796875 -2.757812 167.421875 -8.28125 C 153.054688 -13.8125 140.679688 -23.316406 130.296875 -36.796875 C 119.910156 -50.285156 114.71875 -68.519531 114.71875 -91.5 C 114.71875 -116.695312 119.910156 -139.019531 130.296875 -158.46875 C 140.679688 -177.925781 154.160156 -194.503906 170.734375 -208.203125 C 187.316406 -221.910156 205.332031 -232.742188 224.78125 -240.703125 C 244.238281 -248.660156 263.03125 -253.742188 281.15625 -255.953125 C 276.289062 -263.910156 270.875 -274.851562 264.90625 -288.78125 C 258.9375 -302.707031 255.734375 -316.519531 255.296875 -330.21875 C 224.347656 -326.6875 200.695312 -320.71875 184.34375 -312.3125 C 167.988281 -303.914062 155.71875 -294.082031 147.53125 -282.8125 C 139.351562 -271.539062 132.394531 -260.15625 126.65625 -248.65625 C 124.882812 -245.5625 123.445312 -242.6875 122.34375 -240.03125 C 121.238281 -237.382812 118.914062 -236.0625 115.375 -236.0625 C 111.394531 -236.0625 109.847656 -237.9375 110.734375 -241.6875 C 111.617188 -245.445312 112.28125 -247.769531 112.71875 -248.65625 C 114.9375 -253.96875 118.144531 -261.148438 122.34375 -270.203125 C 126.539062 -279.265625 133.390625 -288.878906 142.890625 -299.046875 C 152.398438 -309.222656 166.21875 -318.398438 184.34375 -326.578125 C 202.46875 -334.753906 226.335938 -340.832031 255.953125 -344.8125 C 258.160156 -382.382812 270.644531 -413.101562 293.40625 -436.96875 C 316.175781 -460.84375 345.6875 -473.882812 381.9375 -476.09375 C 408.019531 -477.863281 428.242188 -473.222656 442.609375 -462.171875 C 456.984375 -451.117188 465.050781 -435.867188 466.8125 -416.421875 C 468.144531 -400.953125 462.734375 -386.914062 450.578125 -374.3125 C 438.421875 -361.71875 420.957031 -351.769531 398.1875 -344.46875 C 375.414062 -337.175781 348.5625 -333.53125 317.625 -333.53125 C 313.195312 -333.53125 308.773438 -333.53125 304.359375 -333.53125 C 299.941406 -333.53125 295.519531 -333.3125 291.09375 -332.875 C 289.769531 -319.613281 290.765625 -305.796875 294.078125 -291.421875 C 297.398438 -277.054688 303.921875 -262.800781 313.640625 -248.65625 C 315.847656 -245.5625 315.515625 -242.578125 312.640625 -239.703125 C 309.773438 -236.828125 306.570312 -235.390625 303.03125 -235.390625 C 298.164062 -235.390625 293.96875 -237.601562 290.4375 -242.03125 C 263.914062 -234.507812 240.375 -223.34375 219.8125 -208.53125 C 199.257812 -193.726562 183.234375 -176.378906 171.734375 -156.484375 C 160.242188 -136.597656 154.5 -114.9375 154.5 -91.5 C 154.5 -86.195312 154.941406 -79.347656 155.828125 -70.953125 C 156.710938 -62.554688 158.8125 -54.15625 162.125 -45.75 C 165.4375 -37.351562 170.738281 -30.28125 178.03125 -24.53125 C 185.332031 -18.789062 195.394531 -15.921875 208.21875 -15.921875 C 241.8125 -15.921875 269.21875 -22.769531 290.4375 -36.46875 C 311.65625 -50.175781 329.890625 -69.515625 345.140625 -94.484375 C 360.390625 -119.460938 375.75 -148.3125 391.21875 -181.03125 C 384.59375 -181.90625 378.070312 -182.785156 371.65625 -183.671875 C 365.25 -184.554688 358.734375 -185 352.109375 -185 C 343.265625 -185 335.75 -184.335938 329.5625 -183.015625 C 323.375 -181.691406 316.519531 -178.15625 309 -172.40625 C 299.71875 -164.882812 292.421875 -156.8125 287.109375 -148.1875 C 281.804688 -139.570312 276.945312 -130.847656 272.53125 -122.015625 C 270.757812 -118.921875 269.320312 -116.046875 268.21875 -113.390625 C 267.113281 -110.734375 264.796875 -109.40625 261.265625 -109.40625 C 257.285156 -109.40625 255.734375 -111.285156 256.609375 -115.046875 C 257.492188 -118.804688 258.160156 -121.128906 258.609375 -122.015625 C 262.140625 -132.179688 267.332031 -142.789062 274.1875 -153.84375 C 281.039062 -164.894531 288.664062 -173.957031 297.0625 -181.03125 C 304.582031 -188.101562 313.203125 -192.960938 322.921875 -195.609375 C 332.648438 -198.265625 342.378906 -199.59375 352.109375 -199.59375 C 365.804688 -199.59375 377.515625 -198.597656 387.234375 -196.609375 C 396.960938 -194.617188 406.140625 -192.519531 414.765625 -190.3125 C 423.390625 -188.101562 433.222656 -187 444.265625 -187 C 453.992188 -187 461.398438 -189.757812 466.484375 -195.28125 C 471.566406 -200.800781 474.992188 -204.890625 476.765625 -207.546875 C 479.859375 -212.847656 483.394531 -213.507812 487.375 -209.53125 C 490.03125 -206.882812 490.691406 -203.789062 489.359375 -200.25 C 488.921875 -199.363281 486.820312 -196.710938 483.0625 -192.296875 C 479.300781 -187.878906 474.546875 -183.679688 468.796875 -179.703125 C 463.054688 -175.722656 456.648438 -173.734375 449.578125 -173.734375 C 441.617188 -173.734375 433.992188 -174.285156 426.703125 -175.390625 C 419.410156 -176.492188 412.003906 -177.488281 404.484375 -178.375 C 387.691406 -138.144531 370.894531 -106.09375 354.09375 -82.21875 C 337.289062 -58.351562 320.488281 -40.453125 303.6875 -28.515625 C 286.894531 -16.578125 270.320312 -8.835938 253.96875 -5.296875 C 237.613281 -1.765625 221.695312 0 206.21875 0 Z M 291.765625 -347.46875 C 295.742188 -347.90625 299.941406 -348.125 304.359375 -348.125 C 308.773438 -348.125 313.195312 -348.125 317.625 -348.125 C 343.257812 -348.125 365.800781 -350.773438 385.25 -356.078125 C 404.707031 -361.378906 419.738281 -369.113281 430.34375 -379.28125 C 440.957031 -389.457031 445.378906 -401.394531 443.609375 -415.09375 C 441.835938 -433.21875 435.757812 -445.707031 425.375 -452.5625 C 414.988281 -459.414062 401.394531 -462.398438 384.59375 -461.515625 C 360.28125 -460.191406 339.390625 -449.03125 321.921875 -428.03125 C 304.460938 -407.03125 294.410156 -380.175781 291.765625 -347.46875 Z M 291.765625 -347.46875 "/></g></g></g></g></g></g></g></g></g><g transform="matrix(1, 0, 0, 1, 0, 8)"><g clip-path="url(#bb1dc7127c)"><g fill="#f0f0f0" fill-opacity="1"><g transform="translate(91.105929, 194.969196)"><g><path d="M 2.25 73.359375 C 5.382812 67.960938 9.363281 61.785156 14.1875 54.828125 C 19.019531 47.867188 24.195312 40.6875 29.71875 33.28125 C 35.238281 25.882812 40.660156 18.738281 45.984375 11.84375 C 51.316406 4.945312 56.144531 -1.160156 60.46875 -6.484375 C 64.800781 -11.816406 68.15625 -15.863281 70.53125 -18.625 C 73.664062 -22.132812 77.644531 -27.023438 82.46875 -33.296875 C 87.300781 -39.566406 92.539062 -46.648438 98.1875 -54.546875 C 103.832031 -62.441406 109.378906 -70.625 114.828125 -79.09375 C 120.285156 -87.5625 125.238281 -95.710938 129.6875 -103.546875 C 134.144531 -111.378906 137.65625 -118.367188 140.21875 -124.515625 C 142.789062 -130.660156 143.921875 -135.394531 143.609375 -138.71875 C 143.296875 -142.039062 141.070312 -143.390625 136.9375 -142.765625 C 132.664062 -142.015625 127.363281 -140.070312 121.03125 -136.9375 C 114.707031 -133.800781 107.96875 -129.847656 100.8125 -125.078125 C 93.664062 -120.316406 86.488281 -115.050781 79.28125 -109.28125 C 72.070312 -103.507812 65.363281 -97.613281 59.15625 -91.59375 C 52.945312 -85.582031 47.675781 -79.816406 43.34375 -74.296875 C 39.019531 -68.773438 36.070312 -63.820312 34.5 -59.4375 C 32.9375 -55.050781 33.347656 -51.601562 35.734375 -49.09375 C 36.234375 -48.59375 37.457031 -48.21875 39.40625 -47.96875 C 41.351562 -47.71875 43.957031 -47.90625 47.21875 -48.53125 C 50.476562 -49.15625 54.175781 -50.65625 58.3125 -53.03125 C 62.445312 -55.414062 66.894531 -58.992188 71.65625 -63.765625 C 71.65625 -63.765625 72.1875 -63.984375 73.25 -64.421875 C 74.320312 -64.859375 75.421875 -65.265625 76.546875 -65.640625 C 77.679688 -66.015625 78.5 -66.109375 79 -65.921875 C 79.5 -65.734375 79.1875 -65.015625 78.0625 -63.765625 C 72.289062 -57.242188 66.957031 -52.539062 62.0625 -49.65625 C 57.175781 -46.769531 52.882812 -45.015625 49.1875 -44.390625 C 45.488281 -43.765625 42.570312 -43.671875 40.4375 -44.109375 C 38.3125 -44.546875 37.117188 -44.828125 36.859375 -44.953125 C 32.597656 -46.078125 30 -48.300781 29.0625 -51.625 C 28.125 -54.945312 28.40625 -59.054688 29.90625 -63.953125 C 31.40625 -68.710938 34.285156 -73.851562 38.546875 -79.375 C 42.816406 -84.894531 47.992188 -90.503906 54.078125 -96.203125 C 60.160156 -101.910156 66.679688 -107.425781 73.640625 -112.75 C 80.597656 -118.082031 87.554688 -123.003906 94.515625 -127.515625 C 101.472656 -132.035156 108.023438 -135.894531 114.171875 -139.09375 C 120.316406 -142.289062 125.519531 -144.515625 129.78125 -145.765625 C 133.539062 -146.898438 136.894531 -147.4375 139.84375 -147.375 C 142.789062 -147.3125 145.644531 -146.148438 148.40625 -143.890625 C 151.539062 -141.503906 152.984375 -138.773438 152.734375 -135.703125 C 152.484375 -132.628906 151.726562 -129.460938 150.46875 -126.203125 C 146.582031 -115.921875 142.128906 -106.171875 137.109375 -96.953125 C 132.097656 -87.742188 127.648438 -80.191406 123.765625 -74.296875 C 123.515625 -73.796875 123.578125 -73.359375 123.953125 -72.984375 C 124.328125 -72.609375 124.765625 -72.609375 125.265625 -72.984375 C 130.535156 -77.492188 136.554688 -82.570312 143.328125 -88.21875 C 150.097656 -93.863281 157.148438 -99.253906 164.484375 -104.390625 C 171.816406 -109.535156 179.023438 -113.800781 186.109375 -117.1875 C 193.203125 -120.570312 199.695312 -122.265625 205.59375 -122.265625 C 210.351562 -122.265625 213.984375 -121.414062 216.484375 -119.71875 C 218.992188 -118.03125 220.65625 -115.867188 221.46875 -113.234375 C 222.289062 -110.597656 222.671875 -107.929688 222.609375 -105.234375 C 222.546875 -102.535156 222.390625 -100.3125 222.140625 -98.5625 C 221.265625 -92.539062 219.132812 -86.425781 215.75 -80.21875 C 212.363281 -74.007812 208.222656 -67.738281 203.328125 -61.40625 C 198.441406 -55.070312 193.175781 -48.648438 187.53125 -42.140625 C 187.28125 -41.878906 187.25 -41.5625 187.4375 -41.1875 C 187.625 -40.8125 187.90625 -40.6875 188.28125 -40.8125 C 192.789062 -41.4375 196.394531 -41.8125 199.09375 -41.9375 C 201.789062 -42.070312 204.328125 -41.976562 206.703125 -41.65625 C 209.085938 -41.34375 211.976562 -40.875 215.375 -40.25 C 213.363281 -39.625 211.007812 -39.21875 208.3125 -39.03125 C 205.613281 -38.84375 202.070312 -38.53125 197.6875 -38.09375 C 193.300781 -37.65625 187.40625 -36.679688 180 -35.171875 C 178.375 -34.921875 177.125 -34.234375 176.25 -33.109375 C 174.363281 -31.222656 171.191406 -28.617188 166.734375 -25.296875 C 162.285156 -21.972656 157.050781 -18.335938 151.03125 -14.390625 C 145.019531 -10.441406 138.660156 -6.582031 131.953125 -2.8125 C 125.242188 0.945312 118.722656 4.265625 112.390625 7.140625 C 106.054688 10.023438 100.316406 12.125 95.171875 13.4375 C 90.035156 14.757812 86.023438 14.859375 83.140625 13.734375 C 79.003906 11.972656 77 9.929688 77.125 7.609375 C 77.25 5.296875 79.253906 2.570312 83.140625 -0.5625 C 89.160156 -5.582031 96.492188 -10.628906 105.140625 -15.703125 C 113.796875 -20.785156 123.203125 -25.425781 133.359375 -29.625 C 143.515625 -33.820312 153.796875 -36.925781 164.203125 -38.9375 C 169.597656 -40.0625 174.050781 -42.378906 177.5625 -45.890625 C 181.320312 -49.523438 185.269531 -53.722656 189.40625 -58.484375 C 193.550781 -63.253906 197.503906 -68.335938 201.265625 -73.734375 C 205.023438 -79.128906 208.25 -84.519531 210.9375 -89.90625 C 213.632812 -95.300781 215.363281 -100.316406 216.125 -104.953125 C 216.875 -109.847656 216.335938 -113.265625 214.515625 -115.203125 C 212.703125 -117.148438 209.347656 -117.8125 204.453125 -117.1875 C 199.691406 -116.550781 194.675781 -115.070312 189.40625 -112.75 C 184.144531 -110.4375 179.097656 -107.742188 174.265625 -104.671875 C 169.441406 -101.597656 165.148438 -98.554688 161.390625 -95.546875 C 146.210938 -83.515625 131.757812 -70.820312 118.03125 -57.46875 C 104.300781 -44.113281 91.851562 -29.410156 80.6875 -13.359375 C 75.425781 -5.828125 69.597656 2.289062 63.203125 11 C 56.804688 19.71875 50.285156 28.429688 43.640625 37.140625 C 36.992188 45.859375 30.753906 54.007812 24.921875 61.59375 C 19.085938 69.1875 14.101562 75.613281 9.96875 80.875 C 8.59375 82.632812 7.054688 83.265625 5.359375 82.765625 C 3.671875 82.265625 2.414062 81.101562 1.59375 79.28125 C 0.78125 77.457031 1 75.484375 2.25 73.359375 Z M 158.75 -29.53125 C 159.375 -29.90625 159.53125 -30.4375 159.21875 -31.125 C 158.90625 -31.8125 158.375 -32.03125 157.625 -31.78125 C 151.976562 -30.65625 145.675781 -28.804688 138.71875 -26.234375 C 131.757812 -23.671875 124.894531 -20.691406 118.125 -17.296875 C 111.351562 -13.910156 105.144531 -10.335938 99.5 -6.578125 C 93.851562 -2.816406 89.523438 0.753906 86.515625 4.140625 C 85.640625 5.140625 85.546875 6.234375 86.234375 7.421875 C 86.929688 8.617188 87.90625 9.09375 89.15625 8.84375 C 96.175781 7.707031 103.726562 5.070312 111.8125 0.9375 C 119.90625 -3.195312 127.992188 -8.019531 136.078125 -13.53125 C 144.171875 -19.050781 151.726562 -24.382812 158.75 -29.53125 Z M 158.75 -29.53125 "/></g></g></g><g fill="#f0f0f0" fill-opacity="1"><g transform="translate(279.184684, 194.969196)"><g><path d="M -18.0625 15.609375 C -20.0625 13.984375 -21 11.539062 -20.875 8.28125 C -20.75 5.019531 -19.648438 1.414062 -17.578125 -2.53125 C -15.515625 -6.488281 -12.664062 -10.316406 -9.03125 -14.015625 C -5.394531 -17.710938 -1.066406 -20.753906 3.953125 -23.140625 C 5.953125 -24.140625 8.394531 -24.640625 11.28125 -24.640625 C 14.164062 -24.640625 16.738281 -24.164062 19 -23.21875 C 21.257812 -22.28125 22.453125 -21 22.578125 -19.375 C 22.578125 -19.375 23.015625 -19.875 23.890625 -20.875 C 24.765625 -21.882812 26.144531 -23.203125 28.03125 -24.828125 C 29.15625 -26.078125 30.75 -26.671875 32.8125 -26.609375 C 34.882812 -26.546875 36.734375 -26.203125 38.359375 -25.578125 C 39.992188 -24.953125 40.5 -24.328125 39.875 -23.703125 C 32.226562 -15.171875 27.023438 -7.550781 24.265625 -0.84375 C 21.503906 5.863281 21.128906 9.96875 23.140625 11.46875 C 24.140625 12.101562 25.925781 11.726562 28.5 10.34375 C 31.070312 8.96875 34.113281 6.960938 37.625 4.328125 C 41.132812 1.691406 44.707031 -1.097656 48.34375 -4.046875 C 51.976562 -6.992188 55.425781 -9.8125 58.6875 -12.5 C 61.945312 -15.195312 64.609375 -17.328125 66.671875 -18.890625 C 68.742188 -20.460938 69.90625 -21.0625 70.15625 -20.6875 C 70.28125 -20.4375 69.398438 -19.273438 67.515625 -17.203125 C 65.640625 -15.140625 63.132812 -12.570312 60 -9.5 C 56.863281 -6.425781 53.382812 -3.257812 49.5625 0 C 45.738281 3.257812 41.914062 6.238281 38.09375 8.9375 C 34.269531 11.632812 30.789062 13.640625 27.65625 14.953125 C 24.519531 16.265625 22.007812 16.484375 20.125 15.609375 C 17.363281 14.234375 15.351562 12.132812 14.09375 9.3125 C 12.84375 6.488281 13.410156 2.191406 15.796875 -3.578125 C 13.410156 -0.441406 10.679688 2.628906 7.609375 5.640625 C 4.546875 8.648438 1.382812 11.25 -1.875 13.4375 C -5.132812 15.632812 -8.175781 17.015625 -11 17.578125 C -13.820312 18.148438 -16.175781 17.492188 -18.0625 15.609375 Z M 19.75 -18.625 C 18.5 -20.5 16.648438 -21.15625 14.203125 -20.59375 C 11.753906 -20.03125 9.085938 -18.648438 6.203125 -16.453125 C 3.316406 -14.265625 0.46875 -11.664062 -2.34375 -8.65625 C -5.164062 -5.644531 -7.613281 -2.601562 -9.6875 0.46875 C -11.757812 3.539062 -13.234375 6.300781 -14.109375 8.75 C -14.984375 11.195312 -14.921875 12.921875 -13.921875 13.921875 C -13.296875 14.546875 -11.664062 14.257812 -9.03125 13.0625 C -6.394531 11.875 -3.695312 10.09375 -0.9375 7.71875 C 2.070312 5.082031 5.300781 1.882812 8.75 -1.875 C 12.195312 -5.644531 15.113281 -8.84375 17.5 -11.46875 C 18.125 -12.101562 18.8125 -13.171875 19.5625 -14.671875 C 20.3125 -16.171875 20.375 -17.488281 19.75 -18.625 Z M 19.75 -18.625 "/></g></g></g><g fill="#f0f0f0" fill-opacity="1"><g transform="translate(347.833535, 194.969196)"><g><path d="M 41.75 -17.296875 C 42.382812 -17.554688 42.953125 -17.585938 43.453125 -17.390625 C 43.953125 -17.203125 44.015625 -17.046875 43.640625 -16.921875 C 38.617188 -13.921875 33.945312 -11.226562 29.625 -8.84375 C 25.300781 -6.457031 20.503906 -4.132812 15.234375 -1.875 C 11.472656 2.632812 7.050781 6.644531 1.96875 10.15625 C -3.101562 13.664062 -7.832031 15.734375 -12.21875 16.359375 C -13.726562 16.484375 -15.140625 16.390625 -16.453125 16.078125 C -17.773438 15.765625 -18.875 14.921875 -19.75 13.546875 C -21.25 11.285156 -21.34375 8.617188 -20.03125 5.546875 C -18.71875 2.472656 -16.742188 -0.378906 -14.109375 -3.015625 C -15.359375 -4.640625 -15.195312 -6.800781 -13.625 -9.5 C -12.0625 -12.195312 -9.617188 -14.890625 -6.296875 -17.578125 C -2.972656 -20.273438 0.753906 -22.4375 4.890625 -24.0625 C 9.023438 -25.695312 12.972656 -26.265625 16.734375 -25.765625 C 18.617188 -25.640625 20.1875 -24.757812 21.4375 -23.125 C 22.695312 -21.5 23.203125 -19.875 22.953125 -18.25 C 22.828125 -16.238281 22.351562 -14.226562 21.53125 -12.21875 C 20.71875 -10.21875 19.625 -8.210938 18.25 -6.203125 C 23.382812 -8.460938 27.832031 -10.5625 31.59375 -12.5 C 35.363281 -14.445312 38.75 -16.046875 41.75 -17.296875 Z M -5.640625 2.640625 C -6.515625 2.640625 -7.644531 2.445312 -9.03125 2.0625 C -10.78125 4.070312 -12.125 5.953125 -13.0625 7.703125 C -14.007812 9.460938 -13.859375 10.46875 -12.609375 10.71875 C -10.972656 10.96875 -8.648438 10.53125 -5.640625 9.40625 C -2.628906 8.28125 1.191406 5.582031 5.828125 1.3125 C 4.953125 1.4375 4.132812 1.59375 3.375 1.78125 C 2.625 1.96875 1.875 2.1875 1.125 2.4375 C 0 2.570312 -1.09375 2.671875 -2.15625 2.734375 C -3.226562 2.796875 -4.390625 2.765625 -5.640625 2.640625 Z M 16.921875 -20.875 C 15.046875 -21.75 12.601562 -21.6875 9.59375 -20.6875 C 6.582031 -19.6875 3.632812 -18.148438 0.75 -16.078125 C -2.132812 -14.015625 -4.390625 -11.664062 -6.015625 -9.03125 C -4.390625 -9.65625 -3.070312 -9.84375 -2.0625 -9.59375 C -1.0625 -9.34375 -0.5 -8.90625 -0.375 -8.28125 C 0.5 -7.394531 0.625 -6.640625 0 -6.015625 C -0.625 -5.390625 -2.128906 -4.070312 -4.515625 -2.0625 C -2.628906 -1.6875 -0.1875 -1.71875 2.8125 -2.15625 C 5.820312 -2.601562 8.394531 -3.015625 10.53125 -3.390625 C 11.789062 -4.890625 13.203125 -6.894531 14.765625 -9.40625 C 16.328125 -11.914062 17.453125 -14.296875 18.140625 -16.546875 C 18.835938 -18.804688 18.429688 -20.25 16.921875 -20.875 Z M 16.921875 -20.875 "/></g></g></g><g fill="#f0f0f0" fill-opacity="1"><g transform="translate(393.536968, 194.969196)"><g><path d="M 129.78125 -109.28125 C 127.78125 -103.132812 124.269531 -96.988281 119.25 -90.84375 C 114.238281 -84.695312 108.25 -78.675781 101.28125 -72.78125 C 94.320312 -66.894531 86.894531 -61.253906 79 -55.859375 C 71.101562 -50.472656 63.203125 -45.519531 55.296875 -41 C 47.398438 -36.488281 40.035156 -32.476562 33.203125 -28.96875 C 26.367188 -25.457031 20.503906 -22.632812 15.609375 -20.5 C 10.722656 -18.363281 7.335938 -16.984375 5.453125 -16.359375 C 4.578125 -14.484375 3.195312 -11.691406 1.3125 -7.984375 C -0.5625 -4.285156 -2.46875 -0.179688 -4.40625 4.328125 C -6.351562 8.835938 -7.984375 13.253906 -9.296875 17.578125 C -10.617188 21.910156 -11.34375 25.582031 -11.46875 28.59375 C -11.59375 31.601562 -10.65625 33.421875 -8.65625 34.046875 C -6.144531 34.921875 -2.476562 34.414062 2.34375 32.53125 C 7.175781 30.65625 12.632812 27.867188 18.71875 24.171875 C 24.800781 20.472656 31.035156 16.394531 37.421875 11.9375 C 43.816406 7.488281 49.898438 3.070312 55.671875 -1.3125 C 61.441406 -5.707031 66.394531 -9.597656 70.53125 -12.984375 C 74.675781 -16.367188 77.5 -18.6875 79 -19.9375 C 79.625 -20.4375 80.21875 -20.40625 80.78125 -19.84375 C 81.34375 -19.28125 81.3125 -18.75 80.6875 -18.25 C 78.4375 -15.988281 75.238281 -13.039062 71.09375 -9.40625 C 66.957031 -5.769531 62.253906 -1.820312 56.984375 2.4375 C 51.722656 6.707031 46.207031 10.941406 40.4375 15.140625 C 34.664062 19.335938 28.957031 23.253906 23.3125 26.890625 C 17.675781 30.535156 12.410156 33.546875 7.515625 35.921875 C 2.628906 38.304688 -1.503906 39.75 -4.890625 40.25 C -5.765625 40.375 -7.046875 40.40625 -8.734375 40.34375 C -10.429688 40.28125 -11.785156 40 -12.796875 39.5 C -16.929688 37.238281 -19.03125 33.003906 -19.09375 26.796875 C -19.15625 20.597656 -17.585938 13.109375 -14.390625 4.328125 C -11.191406 -4.453125 -6.738281 -13.953125 -1.03125 -24.171875 C 4.675781 -34.390625 11.289062 -44.734375 18.8125 -55.203125 C 26.332031 -65.671875 34.351562 -75.671875 42.875 -85.203125 C 51.40625 -94.734375 60.09375 -103.195312 68.9375 -110.59375 C 77.78125 -118 86.367188 -123.707031 94.703125 -127.71875 C 103.046875 -131.726562 110.789062 -133.421875 117.9375 -132.796875 C 121.320312 -132.671875 124.234375 -131.695312 126.671875 -129.875 C 129.117188 -128.0625 130.71875 -125.429688 131.46875 -121.984375 C 132.226562 -118.535156 131.664062 -114.300781 129.78125 -109.28125 Z M 114.734375 -129.40625 C 108.585938 -128.53125 101.816406 -125.738281 94.421875 -121.03125 C 87.023438 -116.332031 79.375 -110.285156 71.46875 -102.890625 C 63.570312 -95.492188 55.765625 -87.28125 48.046875 -78.25 C 40.335938 -69.21875 33.097656 -59.90625 26.328125 -50.3125 C 19.554688 -40.71875 13.664062 -31.472656 8.65625 -22.578125 C 10.53125 -23.328125 13.910156 -24.890625 18.796875 -27.265625 C 23.691406 -29.648438 29.554688 -32.722656 36.390625 -36.484375 C 43.222656 -40.253906 50.523438 -44.519531 58.296875 -49.28125 C 66.078125 -54.039062 73.757812 -59.117188 81.34375 -64.515625 C 88.9375 -69.910156 95.992188 -75.519531 102.515625 -81.34375 C 109.035156 -87.175781 114.425781 -93.007812 118.6875 -98.84375 C 122.945312 -104.675781 125.582031 -110.347656 126.59375 -115.859375 C 127.96875 -121.878906 127.492188 -125.796875 125.171875 -127.609375 C 122.859375 -129.429688 119.378906 -130.03125 114.734375 -129.40625 Z M 114.734375 -129.40625 "/></g></g></g><g fill="#f0f0f0" fill-opacity="1"><g transform="translate(472.153891, 194.969196)"><g><path d="M -18.0625 15.609375 C -20.0625 13.984375 -21 11.539062 -20.875 8.28125 C -20.75 5.019531 -19.648438 1.414062 -17.578125 -2.53125 C -15.515625 -6.488281 -12.664062 -10.316406 -9.03125 -14.015625 C -5.394531 -17.710938 -1.066406 -20.753906 3.953125 -23.140625 C 5.953125 -24.140625 8.394531 -24.640625 11.28125 -24.640625 C 14.164062 -24.640625 16.738281 -24.164062 19 -23.21875 C 21.257812 -22.28125 22.453125 -21 22.578125 -19.375 C 22.578125 -19.375 23.015625 -19.875 23.890625 -20.875 C 24.765625 -21.882812 26.144531 -23.203125 28.03125 -24.828125 C 29.15625 -26.078125 30.75 -26.671875 32.8125 -26.609375 C 34.882812 -26.546875 36.734375 -26.203125 38.359375 -25.578125 C 39.992188 -24.953125 40.5 -24.328125 39.875 -23.703125 C 32.226562 -15.171875 27.023438 -7.550781 24.265625 -0.84375 C 21.503906 5.863281 21.128906 9.96875 23.140625 11.46875 C 24.140625 12.101562 25.925781 11.726562 28.5 10.34375 C 31.070312 8.96875 34.113281 6.960938 37.625 4.328125 C 41.132812 1.691406 44.707031 -1.097656 48.34375 -4.046875 C 51.976562 -6.992188 55.425781 -9.8125 58.6875 -12.5 C 61.945312 -15.195312 64.609375 -17.328125 66.671875 -18.890625 C 68.742188 -20.460938 69.90625 -21.0625 70.15625 -20.6875 C 70.28125 -20.4375 69.398438 -19.273438 67.515625 -17.203125 C 65.640625 -15.140625 63.132812 -12.570312 60 -9.5 C 56.863281 -6.425781 53.382812 -3.257812 49.5625 0 C 45.738281 3.257812 41.914062 6.238281 38.09375 8.9375 C 34.269531 11.632812 30.789062 13.640625 27.65625 14.953125 C 24.519531 16.265625 22.007812 16.484375 20.125 15.609375 C 17.363281 14.234375 15.351562 12.132812 14.09375 9.3125 C 12.84375 6.488281 13.410156 2.191406 15.796875 -3.578125 C 13.410156 -0.441406 10.679688 2.628906 7.609375 5.640625 C 4.546875 8.648438 1.382812 11.25 -1.875 13.4375 C -5.132812 15.632812 -8.175781 17.015625 -11 17.578125 C -13.820312 18.148438 -16.175781 17.492188 -18.0625 15.609375 Z M 19.75 -18.625 C 18.5 -20.5 16.648438 -21.15625 14.203125 -20.59375 C 11.753906 -20.03125 9.085938 -18.648438 6.203125 -16.453125 C 3.316406 -14.265625 0.46875 -11.664062 -2.34375 -8.65625 C -5.164062 -5.644531 -7.613281 -2.601562 -9.6875 0.46875 C -11.757812 3.539062 -13.234375 6.300781 -14.109375 8.75 C -14.984375 11.195312 -14.921875 12.921875 -13.921875 13.921875 C -13.296875 14.546875 -11.664062 14.257812 -9.03125 13.0625 C -6.394531 11.875 -3.695312 10.09375 -0.9375 7.71875 C 2.070312 5.082031 5.300781 1.882812 8.75 -1.875 C 12.195312 -5.644531 15.113281 -8.84375 17.5 -11.46875 C 18.125 -12.101562 18.8125 -13.171875 19.5625 -14.671875 C 20.3125 -16.171875 20.375 -17.488281 19.75 -18.625 Z M 19.75 -18.625 "/></g></g></g><g fill="#f0f0f0" fill-opacity="1"><g transform="translate(42.492019, 456.972585)"><g><path d="M 30.09375 -75.421875 C 31.46875 -79.179688 34.160156 -83.566406 38.171875 -88.578125 C 42.191406 -93.597656 47.050781 -98.773438 52.75 -104.109375 C 58.457031 -109.441406 64.539062 -114.644531 71 -119.71875 C 77.457031 -124.800781 83.820312 -129.378906 90.09375 -133.453125 C 96.363281 -137.523438 102.097656 -140.722656 107.296875 -143.046875 C 112.503906 -145.367188 116.675781 -146.40625 119.8125 -146.15625 C 122.445312 -146.019531 124.828125 -144.882812 126.953125 -142.75 C 129.085938 -140.625 130.625 -137.960938 131.5625 -134.765625 C 132.507812 -131.566406 132.421875 -128.273438 131.296875 -124.890625 C 130.410156 -122.128906 128.679688 -118.300781 126.109375 -113.40625 C 123.546875 -108.519531 120.476562 -103.066406 116.90625 -97.046875 C 113.332031 -91.035156 109.628906 -84.863281 105.796875 -78.53125 C 101.972656 -72.195312 98.210938 -66.144531 94.515625 -60.375 C 90.816406 -54.601562 87.585938 -49.523438 84.828125 -45.140625 C 82.066406 -40.753906 80 -37.492188 78.625 -35.359375 C 84.269531 -36.867188 90.351562 -38.375 96.875 -39.875 C 103.394531 -41.382812 110.039062 -42.859375 116.8125 -44.296875 C 123.582031 -45.734375 130.003906 -47.078125 136.078125 -48.328125 C 142.160156 -49.585938 147.523438 -50.71875 152.171875 -51.71875 C 165.210938 -68.53125 178.566406 -85.679688 192.234375 -103.171875 C 205.898438 -120.660156 219.691406 -137.492188 233.609375 -153.671875 C 234.609375 -154.796875 236.082031 -155.609375 238.03125 -156.109375 C 239.976562 -156.617188 241.546875 -156.75 242.734375 -156.5 C 243.921875 -156.25 243.703125 -155.492188 242.078125 -154.234375 C 241.328125 -153.609375 239.445312 -151.539062 236.4375 -148.03125 C 233.425781 -144.519531 229.628906 -139.972656 225.046875 -134.390625 C 220.472656 -128.804688 215.457031 -122.566406 210 -115.671875 C 204.550781 -108.773438 198.972656 -101.628906 193.265625 -94.234375 C 187.554688 -86.835938 182.066406 -79.597656 176.796875 -72.515625 C 171.535156 -65.429688 166.773438 -58.878906 162.515625 -52.859375 C 164.640625 -53.109375 167.769531 -53.515625 171.90625 -54.078125 C 176.050781 -54.640625 180.628906 -55.265625 185.640625 -55.953125 C 190.660156 -56.648438 195.519531 -57.21875 200.21875 -57.65625 C 204.925781 -58.09375 208.847656 -58.3125 211.984375 -58.3125 C 213.484375 -58.1875 215.203125 -57.898438 217.140625 -57.453125 C 219.085938 -57.015625 220.46875 -56.578125 221.28125 -56.140625 C 222.101562 -55.703125 221.445312 -55.484375 219.3125 -55.484375 C 216.8125 -55.484375 213.144531 -55.234375 208.3125 -54.734375 C 203.488281 -54.234375 198.222656 -53.570312 192.515625 -52.75 C 186.804688 -51.9375 181.316406 -51.0625 176.046875 -50.125 C 170.785156 -49.1875 166.429688 -48.367188 162.984375 -47.671875 C 159.535156 -46.984375 157.6875 -46.453125 157.4375 -46.078125 C 154.300781 -41.566406 150.566406 -36.050781 146.234375 -29.53125 C 141.910156 -23.007812 137.300781 -15.890625 132.40625 -8.171875 C 127.519531 -0.460938 122.691406 7.523438 117.921875 15.796875 C 113.160156 24.078125 108.804688 32.226562 104.859375 40.25 C 100.910156 48.28125 97.648438 55.867188 95.078125 63.015625 C 92.503906 70.160156 91.03125 76.492188 90.65625 82.015625 C 90.53125 83.015625 90.375 84.109375 90.1875 85.296875 C 90 86.492188 88.773438 86.835938 86.515625 86.328125 C 86.015625 86.078125 85.484375 85.796875 84.921875 85.484375 C 84.359375 85.171875 83.953125 84.765625 83.703125 84.265625 C 81.941406 80.753906 81.71875 75.894531 83.03125 69.6875 C 84.351562 63.476562 86.738281 56.484375 90.1875 48.703125 C 93.632812 40.929688 97.675781 32.875 102.3125 24.53125 C 106.957031 16.195312 111.785156 8.050781 116.796875 0.09375 C 121.816406 -7.863281 126.519531 -15.132812 130.90625 -21.71875 C 135.300781 -28.300781 138.972656 -33.691406 141.921875 -37.890625 C 144.867188 -42.097656 146.59375 -44.640625 147.09375 -45.515625 C 145.582031 -45.140625 142.664062 -44.484375 138.34375 -43.546875 C 134.019531 -42.609375 128.972656 -41.476562 123.203125 -40.15625 C 117.429688 -38.84375 111.566406 -37.492188 105.609375 -36.109375 C 99.660156 -34.734375 94.269531 -33.445312 89.4375 -32.25 C 84.613281 -31.0625 80.945312 -30.15625 78.4375 -29.53125 C 74.675781 -28.65625 71.601562 -26.585938 69.21875 -23.328125 C 61.570312 -12.285156 53.921875 -1.28125 46.265625 9.6875 C 38.617188 20.65625 30.910156 31.597656 23.140625 42.515625 C 22.503906 43.515625 21.78125 44.453125 20.96875 45.328125 C 20.15625 46.203125 19.125 46.578125 17.875 46.453125 C 17.363281 46.453125 16.609375 46.078125 15.609375 45.328125 C 14.609375 44.578125 13.796875 43.765625 13.171875 42.890625 C 7.023438 31.722656 3.734375 22.222656 3.296875 14.390625 C 2.859375 6.554688 4.203125 -0.0546875 7.328125 -5.453125 C 9.710938 -9.460938 13.097656 -12.941406 17.484375 -15.890625 C 21.878906 -18.835938 26.863281 -21.3125 32.4375 -23.3125 C 38.019531 -25.320312 43.820312 -27.078125 49.84375 -28.578125 C 55.863281 -30.085938 61.632812 -31.472656 67.15625 -32.734375 C 68.53125 -34.609375 70.847656 -38.019531 74.109375 -42.96875 C 77.367188 -47.925781 81.160156 -53.789062 85.484375 -60.5625 C 89.816406 -67.332031 94.269531 -74.414062 98.84375 -81.8125 C 103.414062 -89.21875 107.707031 -96.335938 111.71875 -103.171875 C 115.738281 -110.003906 119.09375 -116.050781 121.78125 -121.3125 C 124.476562 -126.582031 126.082031 -130.347656 126.59375 -132.609375 C 127.21875 -135.992188 126.242188 -138.46875 123.671875 -140.03125 C 121.097656 -141.601562 118.117188 -141.757812 114.734375 -140.5 C 110.472656 -139.125 105.363281 -136.585938 99.40625 -132.890625 C 93.445312 -129.191406 87.175781 -124.832031 80.59375 -119.8125 C 74.007812 -114.800781 67.675781 -109.535156 61.59375 -104.015625 C 55.519531 -98.492188 50.191406 -93.160156 45.609375 -88.015625 C 41.035156 -82.878906 37.804688 -78.429688 35.921875 -74.671875 C 35.171875 -72.921875 35.140625 -71.101562 35.828125 -69.21875 C 36.515625 -67.332031 38.113281 -66.140625 40.625 -65.640625 C 43.132812 -65.140625 46.519531 -65.957031 50.78125 -68.09375 C 52.164062 -68.34375 53.421875 -68.5625 54.546875 -68.75 C 55.671875 -68.9375 56.109375 -68.59375 55.859375 -67.71875 C 53.984375 -65.957031 51.507812 -64.703125 48.4375 -63.953125 C 45.363281 -63.203125 42.351562 -63.015625 39.40625 -63.390625 C 36.457031 -63.765625 34.109375 -64.703125 32.359375 -66.203125 C 30.847656 -67.585938 29.96875 -69.03125 29.71875 -70.53125 C 29.46875 -72.039062 29.59375 -73.671875 30.09375 -75.421875 Z M 17.875 39.5 C 21.132812 34.601562 24.675781 29.238281 28.5 23.40625 C 32.320312 17.582031 36.238281 11.753906 40.25 5.921875 C 44.257812 0.0859375 48.175781 -5.488281 52 -10.8125 C 55.832031 -16.144531 59.316406 -20.753906 62.453125 -24.640625 C 45.515625 -21.878906 32.8125 -17.488281 24.34375 -11.46875 C 15.882812 -5.445312 11.25 1.851562 10.4375 10.4375 C 9.625 19.03125 12.101562 28.71875 17.875 39.5 Z M 211.609375 -58.3125 C 211.734375 -58.3125 211.828125 -58.3125 211.890625 -58.3125 C 211.953125 -58.3125 211.984375 -58.3125 211.984375 -58.3125 Z M 211.609375 -58.3125 "/></g></g></g><g fill="#f0f0f0" fill-opacity="1"><g transform="translate(217.405262, 456.972585)"><g><path d="M -3.015625 18.25 C -13.296875 21.007812 -19.816406 19.378906 -22.578125 13.359375 C -23.828125 10.472656 -24.171875 7.617188 -23.609375 4.796875 C -23.046875 1.972656 -21.976562 -0.75 -20.40625 -3.375 C -18.84375 -6.007812 -17.242188 -8.332031 -15.609375 -10.34375 C -13.609375 -12.851562 -10.976562 -15.078125 -7.71875 -17.015625 C -4.457031 -18.960938 -1.039062 -20.3125 2.53125 -21.0625 C 6.113281 -21.8125 9.21875 -21.5625 11.84375 -20.3125 C 14.351562 -19.3125 16.015625 -17.554688 16.828125 -15.046875 C 17.648438 -12.535156 17.179688 -10.34375 15.421875 -8.46875 C 11.910156 -4.957031 7.769531 -2.164062 3 -0.09375 C -1.757812 1.976562 -6.082031 2.820312 -9.96875 2.4375 C -11.976562 2.3125 -13.296875 2.03125 -13.921875 1.59375 C -14.546875 1.15625 -14.984375 1.25 -15.234375 1.875 C -16.742188 5.894531 -16.804688 8.90625 -15.421875 10.90625 C -14.046875 12.914062 -12.351562 13.921875 -10.34375 13.921875 C -7.207031 14.171875 -3.601562 13.570312 0.46875 12.125 C 4.539062 10.6875 8.800781 8.679688 13.25 6.109375 C 17.707031 3.535156 22.066406 0.78125 26.328125 -2.15625 C 30.597656 -5.101562 34.582031 -7.925781 38.28125 -10.625 C 41.976562 -13.320312 45.082031 -15.546875 47.59375 -17.296875 C 49.34375 -18.679688 50.46875 -19.34375 50.96875 -19.28125 C 51.46875 -19.21875 50.90625 -18.304688 49.28125 -16.546875 C 46.894531 -14.421875 43.726562 -11.726562 39.78125 -8.46875 C 35.832031 -5.207031 31.472656 -1.789062 26.703125 1.78125 C 21.941406 5.351562 17.019531 8.613281 11.9375 11.5625 C 6.863281 14.507812 1.878906 16.738281 -3.015625 18.25 Z M 7.328125 -17.5 C 3.441406 -16.238281 -0.191406 -14.601562 -3.578125 -12.59375 C -6.960938 -10.59375 -10.035156 -7.460938 -12.796875 -3.203125 C -9.148438 -1.941406 -5.164062 -2.15625 -0.84375 -3.84375 C 3.476562 -5.539062 7.207031 -8.019531 10.34375 -11.28125 C 11.09375 -12.039062 11.84375 -13.046875 12.59375 -14.296875 C 13.351562 -15.546875 13.226562 -16.484375 12.21875 -17.109375 C 11.71875 -17.617188 11.03125 -17.875 10.15625 -17.875 C 9.28125 -17.875 8.335938 -17.75 7.328125 -17.5 Z M 8.84375 -28.40625 C 8.84375 -28.40625 8.585938 -28.25 8.078125 -27.9375 C 7.578125 -27.625 7.203125 -28.03125 6.953125 -29.15625 C 6.953125 -29.65625 7.863281 -30.4375 9.6875 -31.5 C 11.507812 -32.570312 13.671875 -33.578125 16.171875 -34.515625 C 18.679688 -35.453125 21.0625 -35.984375 23.3125 -36.109375 C 25.570312 -36.234375 27.082031 -35.546875 27.84375 -34.046875 C 28.21875 -33.046875 27.648438 -32.351562 26.140625 -31.96875 C 24.640625 -31.59375 22.757812 -31.3125 20.5 -31.125 C 18.238281 -30.9375 16.007812 -30.65625 13.8125 -30.28125 C 11.625 -29.90625 9.96875 -29.28125 8.84375 -28.40625 Z M 8.84375 -28.40625 "/></g></g></g><g fill="#f0f0f0" fill-opacity="1"><g transform="translate(269.503263, 456.972585)"><g><path d="M -17.109375 4.703125 C -15.734375 -0.941406 -13.320312 -6.269531 -9.875 -11.28125 C -6.425781 -16.300781 -2.601562 -20.566406 1.59375 -24.078125 C 5.800781 -27.585938 9.785156 -29.78125 13.546875 -30.65625 C 15.921875 -31.15625 18.113281 -31.03125 20.125 -30.28125 C 22.132812 -29.53125 23.703125 -28.398438 24.828125 -26.890625 C 25.953125 -25.390625 26.046875 -23.445312 25.109375 -21.0625 C 24.171875 -18.6875 22.726562 -16.460938 20.78125 -14.390625 C 18.84375 -12.316406 16.867188 -10.96875 14.859375 -10.34375 C 14.484375 -10.21875 14.203125 -10.28125 14.015625 -10.53125 C 13.828125 -10.78125 13.796875 -11.09375 13.921875 -11.46875 C 15.171875 -12.976562 16.390625 -14.703125 17.578125 -16.640625 C 18.773438 -18.585938 19.53125 -20.375 19.84375 -22 C 20.15625 -23.632812 19.6875 -24.703125 18.4375 -25.203125 C 17.425781 -25.703125 15.226562 -24.914062 11.84375 -22.84375 C 8.457031 -20.78125 4.820312 -17.550781 0.9375 -13.15625 C -2.945312 -8.769531 -6.144531 -3.253906 -8.65625 3.390625 C -10.90625 11.785156 -7.769531 14.921875 0.75 12.796875 C 10.53125 8.023438 19.085938 2.789062 26.421875 -2.90625 C 33.765625 -8.613281 41.382812 -13.976562 49.28125 -19 C 49.90625 -19.5 50.5625 -20 51.25 -20.5 C 51.945312 -21 52.359375 -21.0625 52.484375 -20.6875 C 52.609375 -20.4375 51.382812 -19.148438 48.8125 -16.828125 C 46.238281 -14.515625 42.851562 -11.695312 38.65625 -8.375 C 34.457031 -5.050781 29.847656 -1.601562 24.828125 1.96875 C 19.804688 5.539062 14.816406 8.738281 9.859375 11.5625 C 4.910156 14.382812 0.492188 16.425781 -3.390625 17.6875 C -5.640625 17.6875 -7.894531 17.398438 -10.15625 16.828125 C -12.414062 16.265625 -14.203125 15.039062 -15.515625 13.15625 C -16.835938 11.28125 -17.367188 8.460938 -17.109375 4.703125 Z M -17.109375 4.703125 "/></g></g></g><g fill="#f0f0f0" fill-opacity="1"><g transform="translate(320.66077, 456.972585)"><g><path d="M -17.5 -85.390625 C -17.625 -85.890625 -15.769531 -86.640625 -11.9375 -87.640625 C -8.113281 -88.648438 -2.816406 -89.78125 3.953125 -91.03125 C 10.722656 -92.289062 18.523438 -93.609375 27.359375 -94.984375 C 36.203125 -96.367188 45.578125 -97.625 55.484375 -98.75 C 64.515625 -107.78125 73.640625 -115.492188 82.859375 -121.890625 C 92.078125 -128.285156 100.757812 -132.484375 108.90625 -134.484375 C 110.664062 -134.859375 112.328125 -135.109375 113.890625 -135.234375 C 115.453125 -135.359375 116.863281 -134.359375 118.125 -132.234375 C 117.875 -132.109375 117.5 -132.046875 117 -132.046875 C 109.59375 -131.035156 101.625 -127.613281 93.09375 -121.78125 C 84.570312 -115.957031 76.050781 -108.71875 67.53125 -100.0625 C 77.6875 -101.070312 87.8125 -101.890625 97.90625 -102.515625 C 108 -103.140625 117.554688 -103.390625 126.578125 -103.265625 C 135.609375 -103.140625 143.539062 -102.570312 150.375 -101.5625 C 157.207031 -100.5625 162.566406 -98.992188 166.453125 -96.859375 C 170.347656 -94.734375 172.171875 -91.851562 171.921875 -88.21875 C 171.921875 -87.46875 171.765625 -86.617188 171.453125 -85.671875 C 171.140625 -84.734375 171.046875 -84.328125 171.171875 -84.453125 C 170.660156 -83.078125 169.71875 -82.609375 168.34375 -83.046875 C 166.96875 -83.484375 166.53125 -84.328125 167.03125 -85.578125 C 167.28125 -86.203125 167.59375 -86.640625 167.96875 -86.890625 C 168.34375 -87.148438 168.53125 -87.65625 168.53125 -88.40625 C 168.78125 -91.164062 166.082031 -93.328125 160.4375 -94.890625 C 154.800781 -96.460938 147.0625 -97.5625 137.21875 -98.1875 C 127.375 -98.8125 116.148438 -98.9375 103.546875 -98.5625 C 90.941406 -98.1875 77.742188 -97.429688 63.953125 -96.296875 C 56.554688 -88.523438 49.375 -80.09375 42.40625 -71 C 35.445312 -61.914062 28.957031 -52.734375 22.9375 -43.453125 C 16.925781 -34.171875 11.566406 -25.234375 6.859375 -16.640625 C 2.160156 -8.054688 -1.597656 -0.285156 -4.421875 6.671875 C -7.242188 13.628906 -8.875 19.300781 -9.3125 23.6875 C -9.75 28.082031 -8.773438 30.71875 -6.390625 31.59375 C -3.753906 32.476562 -0.0234375 31.945312 4.796875 30 C 9.617188 28.050781 15.070312 25.257812 21.15625 21.625 C 27.238281 17.988281 33.476562 13.945312 39.875 9.5 C 46.269531 5.050781 52.316406 0.632812 58.015625 -3.75 C 63.722656 -8.144531 68.644531 -12.035156 72.78125 -15.421875 C 76.925781 -18.804688 79.75 -21.191406 81.25 -22.578125 C 81.882812 -23.078125 82.484375 -23.007812 83.046875 -22.375 C 83.609375 -21.75 83.578125 -21.25 82.953125 -20.875 C 80.691406 -18.625 77.492188 -15.675781 73.359375 -12.03125 C 69.222656 -8.394531 64.519531 -4.445312 59.25 -0.1875 C 53.976562 4.070312 48.457031 8.300781 42.6875 12.5 C 36.925781 16.707031 31.222656 20.628906 25.578125 24.265625 C 19.929688 27.898438 14.660156 30.9375 9.765625 33.375 C 4.878906 35.820312 0.742188 37.300781 -2.640625 37.8125 C -3.515625 37.9375 -4.796875 37.9375 -6.484375 37.8125 C -8.179688 37.6875 -9.53125 37.367188 -10.53125 36.859375 C -14.164062 34.859375 -16.203125 31.347656 -16.640625 26.328125 C -17.078125 21.316406 -16.226562 15.171875 -14.09375 7.890625 C -11.96875 0.617188 -8.773438 -7.304688 -4.515625 -15.890625 C -0.253906 -24.484375 4.820312 -33.382812 10.71875 -42.59375 C 16.613281 -51.8125 23.070312 -60.90625 30.09375 -69.875 C 37.113281 -78.84375 44.382812 -87.273438 51.90625 -95.171875 C 40.125 -93.921875 28.367188 -92.414062 16.640625 -90.65625 C 4.921875 -88.90625 -6.140625 -86.898438 -16.546875 -84.640625 C -17.179688 -84.640625 -17.5 -84.890625 -17.5 -85.390625 Z M -17.5 -85.390625 "/></g></g></g><g fill="#f0f0f0" fill-opacity="1"><g transform="translate(399.653837, 456.972585)"><g><path d="M 41.75 -17.296875 C 42.382812 -17.554688 42.953125 -17.585938 43.453125 -17.390625 C 43.953125 -17.203125 44.015625 -17.046875 43.640625 -16.921875 C 38.617188 -13.921875 33.945312 -11.226562 29.625 -8.84375 C 25.300781 -6.457031 20.503906 -4.132812 15.234375 -1.875 C 11.472656 2.632812 7.050781 6.644531 1.96875 10.15625 C -3.101562 13.664062 -7.832031 15.734375 -12.21875 16.359375 C -13.726562 16.484375 -15.140625 16.390625 -16.453125 16.078125 C -17.773438 15.765625 -18.875 14.921875 -19.75 13.546875 C -21.25 11.285156 -21.34375 8.617188 -20.03125 5.546875 C -18.71875 2.472656 -16.742188 -0.378906 -14.109375 -3.015625 C -15.359375 -4.640625 -15.195312 -6.800781 -13.625 -9.5 C -12.0625 -12.195312 -9.617188 -14.890625 -6.296875 -17.578125 C -2.972656 -20.273438 0.753906 -22.4375 4.890625 -24.0625 C 9.023438 -25.695312 12.972656 -26.265625 16.734375 -25.765625 C 18.617188 -25.640625 20.1875 -24.757812 21.4375 -23.125 C 22.695312 -21.5 23.203125 -19.875 22.953125 -18.25 C 22.828125 -16.238281 22.351562 -14.226562 21.53125 -12.21875 C 20.71875 -10.21875 19.625 -8.210938 18.25 -6.203125 C 23.382812 -8.460938 27.832031 -10.5625 31.59375 -12.5 C 35.363281 -14.445312 38.75 -16.046875 41.75 -17.296875 Z M -5.640625 2.640625 C -6.515625 2.640625 -7.644531 2.445312 -9.03125 2.0625 C -10.78125 4.070312 -12.125 5.953125 -13.0625 7.703125 C -14.007812 9.460938 -13.859375 10.46875 -12.609375 10.71875 C -10.972656 10.96875 -8.648438 10.53125 -5.640625 9.40625 C -2.628906 8.28125 1.191406 5.582031 5.828125 1.3125 C 4.953125 1.4375 4.132812 1.59375 3.375 1.78125 C 2.625 1.96875 1.875 2.1875 1.125 2.4375 C 0 2.570312 -1.09375 2.671875 -2.15625 2.734375 C -3.226562 2.796875 -4.390625 2.765625 -5.640625 2.640625 Z M 16.921875 -20.875 C 15.046875 -21.75 12.601562 -21.6875 9.59375 -20.6875 C 6.582031 -19.6875 3.632812 -18.148438 0.75 -16.078125 C -2.132812 -14.015625 -4.390625 -11.664062 -6.015625 -9.03125 C -4.390625 -9.65625 -3.070312 -9.84375 -2.0625 -9.59375 C -1.0625 -9.34375 -0.5 -8.90625 -0.375 -8.28125 C 0.5 -7.394531 0.625 -6.640625 0 -6.015625 C -0.625 -5.390625 -2.128906 -4.070312 -4.515625 -2.0625 C -2.628906 -1.6875 -0.1875 -1.71875 2.8125 -2.15625 C 5.820312 -2.601562 8.394531 -3.015625 10.53125 -3.390625 C 11.789062 -4.890625 13.203125 -6.894531 14.765625 -9.40625 C 16.328125 -11.914062 17.453125 -14.296875 18.140625 -16.546875 C 18.835938 -18.804688 18.429688 -20.25 16.921875 -20.875 Z M 16.921875 -20.875 "/></g></g></g><g fill="#f0f0f0" fill-opacity="1"><g transform="translate(441.595482, 456.972585)"><g><path d="M 25.203125 -6.578125 C 27.085938 -9.460938 27.710938 -10.875 27.078125 -10.8125 C 26.453125 -10.75 24.757812 -9.929688 22 -8.359375 C 19.25 -6.796875 15.644531 -5.195312 11.1875 -3.5625 C 6.738281 -1.9375 1.566406 -1.0625 -4.328125 -0.9375 C -5.203125 -1.0625 -6.421875 -1.375 -7.984375 -1.875 C -9.554688 -2.382812 -10.59375 -3.515625 -11.09375 -5.265625 C -11.59375 -7.023438 -10.78125 -9.722656 -8.65625 -13.359375 C -7.394531 -15.484375 -5.476562 -17.707031 -2.90625 -20.03125 C -0.34375 -22.351562 2.347656 -24.359375 5.171875 -26.046875 C 7.992188 -27.742188 10.34375 -28.65625 12.21875 -28.78125 C 12.726562 -28.90625 13.359375 -28.523438 14.109375 -27.640625 C 14.859375 -26.765625 15.234375 -26.328125 15.234375 -26.328125 C 15.609375 -25.953125 15.234375 -25.132812 14.109375 -23.875 C 12.984375 -22.625 11.507812 -21.25 9.6875 -19.75 C 7.863281 -18.25 6.015625 -16.804688 4.140625 -15.421875 C 2.378906 -14.421875 0.84375 -13.539062 -0.46875 -12.78125 C -1.78125 -12.03125 -2.941406 -11.40625 -3.953125 -10.90625 C -4.953125 -8.65625 -5.265625 -7.242188 -4.890625 -6.671875 C -4.515625 -6.109375 -4.078125 -5.640625 -3.578125 -5.265625 C -2.566406 -4.265625 -0.625 -4.265625 2.25 -5.265625 C 5.132812 -6.265625 8.519531 -7.738281 12.40625 -9.6875 C 16.300781 -11.632812 20.222656 -13.671875 24.171875 -15.796875 C 28.117188 -17.929688 31.660156 -19.75 34.796875 -21.25 C 37.929688 -22.757812 40.125 -23.453125 41.375 -23.328125 L 41.5625 -23.328125 C 42.570312 -22.828125 43.328125 -22.132812 43.828125 -21.25 C 44.328125 -20.375 44.265625 -19.375 43.640625 -18.25 C 42.253906 -15.238281 40.242188 -12.101562 37.609375 -8.84375 C 34.984375 -5.582031 32.257812 -2.414062 29.4375 0.65625 C 26.613281 3.726562 24.070312 6.582031 21.8125 9.21875 C 19.5625 11.851562 17.992188 14.109375 17.109375 15.984375 C 16.234375 17.867188 16.550781 19.125 18.0625 19.75 C 19.5625 20.375 21.816406 19.960938 24.828125 18.515625 C 27.835938 17.078125 31.316406 14.945312 35.265625 12.125 C 39.210938 9.3125 43.316406 6.113281 47.578125 2.53125 C 51.847656 -1.039062 55.957031 -4.707031 59.90625 -8.46875 C 63.851562 -12.226562 67.394531 -15.675781 70.53125 -18.8125 C 70.78125 -19.0625 71.34375 -19.28125 72.21875 -19.46875 C 73.101562 -19.65625 73.828125 -19.6875 74.390625 -19.5625 C 74.953125 -19.4375 74.796875 -18.875 73.921875 -17.875 C 68.898438 -12.601562 63.347656 -7.082031 57.265625 -1.3125 C 51.191406 4.445312 44.957031 9.644531 38.5625 14.28125 C 32.164062 18.925781 25.957031 22.191406 19.9375 24.078125 C 18.175781 24.453125 16.445312 24.390625 14.75 23.890625 C 13.0625 23.390625 11.84375 22.507812 11.09375 21.25 C 9.46875 18.238281 9.125 15.289062 10.0625 12.40625 C 11 9.53125 12.847656 6.523438 15.609375 3.390625 C 18.367188 0.253906 21.566406 -3.066406 25.203125 -6.578125 Z M 25.203125 -6.578125 "/></g></g></g><g fill="#f0f0f0" fill-opacity="1"><g transform="translate(512.334648, 456.972585)"><g/></g></g><g fill="#f0f0f0" fill-opacity="1"><g transform="translate(587.566157, 456.972585)"><g/></g></g></g></g></svg>