<svg xmlns="http://www.w3.org/2000/svg" xmlns:xlink="http://www.w3.org/1999/xlink" width="800" zoomAndPan="magnify" viewBox="0 0 600 599.999999" height="800" preserveAspectRatio="xMidYMid meet" version="1.0"><defs><clipPath id="03fcc0b6be"><path d="M 16.355469 8 L 583 8 L 583 594.402344 L 16.355469 594.402344 Z M 16.355469 8 " clip-rule="nonzero"/></clipPath></defs><g clip-path="url(#03fcc0b6be)"><path fill="#b79251" d="M 581.398438 486.359375 C 579.875 483.535156 577.488281 480.925781 575.621094 478.328125 C 565.578125 464.375 555.535156 450.417969 545.492188 436.460938 C 537.832031 425.8125 530.167969 415.164062 522.507812 404.515625 C 518.410156 398.824219 511.316406 398.890625 507.207031 404.515625 C 493.136719 423.78125 479.0625 443.042969 464.992188 462.308594 L 464.992188 360.488281 C 469.535156 366.757812 474.078125 373.03125 478.625 379.300781 C 479.710938 380.804688 480.800781 382.308594 481.890625 383.808594 C 484.71875 387.714844 489.5625 389.519531 494.011719 386.988281 C 497.863281 384.796875 499.988281 378.730469 497.191406 374.867188 C 476.03125 345.664062 454.875 316.464844 433.71875 287.261719 C 399.871094 240.546875 366.023438 193.832031 332.175781 147.113281 L 309.175781 115.375 L 309.175781 70.511719 L 334.28125 70.511719 C 345.683594 70.511719 345.703125 52.792969 334.28125 52.792969 L 309.175781 52.792969 L 309.175781 17.027344 C 309.175781 5.628906 291.457031 5.609375 291.457031 17.027344 L 291.457031 52.792969 L 266.355469 52.792969 C 254.953125 52.792969 254.933594 70.511719 266.355469 70.511719 L 291.457031 70.511719 L 291.457031 117.238281 C 274.9375 139.859375 258.414062 162.476562 241.890625 185.097656 C 230.402344 200.828125 218.910156 216.558594 207.421875 232.285156 C 180.578125 268.757812 153.734375 305.226562 126.890625 341.695312 L 103.445312 373.546875 C 100.589844 377.429688 102.828125 383.394531 106.625 385.667969 C 111.09375 388.347656 115.925781 386.324219 118.746094 382.492188 C 119.832031 381.011719 120.921875 379.535156 122.007812 378.058594 L 135.644531 359.535156 L 135.644531 464.285156 C 128.96875 455.011719 122.296875 445.738281 115.625 436.460938 C 107.960938 425.8125 100.296875 415.164062 92.636719 404.515625 C 88.539062 398.824219 81.445312 398.890625 77.335938 404.515625 C 60.195312 427.984375 43.054688 451.449219 25.910156 474.917969 C 23.457031 478.277344 20.582031 481.570312 18.441406 485.144531 C 16.53125 488.332031 16.96875 492.027344 16.96875 495.589844 L 16.96875 585.265625 C 16.96875 590.0625 21.027344 594.117188 25.828125 594.125 L 129.25 594.316406 L 143.878906 594.34375 C 145.09375 594.34375 146.171875 594.136719 147.128906 593.777344 C 181.539062 593.839844 215.949219 593.902344 250.359375 593.964844 C 306.113281 594.066406 361.863281 594.167969 417.617188 594.273438 L 456.132812 594.34375 C 456.871094 594.34375 457.558594 594.269531 458.199219 594.132812 C 491.839844 594.191406 525.480469 594.253906 559.121094 594.316406 L 573.746094 594.34375 C 576.542969 594.347656 578.648438 593.285156 580.074219 591.679688 C 581.597656 590.257812 582.605469 588.199219 582.605469 585.484375 L 582.605469 499.078125 C 582.605469 495.117188 583.347656 489.976562 581.398438 486.359375 Z M 34.6875 492.792969 C 51.433594 469.867188 68.179688 446.9375 84.929688 424.011719 L 128.871094 485.082031 C 130.921875 487.929688 132.96875 490.773438 135.019531 493.621094 L 135.019531 576.605469 C 103.496094 576.550781 71.976562 576.492188 40.453125 576.433594 C 38.53125 576.429688 36.609375 576.425781 34.6875 576.421875 Z M 274.183594 378.589844 C 280.859375 372.523438 289.613281 368.921875 298.9375 368.628906 C 309.65625 368.476562 319.269531 372.28125 326.355469 378.769531 C 333.886719 385.671875 338.554688 395.609375 338.617188 407.09375 C 338.675781 417.527344 338.617188 427.960938 338.617188 438.394531 L 338.617188 571.613281 C 326.441406 571.746094 314.261719 571.875 302.085938 571.949219 C 291.445312 572.019531 280.808594 572.074219 270.167969 572.027344 C 267.453125 572.015625 264.734375 571.992188 262.019531 571.953125 L 262.019531 409.261719 C 262.019531 402.835938 262.609375 396.5625 265.347656 390.613281 C 267.496094 385.945312 270.53125 381.902344 274.183594 378.589844 Z M 356.335938 576.441406 L 356.335938 497.394531 C 356.335938 467.160156 356.660156 436.902344 356.335938 406.667969 C 356.226562 396.457031 353.476562 386.988281 348.757812 378.847656 C 338.863281 361.789062 320.277344 350.605469 298.9375 350.910156 C 279.316406 351.527344 261.5625 361.839844 251.835938 378.511719 C 250.59375 380.640625 249.472656 382.867188 248.503906 385.199219 C 244.792969 394.136719 244.300781 403.316406 244.300781 412.789062 L 244.300781 565.460938 C 244.300781 569.019531 244.128906 572.644531 244.160156 576.234375 C 223.777344 576.199219 203.398438 576.160156 183.019531 576.125 L 153.363281 576.070312 L 153.363281 336.183594 C 170.550781 312.648438 187.742188 289.117188 204.933594 265.582031 C 210.859375 257.464844 216.789062 249.347656 222.71875 241.230469 C 244.828125 210.96875 266.933594 180.703125 289.039062 150.441406 C 292.898438 145.15625 296.757812 139.875 300.617188 134.59375 L 300.910156 135.003906 C 315.816406 155.722656 330.726562 176.4375 345.632812 197.15625 C 373.554688 235.957031 401.472656 274.757812 429.390625 313.558594 C 435.351562 321.84375 441.3125 330.125 447.273438 338.410156 L 447.273438 487.628906 C 446.59375 490.175781 446.839844 492.917969 446.839844 495.589844 L 446.839844 576.605469 Z M 464.558594 576.421875 L 464.558594 492.792969 C 464.703125 492.59375 464.847656 492.394531 464.992188 492.195312 C 481.59375 469.46875 498.199219 446.738281 514.800781 424.011719 L 558.742188 485.082031 L 564.886719 493.621094 L 564.886719 576.605469 C 533.367188 576.550781 501.84375 576.492188 470.324219 576.433594 L 464.992188 576.425781 Z M 464.558594 576.421875 " fill-opacity="1" fill-rule="nonzero"/></g></svg>