<svg xmlns="http://www.w3.org/2000/svg" xmlns:xlink="http://www.w3.org/1999/xlink" width="1240" zoomAndPan="magnify" viewBox="0 0 930 1310.999944" height="1748" preserveAspectRatio="xMidYMid meet" version="1.0"><defs><clipPath id="27bbd1b2cb"><path d="M 372 0.679688 L 921.558594 0.679688 L 921.558594 886 L 372 886 Z M 372 0.679688 " clip-rule="nonzero"/></clipPath><clipPath id="40d49c74f1"><path d="M 110 0.679688 L 224 0.679688 L 224 261 L 110 261 Z M 110 0.679688 " clip-rule="nonzero"/></clipPath><clipPath id="6cf728ef0f"><path d="M 0.441406 0.679688 L 336 0.679688 L 336 444 L 0.441406 444 Z M 0.441406 0.679688 " clip-rule="nonzero"/></clipPath><clipPath id="52c6d8de8b"><rect x="0" width="922" y="0" height="887"/></clipPath></defs><g transform="matrix(1, 0, 0, 1, 1, 207)"><g clip-path="url(#52c6d8de8b)"><g clip-path="url(#27bbd1b2cb)"><path fill="#000000" d="M 857.734375 861.515625 C 818.34375 868.675781 792.9375 867.261719 764.050781 875.363281 C 732.605469 884.179688 685.234375 896.339844 660.183594 863.957031 C 655.914062 858.441406 652.15625 841.394531 648.855469 816.917969 C 638.539062 815.84375 624.382812 814.390625 604.992188 812.433594 C 582.308594 810.140625 562.460938 813.777344 546.511719 819.21875 C 551.660156 791.246094 554.890625 742.78125 554.890625 742.78125 C 554.890625 742.78125 609.878906 583.925781 626.988281 530.160156 C 628.105469 526.652344 629.316406 522.882812 630.605469 518.90625 C 628.472656 452.113281 627.597656 402.464844 627.597656 402.464844 C 627.597656 402.464844 565.925781 515.164062 565.886719 515.902344 C 565.886719 515.902344 547.96875 533.824219 536.5625 594.921875 C 525.019531 656.761719 521.085938 739.523438 521.085938 739.523438 C 521.085938 739.523438 490.128906 795.324219 485.238281 822.207031 C 483.878906 829.695312 483.429688 836.523438 483.6875 842.648438 C 440.957031 840.203125 365.671875 823.675781 373.429688 806.324219 C 381.167969 789.011719 419.457031 781.679688 419.457031 781.679688 C 449.929688 731.613281 521.769531 578.792969 549.773438 524.105469 C 553.210938 517.394531 555.988281 512.15625 557.945312 508.773438 C 570.285156 487.460938 568.332031 407.960938 578.71875 324.257812 C 583.742188 283.777344 598.976562 243.125 613.085938 212.363281 C 614.496094 209.292969 615.886719 206.335938 617.265625 203.46875 C 622.691406 192.167969 627.757812 182.570312 631.792969 175.273438 C 633.667969 171.878906 635.3125 168.992188 636.667969 166.660156 C 637.074219 165.960938 637.453125 165.3125 637.808594 164.714844 C 639.652344 161.585938 640.738281 159.847656 640.738281 159.847656 C 640.78125 159.335938 640.796875 158.84375 640.824219 158.34375 C 640.964844 155.765625 640.96875 153.292969 640.824219 150.917969 C 640.53125 146.132812 639.71875 141.695312 638.652344 137.351562 C 638.644531 137.332031 638.640625 137.308594 638.632812 137.285156 C 638.300781 135.925781 637.941406 134.574219 637.566406 133.226562 C 637.558594 133.199219 637.550781 133.171875 637.542969 133.140625 C 637.164062 131.789062 636.773438 130.433594 636.375 129.070312 C 636.367188 129.054688 636.363281 129.039062 636.359375 129.023438 C 636.175781 128.394531 635.984375 127.757812 635.796875 127.125 C 635.589844 126.425781 635.382812 125.722656 635.175781 125.011719 C 635.160156 124.964844 635.144531 124.921875 635.132812 124.875 C 634.105469 121.378906 633.105469 117.730469 632.15625 114.070312 C 631.859375 112.925781 631.570312 111.785156 631.285156 110.644531 C 631.183594 110.25 631.085938 109.855469 630.992188 109.464844 C 630.980469 109.429688 630.976562 109.398438 630.964844 109.367188 C 630.683594 108.230469 630.410156 107.097656 630.140625 105.972656 C 630.128906 105.921875 630.113281 105.867188 630.101562 105.816406 C 629.945312 105.148438 629.789062 104.488281 629.632812 103.832031 C 629.164062 101.832031 628.71875 99.875 628.304688 97.980469 C 628.15625 97.3125 628.011719 96.652344 627.871094 96.003906 C 627.859375 95.941406 627.84375 95.878906 627.832031 95.816406 C 627.617188 94.828125 627.414062 93.859375 627.21875 92.917969 C 627.203125 92.84375 627.1875 92.777344 627.171875 92.703125 C 626.773438 90.773438 626.414062 88.957031 626.097656 87.292969 C 626.09375 87.277344 626.089844 87.257812 626.085938 87.242188 C 625.9375 86.449219 625.800781 85.695312 625.671875 84.976562 C 625.65625 84.882812 625.636719 84.789062 625.621094 84.695312 C 625.601562 84.589844 625.582031 84.480469 625.566406 84.375 C 625.464844 83.804688 625.375 83.269531 625.292969 82.753906 C 625.277344 82.671875 625.265625 82.59375 625.25 82.507812 C 625.152344 81.894531 625.0625 81.3125 624.988281 80.789062 C 624.984375 80.78125 624.984375 80.773438 624.984375 80.761719 C 624.910156 80.246094 624.851562 79.785156 624.800781 79.359375 C 624.792969 79.308594 624.785156 79.25 624.78125 79.195312 C 624.734375 78.800781 624.703125 78.460938 624.683594 78.160156 C 624.679688 78.105469 624.675781 78.050781 624.671875 78 C 624.65625 77.71875 624.652344 77.488281 624.660156 77.308594 C 624.664062 77.28125 624.667969 77.261719 624.667969 77.234375 C 624.683594 77.066406 624.707031 76.941406 624.746094 76.894531 L 622.097656 75.410156 L 621.964844 75.335938 L 614.660156 71.257812 L 582.054688 53.042969 C 584.1875 41.523438 586.386719 32.875 588.496094 29.769531 C 603.738281 7.320312 621.175781 16.40625 650.816406 8.992188 C 653.0625 8.433594 654.5 5.90625 655.371094 2.234375 C 661.199219 3.066406 669.355469 3.917969 677.292969 3.699219 C 684.308594 3.503906 691.210938 2.09375 696.523438 0.679688 C 697.089844 2.425781 697.765625 3.851562 698.574219 4.714844 C 701.328125 7.648438 706.734375 8.148438 713.277344 8.25 C 717.449219 8.3125 722.078125 8.226562 726.792969 8.492188 C 739.308594 9.199219 752.351562 12.464844 758.628906 28.160156 C 759.652344 30.71875 760.988281 34.675781 762.578125 39.625 L 745.648438 60.738281 L 743.25 63.730469 C 743.589844 64.304688 743.910156 64.914062 744.21875 65.539062 C 744.300781 65.710938 744.382812 65.878906 744.46875 66.054688 C 744.746094 66.648438 745.015625 67.253906 745.265625 67.886719 C 745.355469 68.117188 745.4375 68.363281 745.523438 68.601562 C 745.894531 69.601562 746.21875 70.660156 746.511719 71.757812 C 746.636719 72.226562 746.769531 72.679688 746.875 73.164062 C 746.984375 73.636719 747.0625 74.136719 747.15625 74.625 C 747.273438 75.246094 747.382812 75.871094 747.472656 76.519531 C 747.539062 76.984375 747.597656 77.460938 747.652344 77.945312 C 747.734375 78.703125 747.800781 79.484375 747.851562 80.28125 C 747.875 80.695312 747.910156 81.101562 747.925781 81.527344 C 747.976562 82.769531 747.996094 84.039062 747.960938 85.363281 C 747.960938 85.363281 747.960938 85.367188 747.960938 85.367188 C 747.941406 86.152344 747.878906 87.019531 747.792969 87.933594 C 747.792969 87.9375 747.792969 87.941406 747.789062 87.945312 C 747.78125 88.042969 747.773438 88.136719 747.765625 88.234375 C 747.742188 88.441406 747.707031 88.679688 747.683594 88.894531 C 747.625 89.40625 747.5625 89.929688 747.488281 90.476562 C 747.46875 90.621094 747.457031 90.75 747.4375 90.898438 C 747.429688 90.953125 747.425781 91 747.417969 91.050781 C 747.394531 91.210938 747.371094 91.371094 747.347656 91.535156 C 747.320312 91.71875 747.28125 91.925781 747.253906 92.117188 C 747.148438 92.800781 747.035156 93.503906 746.914062 94.230469 C 746.890625 94.367188 746.875 94.488281 746.847656 94.625 C 746.816406 94.8125 746.78125 95.007812 746.746094 95.203125 C 746.726562 95.316406 746.703125 95.441406 746.679688 95.558594 C 746.542969 96.335938 746.390625 97.140625 746.238281 97.960938 C 746.195312 98.179688 746.160156 98.378906 746.117188 98.597656 C 746.085938 98.777344 746.046875 98.960938 746.011719 99.140625 C 746.007812 99.175781 746 99.207031 745.996094 99.238281 C 745.796875 100.25 745.585938 101.292969 745.371094 102.355469 C 745.335938 102.539062 745.304688 102.707031 745.265625 102.894531 C 745.25 102.960938 745.234375 103.035156 745.222656 103.109375 C 745.210938 103.15625 745.203125 103.203125 745.191406 103.25 C 745.183594 103.292969 745.175781 103.335938 745.167969 103.375 C 744.777344 105.285156 744.359375 107.277344 743.933594 109.324219 C 743.765625 110.132812 743.597656 110.933594 743.425781 111.761719 C 743.398438 111.894531 743.375 112.023438 743.347656 112.15625 C 743.046875 113.597656 742.746094 115.0625 742.449219 116.546875 C 742.402344 116.769531 742.359375 116.988281 742.316406 117.210938 C 742.246094 117.550781 742.179688 117.898438 742.113281 118.238281 C 741.890625 119.371094 741.664062 120.503906 741.445312 121.652344 C 741.40625 121.851562 741.367188 122.050781 741.332031 122.253906 C 741.195312 122.96875 741.066406 123.695312 740.933594 124.417969 C 740.777344 125.246094 740.621094 126.074219 740.472656 126.910156 C 740.453125 127.015625 740.4375 127.121094 740.417969 127.226562 C 740.304688 127.867188 740.207031 128.511719 740.097656 129.15625 C 739.933594 130.125 739.765625 131.089844 739.613281 132.058594 C 739.605469 132.101562 739.597656 132.144531 739.589844 132.1875 C 739.34375 133.773438 739.113281 135.355469 738.898438 136.9375 C 738.875 137.125 738.847656 137.316406 738.824219 137.503906 C 738.71875 138.277344 738.640625 139.042969 738.550781 139.816406 C 738.460938 140.558594 738.363281 141.308594 738.285156 142.046875 C 738.261719 142.285156 738.234375 142.519531 738.210938 142.753906 C 738.199219 142.851562 738.195312 142.945312 738.183594 143.042969 C 738.046875 144.4375 737.925781 145.828125 737.828125 147.199219 C 737.8125 147.429688 737.800781 147.65625 737.785156 147.882812 C 737.6875 149.375 737.617188 150.851562 737.578125 152.308594 C 737.578125 152.40625 737.574219 152.503906 737.574219 152.601562 C 737.574219 152.660156 737.570312 152.71875 737.570312 152.78125 C 737.539062 154.308594 737.53125 155.816406 737.578125 157.292969 C 737.582031 157.550781 737.605469 157.796875 737.617188 158.050781 L 737.734375 158.050781 C 738.007812 158.960938 738.304688 159.898438 738.621094 160.847656 C 739.554688 163.667969 740.660156 166.65625 741.910156 169.859375 C 742.019531 170.140625 742.136719 170.429688 742.246094 170.714844 C 743.503906 173.921875 744.894531 177.335938 746.375 181.003906 C 746.769531 181.976562 747.167969 182.960938 747.574219 183.972656 C 747.9375 184.875 748.304688 185.789062 748.675781 186.722656 C 755.425781 203.65625 763.542969 225.613281 769.960938 255.832031 C 788.898438 345.035156 759.691406 482.914062 766.90625 534.441406 C 771.179688 564.988281 864.253906 795.535156 864.253906 795.535156 C 864.253906 795.535156 901.726562 806.125 919.652344 826.492188 C 928.964844 837.074219 893.578125 855 857.734375 861.515625 Z M 857.734375 861.515625 " fill-opacity="1" fill-rule="nonzero"/></g><path fill="#000000" d="M 672.050781 126.617188 C 672.050781 126.617188 673.457031 135.050781 669.238281 136.457031 C 665.019531 137.863281 664.550781 125.679688 664.550781 125.679688 C 664.550781 125.679688 653.773438 135.054688 651.664062 128.023438 C 649.550781 120.992188 658.925781 118.882812 658.925781 118.882812 C 658.925781 118.882812 651.664062 114.195312 655.878906 109.277344 C 660.097656 104.355469 664.785156 115.605469 664.785156 115.605469 C 664.785156 115.605469 664.902344 101.917969 672.984375 107.402344 C 679.546875 111.855469 672.046875 118.179688 672.046875 118.179688 C 672.046875 118.179688 682.007812 117.386719 681.1875 124.507812 C 680.484375 130.597656 672.050781 126.617188 672.050781 126.617188 Z M 695.949219 104.117188 C 695.949219 104.117188 691.265625 98.492188 687.75 101.304688 C 684.234375 104.117188 687.984375 109.273438 687.984375 109.273438 C 687.984375 109.273438 680.539062 110.96875 682.59375 117.710938 C 684.234375 123.097656 690.5625 122.398438 690.5625 122.398438 C 690.5625 122.398438 689.390625 130.597656 695.015625 131.300781 C 702.3125 132.214844 701.8125 124.039062 701.8125 124.039062 C 701.8125 124.039062 706.496094 129.664062 710.714844 126.851562 C 714.933594 124.039062 710.480469 117.945312 710.480469 117.945312 C 710.480469 117.945312 716.808594 117.007812 716.105469 111.148438 C 715.269531 104.167969 706.03125 107.632812 706.03125 107.632812 C 706.03125 107.632812 710.949219 99.902344 703.6875 97.558594 C 696.421875 95.214844 695.949219 104.117188 695.949219 104.117188 Z M 696.769531 169.851562 C 698.882812 164.226562 682.710938 160.710938 682.710938 160.710938 C 682.710938 160.710938 702.394531 160.007812 699.582031 151.570312 C 696.773438 143.132812 679.195312 155.789062 679.195312 155.789062 C 679.195312 155.789062 688.335938 134.699219 679.195312 133.292969 C 670.054688 131.886719 673.570312 156.492188 673.570312 156.492188 C 673.570312 156.492188 663.730469 131.183594 659.511719 136.804688 C 655.292969 142.429688 665.136719 152.976562 665.136719 152.976562 C 665.136719 152.976562 648.261719 150.867188 648.261719 156.492188 C 648.261719 162.117188 664.433594 162.117188 664.433594 162.117188 C 664.433594 162.117188 655.292969 178.988281 661.621094 181.097656 C 667.949219 183.207031 672.164062 166.335938 672.164062 166.335938 C 672.164062 166.335938 677.085938 183.910156 681.304688 182.503906 C 685.523438 181.097656 679.195312 167.742188 679.195312 167.742188 C 679.195312 167.742188 694.664062 175.472656 696.769531 169.851562 Z M 673.105469 192.582031 C 673.105469 192.582031 680.601562 186.253906 674.042969 181.800781 C 665.960938 176.316406 665.839844 190.003906 665.839844 190.003906 C 665.839844 190.003906 661.152344 178.753906 656.9375 183.675781 C 652.71875 188.597656 659.980469 193.28125 659.980469 193.28125 C 659.980469 193.28125 650.609375 195.394531 652.71875 202.421875 C 654.828125 209.453125 665.605469 200.078125 665.605469 200.078125 C 665.605469 200.078125 666.074219 212.265625 670.292969 210.859375 C 674.511719 209.453125 673.105469 201.015625 673.105469 201.015625 C 673.105469 201.015625 681.542969 205 682.246094 198.90625 C 683.0625 191.785156 673.105469 192.582031 673.105469 192.582031 Z M 707.082031 182.035156 C 707.082031 182.035156 712.003906 174.300781 704.738281 171.957031 C 697.476562 169.617188 697.007812 178.519531 697.007812 178.519531 C 697.007812 178.519531 692.320312 172.894531 688.804688 175.707031 C 685.289062 178.519531 689.039062 183.675781 689.039062 183.675781 C 689.039062 183.675781 681.597656 185.367188 683.648438 192.109375 C 685.289062 197.5 691.617188 196.796875 691.617188 196.796875 C 691.617188 196.796875 690.445312 205 696.070312 205.703125 C 703.367188 206.613281 702.867188 198.4375 702.867188 198.4375 C 702.867188 198.4375 707.554688 204.0625 711.769531 201.25 C 715.988281 198.4375 711.539062 192.347656 711.539062 192.347656 C 711.539062 192.347656 717.863281 191.410156 717.164062 185.550781 C 716.320312 178.570312 707.082031 182.035156 707.082031 182.035156 Z M 737.570312 152.601562 C 737.570312 152.503906 737.570312 152.40625 737.574219 152.308594 C 737.613281 150.847656 737.683594 149.371094 737.78125 147.882812 C 737.792969 147.65625 737.808594 147.425781 737.824219 147.199219 C 737.921875 145.824219 738.042969 144.4375 738.183594 143.042969 C 732.8125 143.671875 725.804688 147.625 725.804688 147.625 C 725.804688 147.625 735.164062 131.957031 731.238281 129.863281 C 727.316406 127.773438 721.984375 141.554688 721.984375 141.554688 C 721.984375 141.554688 716.945312 125.011719 711.414062 127.355469 C 705.882812 129.695312 714.464844 143.84375 714.464844 143.84375 C 714.464844 143.84375 700.402344 130.050781 696.222656 137.898438 C 692.039062 145.746094 713.316406 149.78125 713.316406 149.78125 C 713.316406 149.78125 691.726562 157.671875 697 165.269531 C 702.269531 172.863281 717.699219 153.375 717.699219 153.375 C 717.699219 153.375 706.117188 177.9375 713.097656 177.125 C 720.082031 176.3125 720.953125 161.914062 720.953125 161.914062 C 720.953125 161.914062 731.039062 175.605469 735.117188 171.734375 C 739.199219 167.863281 728.066406 156.136719 728.066406 156.136719 C 728.066406 156.136719 733.136719 154.769531 737.570312 152.601562 Z M 740.925781 124.414062 C 741.058594 123.691406 741.1875 122.964844 741.324219 122.25 C 741.363281 122.050781 741.402344 121.851562 741.4375 121.648438 C 741.660156 120.5 741.882812 119.367188 742.109375 118.234375 C 739.925781 120.140625 740.0625 122.4375 740.925781 124.414062 Z M 738.898438 136.933594 C 739.109375 135.351562 739.339844 133.765625 739.585938 132.183594 C 739.59375 132.140625 739.601562 132.09375 739.609375 132.050781 C 739.761719 131.082031 739.929688 130.117188 740.09375 129.152344 C 737.605469 129.742188 735.03125 131.351562 735.730469 135.613281 C 736.164062 138.246094 737.234375 139.429688 738.546875 139.8125 C 738.636719 139.039062 738.714844 138.273438 738.820312 137.5 C 738.84375 137.308594 738.871094 137.121094 738.898438 136.933594 Z M 737.351562 179.144531 C 739.851562 184.351562 744.335938 182.304688 746.375 181 C 744.890625 177.335938 743.503906 173.917969 742.242188 170.710938 C 740.113281 171.339844 734.667969 173.546875 737.351562 179.144531 Z M 748.671875 186.714844 C 748.300781 185.785156 747.933594 184.871094 747.574219 183.96875 C 747.75 184.949219 748.085938 185.941406 748.671875 186.714844 Z M 741.90625 169.855469 C 740.660156 166.652344 739.550781 163.664062 738.617188 160.84375 C 735.257812 164.984375 739.683594 168.46875 741.90625 169.855469 Z M 751.253906 36.394531 C 748.441406 27.960938 730.867188 40.613281 730.867188 40.613281 C 730.867188 40.613281 740.007812 19.523438 730.867188 18.117188 C 721.726562 16.714844 725.242188 41.316406 725.242188 41.316406 C 725.242188 41.316406 715.402344 16.007812 711.183594 21.632812 C 706.964844 27.257812 716.808594 37.800781 716.808594 37.800781 C 716.808594 37.800781 703.722656 36.171875 700.609375 39.628906 C 700.480469 39.589844 700.371094 39.539062 700.230469 39.511719 C 693.222656 38.003906 693.046875 47.992188 693.046875 47.992188 C 693.046875 47.992188 687.476562 39.917969 682.410156 46.015625 C 676.167969 53.53125 689.777344 54.972656 689.777344 54.972656 C 689.777344 54.972656 678.128906 58.550781 682.621094 63.222656 C 687.109375 67.898438 692.480469 61.121094 692.480469 61.121094 C 692.480469 61.121094 693.671875 70.652344 700.875 69.238281 C 708.074219 67.816406 699.789062 56.183594 699.789062 56.183594 C 699.789062 56.183594 711.960938 56.894531 710.96875 52.558594 C 709.976562 48.226562 701.445312 48.808594 701.445312 48.808594 C 701.445312 48.808594 702.570312 46.914062 703.042969 44.824219 C 707.734375 46.925781 716.105469 46.941406 716.105469 46.941406 C 716.105469 46.941406 706.964844 63.8125 713.292969 65.921875 C 719.621094 68.03125 723.835938 51.15625 723.835938 51.15625 C 723.835938 51.15625 728.757812 68.734375 732.976562 67.328125 C 737.195312 65.921875 730.867188 52.566406 730.867188 52.566406 C 730.867188 52.566406 746.332031 60.296875 748.441406 54.675781 C 750.554688 49.050781 734.382812 45.535156 734.382812 45.535156 C 734.382812 45.535156 754.066406 44.832031 751.253906 36.394531 Z M 704.386719 87.246094 C 706.496094 94.277344 717.277344 84.90625 717.277344 84.90625 C 717.277344 84.90625 717.746094 97.089844 721.964844 95.683594 C 726.179688 94.277344 724.777344 85.839844 724.777344 85.839844 C 724.777344 85.839844 733.210938 89.824219 733.914062 83.730469 C 734.738281 76.609375 724.777344 77.402344 724.777344 77.402344 C 724.777344 77.402344 732.273438 71.074219 725.714844 66.625 C 717.632812 61.140625 717.511719 74.828125 717.511719 74.828125 C 717.511719 74.828125 712.824219 63.578125 708.609375 68.5 C 704.390625 73.417969 711.652344 78.105469 711.652344 78.105469 C 711.652344 78.105469 702.277344 80.21875 704.386719 87.246094 Z M 747.765625 88.234375 C 747.773438 88.136719 747.78125 88.042969 747.789062 87.945312 C 747.789062 87.941406 747.789062 87.9375 747.792969 87.929688 C 747.878906 87.019531 747.941406 86.152344 747.960938 85.363281 C 747.996094 84.039062 747.976562 82.765625 747.925781 81.523438 C 747.910156 81.101562 747.878906 80.691406 747.851562 80.277344 C 747.800781 79.480469 747.734375 78.703125 747.652344 77.941406 C 747.597656 77.460938 747.542969 76.984375 747.472656 76.515625 C 747.382812 75.871094 747.273438 75.242188 747.15625 74.621094 C 747.0625 74.132812 746.984375 73.632812 746.875 73.160156 C 746.769531 72.675781 746.632812 72.222656 746.511719 71.757812 C 746.222656 70.65625 745.894531 69.601562 745.523438 68.597656 C 745.4375 68.363281 745.355469 68.117188 745.265625 67.882812 C 745.015625 67.253906 744.746094 66.644531 744.46875 66.054688 C 744.382812 65.878906 744.300781 65.707031 744.21875 65.535156 C 743.90625 64.914062 743.589844 64.304688 743.25 63.726562 L 745.648438 60.738281 C 744.078125 59.769531 742.148438 59.195312 740.476562 60.535156 C 736.960938 63.347656 740.707031 68.503906 740.707031 68.503906 C 740.707031 68.503906 733.265625 70.195312 735.320312 76.9375 C 736.960938 82.328125 743.289062 81.625 743.289062 81.625 C 743.289062 81.625 742.167969 89.546875 747.484375 90.472656 C 747.558594 89.929688 747.625 89.40625 747.683594 88.894531 C 747.707031 88.679688 747.742188 88.441406 747.765625 88.234375 Z M 732.542969 93.542969 C 726.070312 93.199219 726.785156 101.816406 726.785156 101.816406 C 726.785156 101.816406 719.398438 95.671875 715.109375 101.628906 C 710.824219 107.589844 724.824219 110.417969 724.824219 110.417969 C 724.824219 110.417969 715.453125 118.21875 719.140625 120.703125 C 722.828125 123.1875 728.65625 116.929688 728.65625 116.929688 C 728.65625 116.929688 730.644531 126.046875 735.902344 122.886719 C 742.046875 119.195312 735.34375 111.789062 735.34375 111.789062 C 735.34375 111.789062 742.191406 113.257812 744.015625 108.917969 C 744.132812 108.355469 744.253906 107.773438 744.367188 107.214844 C 744.394531 107.09375 744.417969 106.980469 744.445312 106.859375 C 744.457031 106.566406 744.480469 106.28125 744.460938 105.957031 C 743.878906 96.207031 732.957031 104.457031 732.957031 104.457031 C 732.957031 104.457031 739.011719 93.886719 732.542969 93.542969 Z M 681.367188 22.84375 C 681.367188 22.84375 675.316406 26.964844 677.773438 30.738281 C 680.234375 34.507812 685.726562 31.273438 685.726562 31.273438 C 685.726562 31.273438 686.691406 38.847656 693.601562 37.457031 C 699.125 36.34375 699.039062 29.980469 699.039062 29.980469 C 699.039062 29.980469 707.089844 31.9375 708.332031 26.410156 C 709.945312 19.234375 701.757812 18.941406 701.757812 18.941406 C 701.757812 18.941406 707.808594 14.820312 705.417969 10.351562 C 703.03125 5.878906 696.535156 9.722656 696.535156 9.722656 C 696.535156 9.722656 696.214844 3.335938 690.3125 3.46875 C 683.285156 3.625 685.839844 13.15625 685.839844 13.15625 C 685.839844 13.15625 678.621094 7.511719 675.585938 14.511719 C 672.550781 21.515625 681.367188 22.84375 681.367188 22.84375 Z M 647.65625 103.628906 C 647.65625 103.628906 659.675781 101.570312 657.726562 97.574219 C 655.78125 93.574219 647.601562 96.074219 647.601562 96.074219 C 647.601562 96.074219 650.449219 87.1875 644.3125 87.292969 C 637.144531 87.410156 639.238281 97.179688 639.238281 97.179688 C 639.238281 97.179688 631.984375 90.574219 628.425781 97.664062 C 628.371094 97.777344 628.351562 97.871094 628.296875 97.980469 C 628.714844 99.871094 629.160156 101.828125 629.628906 103.828125 C 632.574219 105.332031 637.632812 104.722656 637.632812 104.722656 C 637.632812 104.722656 632.574219 107.660156 631.277344 110.644531 C 631.5625 111.785156 631.855469 112.929688 632.152344 114.070312 C 632.277344 114.171875 632.375 114.28125 632.523438 114.375 C 637.957031 117.914062 641.648438 110.097656 641.648438 110.097656 C 641.648438 110.097656 644.96875 119.117188 651.664062 116.105469 C 658.359375 113.089844 647.65625 103.628906 647.65625 103.628906 Z M 614.660156 71.253906 C 614.488281 70.484375 614.457031 69.59375 614.65625 68.515625 C 616.027344 61.003906 624.339844 64.871094 624.339844 64.871094 C 624.339844 64.871094 619.691406 56.167969 626.503906 54.421875 C 632.21875 52.957031 633.976562 59.105469 633.976562 59.105469 C 633.976562 59.105469 635.453125 57.703125 637.335938 56.886719 C 636.941406 56.683594 636.566406 56.4375 636.222656 56.121094 C 631.035156 51.378906 657.175781 44.035156 657.175781 44.035156 C 657.175781 44.035156 632.34375 45.152344 634.628906 36.191406 C 636.914062 27.230469 657.019531 38.371094 657.019531 38.371094 C 657.019531 38.371094 646.125 19.652344 654.792969 17.671875 C 663.460938 15.6875 662.257812 35.347656 662.257812 35.347656 C 662.257812 35.347656 667.316406 19.59375 672.710938 22.238281 C 678.105469 24.878906 668.914062 39.527344 668.914062 39.527344 C 668.914062 39.527344 682.820312 34.519531 683.808594 38.855469 C 684.800781 43.1875 666.832031 46.386719 666.832031 46.386719 C 666.832031 46.386719 683.214844 52.21875 680.503906 58.3125 C 680.300781 58.769531 680 59.105469 679.660156 59.386719 C 686.15625 62.882812 678.136719 81.390625 678.136719 81.390625 C 678.136719 81.390625 695.714844 68.734375 698.527344 77.171875 C 701.339844 85.605469 681.652344 86.3125 681.652344 86.3125 C 681.652344 86.3125 697.824219 89.828125 695.714844 95.453125 C 693.605469 101.078125 678.136719 93.339844 678.136719 93.339844 C 678.136719 93.339844 684.464844 106.699219 680.25 108.105469 C 676.03125 109.511719 671.109375 91.9375 671.109375 91.9375 C 671.109375 91.9375 666.890625 108.808594 660.5625 106.699219 C 654.234375 104.589844 663.375 87.71875 663.375 87.71875 C 663.375 87.71875 647.207031 87.71875 647.207031 82.09375 C 647.207031 76.46875 664.078125 78.578125 664.078125 78.578125 C 664.078125 78.578125 658.851562 72.960938 657.664062 67.734375 C 656.835938 68.734375 655.867188 69.339844 654.726562 69.226562 C 649.128906 68.683594 652.859375 52.09375 652.859375 52.09375 C 652.859375 52.09375 647.417969 56.265625 642.335938 57.300781 C 642.484375 57.429688 642.632812 57.550781 642.773438 57.714844 C 646.113281 61.527344 641.148438 66.910156 641.148438 66.910156 C 641.148438 66.910156 649.191406 65.34375 649.242188 72.695312 C 649.28125 78.363281 640.996094 78.277344 640.996094 78.277344 C 640.996094 78.277344 642.519531 84.457031 637.394531 86.789062 C 630.976562 89.707031 628.324219 82.550781 628.324219 82.550781 C 628.324219 82.550781 627.148438 83.664062 625.5625 84.375 C 625.464844 83.804688 625.371094 83.265625 625.289062 82.753906 C 625.277344 82.671875 625.265625 82.589844 625.25 82.507812 C 625.152344 81.894531 625.058594 81.3125 624.984375 80.789062 C 624.984375 80.777344 624.984375 80.769531 624.980469 80.761719 C 624.90625 80.242188 624.847656 79.78125 624.796875 79.359375 C 624.792969 79.304688 624.785156 79.246094 624.777344 79.195312 C 624.734375 78.800781 624.703125 78.460938 624.683594 78.160156 C 624.679688 78.105469 624.675781 78.050781 624.671875 77.996094 C 624.65625 77.71875 624.652344 77.484375 624.660156 77.308594 C 624.660156 77.277344 624.664062 77.261719 624.667969 77.234375 C 624.679688 77.066406 624.703125 76.9375 624.746094 76.890625 L 622.09375 75.410156 C 622.140625 75.359375 622.167969 75.324219 622.167969 75.324219 C 622.167969 75.324219 622.082031 75.332031 621.960938 75.335938 Z M 660.398438 61.683594 C 665.113281 63.0625 672.519531 82.09375 672.519531 82.09375 C 672.519531 82.09375 669.996094 64.414062 674.792969 59.886719 C 669.234375 58.625 661.890625 53.675781 661.890625 53.675781 C 661.890625 53.675781 661.496094 57.71875 660.398438 61.683594 Z M 658.738281 207.367188 C 657.535156 203.085938 643.890625 208.765625 643.890625 208.765625 C 643.890625 208.765625 652.351562 193.6875 646.835938 191.3125 C 641.320312 188.9375 637.035156 204.921875 637.035156 204.921875 C 637.035156 204.921875 637.273438 185.226562 628.714844 187.628906 C 620.152344 190.035156 631.953125 208.195312 631.953125 208.195312 C 631.953125 208.195312 623.78125 204.1875 617.265625 203.46875 C 615.886719 206.335938 614.496094 209.292969 613.085938 212.363281 C 613.242188 212.429688 613.410156 212.484375 613.570312 212.542969 C 613.785156 212.625 614.003906 212.703125 614.230469 212.773438 C 620.980469 214.917969 632.382812 213.84375 632.382812 213.84375 C 632.382812 213.84375 620.085938 217.964844 614.277344 221.988281 C 613.832031 222.296875 613.425781 222.605469 613.066406 222.910156 C 611.324219 224.382812 610.664062 225.800781 612.046875 226.949219 C 612.308594 227.164062 612.589844 227.320312 612.875 227.472656 C 613.359375 227.734375 613.867188 227.933594 614.40625 228.039062 C 620.140625 229.160156 628.46875 222.105469 628.46875 222.105469 C 628.46875 222.105469 625.554688 238.855469 631.171875 239.125 C 636.789062 239.394531 637.5625 223.246094 637.5625 223.246094 C 637.5625 223.246094 653.976562 233.179688 656.386719 226.960938 C 658.796875 220.742188 642.144531 215.722656 642.144531 215.722656 C 642.144531 215.722656 659.941406 211.644531 658.738281 207.367188 Z M 643.167969 157.84375 C 642.234375 157.859375 641.464844 158.042969 640.824219 158.34375 C 640.796875 158.84375 640.78125 159.335938 640.738281 159.847656 C 640.738281 159.847656 639.652344 161.585938 637.808594 164.714844 C 637.808594 166.398438 638.089844 167.734375 638.089844 167.734375 C 638.089844 167.734375 637.53125 167.234375 636.667969 166.660156 C 635.3125 168.992188 633.667969 171.878906 631.792969 175.273438 C 634.191406 175.546875 636.484375 175.273438 636.484375 175.273438 C 636.484375 175.273438 625.949219 181.394531 631.378906 184.929688 C 636.808594 188.46875 640.503906 180.652344 640.503906 180.652344 C 640.503906 180.652344 643.820312 189.667969 650.515625 186.65625 C 657.210938 183.644531 646.507812 174.1875 646.507812 174.1875 C 646.507812 174.1875 658.527344 172.128906 656.578125 168.128906 C 654.632812 164.132812 646.453125 166.632812 646.453125 166.632812 C 646.453125 166.632812 649.300781 157.742188 643.167969 157.84375 Z M 650.167969 138.839844 C 650.113281 131.488281 642.074219 133.054688 642.074219 133.054688 C 642.074219 133.054688 647.039062 127.671875 643.699219 123.859375 C 640.800781 120.550781 636.3125 124.027344 635.175781 125.011719 C 635.382812 125.71875 635.59375 126.421875 635.800781 127.125 C 635.988281 127.753906 636.175781 128.394531 636.359375 129.019531 C 636.367188 129.035156 636.371094 129.050781 636.375 129.066406 C 636.777344 130.429688 637.167969 131.785156 637.542969 133.140625 C 637.554688 133.167969 637.558594 133.195312 637.566406 133.222656 C 637.941406 134.570312 638.300781 135.921875 638.636719 137.28125 C 638.640625 137.304688 638.644531 137.324219 638.652344 137.351562 C 639.71875 141.695312 640.53125 146.128906 640.824219 150.914062 C 642.832031 148.15625 641.921875 144.417969 641.921875 144.417969 C 641.921875 144.417969 650.207031 144.507812 650.167969 138.839844 Z M 638.746094 262.910156 C 638.746094 262.910156 644.109375 258.382812 639.414062 255.199219 C 633.636719 251.277344 633.546875 261.066406 633.546875 261.066406 C 633.546875 261.066406 630.195312 253.019531 627.179688 256.539062 C 624.164062 260.058594 629.359375 263.414062 629.359375 263.414062 C 629.359375 263.414062 622.652344 264.921875 624.164062 269.949219 C 625.671875 274.976562 633.382812 268.273438 633.382812 268.273438 C 633.382812 268.273438 633.71875 276.988281 636.734375 275.984375 C 639.75 274.980469 638.746094 268.945312 638.746094 268.945312 C 638.746094 268.945312 644.777344 271.792969 645.28125 267.433594 C 645.871094 262.339844 638.746094 262.910156 638.746094 262.910156 Z M 673.421875 233.832031 C 673.421875 233.832031 678.785156 229.304688 674.09375 226.121094 C 668.3125 222.199219 668.226562 231.988281 668.226562 231.988281 C 668.226562 231.988281 664.871094 223.941406 661.855469 227.460938 C 658.839844 230.984375 664.035156 234.335938 664.035156 234.335938 C 664.035156 234.335938 657.332031 235.84375 658.839844 240.871094 C 660.347656 245.898438 668.058594 239.195312 668.058594 239.195312 C 668.058594 239.195312 668.394531 247.914062 671.410156 246.90625 C 674.429688 245.902344 673.421875 239.867188 673.421875 239.867188 C 673.421875 239.867188 679.457031 242.714844 679.960938 238.355469 C 680.546875 233.265625 673.421875 233.832031 673.421875 233.832031 Z M 717.753906 13.433594 C 717.753906 13.433594 718.089844 22.152344 721.105469 21.144531 C 724.125 20.140625 723.117188 14.105469 723.117188 14.105469 C 723.117188 14.105469 729.152344 16.953125 729.65625 12.59375 C 729.9375 10.140625 728.429688 9.007812 726.792969 8.488281 C 722.078125 8.21875 717.449219 8.308594 713.277344 8.246094 C 713.550781 8.457031 713.730469 8.574219 713.730469 8.574219 C 713.730469 8.574219 707.027344 10.082031 708.535156 15.109375 C 710.042969 20.140625 717.753906 13.433594 717.753906 13.433594 Z M 717.753906 13.433594 " fill-opacity="1" fill-rule="nonzero"/><path fill="#453f40" d="M 630.605469 518.90625 C 634.929688 608.972656 642.003906 765.804688 648.851562 816.917969 C 638.535156 815.84375 624.378906 814.390625 604.992188 812.433594 C 582.304688 810.140625 562.457031 813.777344 546.511719 819.21875 C 551.660156 791.246094 554.890625 742.78125 554.890625 742.78125 C 554.890625 742.78125 609.878906 583.925781 626.988281 530.160156 C 628.101562 526.652344 629.316406 522.882812 630.605469 518.90625 Z M 836.851562 818.03125 C 829.269531 820.792969 822.082031 824.34375 814.324219 826.65625 C 806.34375 829.039062 798.214844 830.707031 789.902344 831.355469 C 781.847656 831.980469 773.738281 832.019531 765.703125 831.117188 C 757.421875 830.191406 748.941406 828.824219 741.082031 826.011719 C 740.902344 825.949219 740.777344 826.246094 740.953125 826.320312 C 748.730469 829.710938 756.445312 832.800781 764.808594 834.394531 C 773.207031 835.988281 781.808594 836.75 790.351562 836.292969 C 798.917969 835.832031 807.585938 834.535156 815.828125 832.117188 C 823.917969 829.742188 832.164062 826.691406 838.867188 821.492188 C 840.496094 820.226562 838.726562 817.347656 836.851562 818.03125 Z M 730.15625 813.71875 C 725.453125 811.058594 722.09375 805.980469 719.445312 801.4375 C 715.476562 794.636719 712.386719 787.253906 709.652344 779.886719 C 702.027344 759.363281 697.003906 737.875 692.285156 716.535156 C 686.601562 690.832031 681.898438 664.882812 677.472656 638.9375 C 673.0625 613.070312 669.125 587.113281 665.296875 561.148438 C 662.21875 540.257812 658.953125 519.414062 655.480469 498.585938 C 655.144531 496.554688 654.804688 494.527344 654.460938 492.5 C 654.398438 492.128906 653.761719 492.210938 653.796875 492.589844 C 655.863281 512.933594 657.722656 533.28125 660.289062 553.570312 C 663.578125 579.621094 667.148438 605.628906 671.207031 631.570312 C 675.359375 658.121094 680.023438 684.570312 685.878906 710.804688 C 690.835938 733.011719 696.53125 755.1875 704.640625 776.480469 C 707.621094 784.308594 710.886719 792.113281 715.238281 799.292969 C 718.292969 804.324219 721.863281 809.398438 726.617188 812.96875 C 727.542969 813.664062 728.515625 814.242188 729.519531 814.808594 C 730.226562 815.214844 730.867188 814.121094 730.15625 813.71875 Z M 777.308594 642.535156 C 782.046875 670.609375 787.046875 698.671875 792.691406 726.582031 C 796.402344 744.929688 800.792969 762.996094 805.921875 781 C 806.101562 781.632812 807.023438 781.363281 806.902344 780.730469 C 800.9375 749.753906 794.230469 718.921875 788.609375 687.882812 C 783.707031 660.789062 780.507812 633.4375 776.179688 606.257812 C 774.941406 598.484375 773.769531 590.699219 772.28125 582.972656 C 770.738281 574.96875 768.820312 567.09375 766.859375 559.179688 C 766.757812 558.769531 766.082031 558.84375 766.113281 559.28125 C 767.167969 573.527344 768.683594 587.589844 770.71875 601.734375 C 772.6875 615.371094 775.015625 628.953125 777.308594 642.535156 Z M 677.160156 299.460938 C 687.304688 316.734375 697.851562 333.753906 708.671875 350.613281 C 714.703125 360.011719 721.144531 368.984375 728.214844 377.628906 C 729.121094 378.738281 730.78125 377.324219 730.136719 376.144531 C 720.585938 358.707031 709.289062 342.398438 698.578125 325.667969 C 687.960938 309.082031 677.613281 292.332031 667.089844 275.683594 C 661.035156 266.109375 655.082031 256.480469 649.324219 246.722656 C 648.882812 245.96875 647.742188 246.640625 648.15625 247.402344 C 657.652344 264.863281 667.089844 282.324219 677.160156 299.460938 Z M 746.703125 352.65625 C 744.195312 348.480469 741.203125 344.496094 738.441406 340.480469 C 735.816406 336.671875 733.378906 332.738281 730.789062 328.902344 C 725.328125 320.804688 720.257812 312.425781 715.234375 304.050781 C 710.265625 295.769531 705.441406 287.402344 700.484375 279.117188 C 695.441406 270.683594 689.820312 262.640625 684.097656 254.65625 C 683.382812 253.660156 681.753906 254.550781 682.421875 255.636719 C 687.621094 264.132812 692.113281 273.023438 696.914062 281.746094 C 701.570312 290.210938 706.101562 298.746094 710.777344 307.199219 C 715.4375 315.621094 720.339844 323.878906 725.691406 331.882812 C 730.972656 339.78125 737.402344 348.136719 744.910156 354.042969 C 745.859375 354.785156 747.421875 353.859375 746.703125 352.65625 Z M 614.230469 212.773438 C 614.003906 212.699219 613.785156 212.625 613.570312 212.542969 C 613.386719 216 613.222656 219.457031 613.070312 222.910156 C 613.429688 222.605469 613.835938 222.296875 614.277344 221.988281 C 614.234375 218.917969 614.226562 215.847656 614.230469 212.773438 Z M 525.523438 618.867188 C 522.765625 626.597656 519.433594 634.160156 516.546875 641.847656 C 511.921875 654.15625 507.5 666.542969 502.957031 678.882812 C 498.242188 691.699219 493.804688 704.609375 488.902344 717.355469 C 485.445312 726.351562 482.101562 735.597656 477.5625 744.117188 C 474.128906 750.566406 468.839844 756.203125 463.367188 760.96875 C 455.042969 768.222656 445.289062 773.792969 434.28125 775.523438 C 433.578125 775.632812 433.742188 776.816406 434.449219 776.769531 C 452.988281 775.507812 469.292969 764.085938 479.714844 749.074219 C 484.589844 742.054688 487.679688 733.460938 490.886719 725.609375 C 501.289062 700.136719 510.671875 674.148438 518.964844 647.917969 C 520.785156 642.15625 522.644531 636.40625 524.339844 630.609375 C 525.425781 626.90625 526.34375 623.085938 527.640625 619.453125 C 528.117188 618.117188 525.996094 617.539062 525.523438 618.867188 Z M 574.15625 460.910156 C 578.980469 439.359375 584.035156 417.949219 589.671875 396.59375 C 595.34375 375.113281 601.332031 353.695312 606.390625 332.058594 C 609.046875 320.691406 611.308594 309.238281 613.269531 297.734375 C 614.386719 317.871094 616.257812 338.03125 618.957031 357.980469 C 620.839844 371.925781 623.058594 385.742188 625.75 399.550781 C 625.992188 400.796875 628.105469 400.53125 627.988281 399.246094 C 625.835938 374.863281 623.027344 350.554688 620.660156 326.191406 C 618.308594 302.007812 616.921875 277.78125 615.464844 253.535156 C 614.953125 245.035156 614.609375 236.542969 614.410156 228.039062 C 613.867188 227.933594 613.359375 227.738281 612.875 227.476562 C 612.105469 246.742188 611.878906 265.988281 612.636719 285.292969 C 612.777344 288.917969 612.996094 292.542969 613.191406 296.171875 C 601.839844 338.988281 588.367188 381.285156 579.160156 424.648438 C 576.625 436.582031 574.140625 448.597656 572.664062 460.714844 C 572.558594 461.5625 573.972656 461.742188 574.15625 460.910156 Z M 574.15625 460.910156 " fill-opacity="1" fill-rule="nonzero"/><path fill="#0a1016" d="M 218.847656 443.460938 C 213.519531 443.128906 201.105469 442.144531 191.09375 433.105469 C 187.804688 430.128906 185.679688 427.089844 183.660156 423.753906 C 179.351562 416.632812 172.226562 402.585938 168.128906 379.5 C 164.03125 402.585938 156.894531 416.632812 152.617188 423.753906 C 150.59375 427.089844 148.457031 430.128906 145.152344 433.105469 C 135.15625 442.140625 122.738281 443.128906 117.414062 443.460938 C 98.800781 444.671875 84.4375 436.054688 75.386719 430.636719 C 75.148438 430.503906 74.921875 430.355469 74.695312 430.21875 C 76.851562 568.113281 79.003906 705.992188 81.144531 843.902344 C 86.171875 846.175781 92.875 848.554688 101 849.78125 C 116.796875 852.164062 129.765625 848.914062 137.011719 846.460938 C 146.808594 715.011719 156.609375 583.550781 166.421875 452.09375 C 176.460938 583.433594 186.515625 714.761719 196.554688 846.101562 C 203.496094 847.898438 212.472656 849.542969 223.019531 849.78125 C 235.929688 850.066406 246.761719 848.136719 254.632812 846.101562 C 257.820312 706.921875 261.007812 567.722656 264.191406 428.542969 C 263.128906 429.246094 262.023438 429.953125 260.855469 430.636719 C 251.835938 436.054688 237.457031 444.671875 218.847656 443.460938 Z M 218.847656 443.460938 " fill-opacity="1" fill-rule="nonzero"/><path fill="#ffffff" d="M 6.328125 412.042969 L 50.804688 412.042969 L 50.804688 399.757812 C 35.980469 399.636719 21.152344 399.503906 6.328125 399.386719 Z M 6.328125 412.042969 " fill-opacity="1" fill-rule="nonzero"/><path fill="#ffffff" d="M 329.570312 412.042969 L 329.570312 399.386719 C 314.761719 399.503906 299.933594 399.636719 285.109375 399.773438 L 285.109375 412.042969 Z M 329.570312 412.042969 " fill-opacity="1" fill-rule="nonzero"/><path fill="#ffffff" d="M 205.90625 4.195312 C 201.757812 7.640625 197.253906 11.15625 192.351562 14.664062 C 183.855469 20.738281 175.667969 25.75 168.128906 29.867188 C 160.589844 25.75 152.40625 20.738281 143.910156 14.664062 C 138.589844 10.851562 133.738281 7.027344 129.292969 3.296875 C 125.820312 8.808594 121.03125 13.769531 118.449219 19.84375 C 118.464844 59.628906 122.300781 109.253906 135.84375 164.632812 C 143.519531 196.109375 153.027344 224.09375 162.847656 248.363281 C 163.367188 249.644531 163.882812 250.925781 164.40625 252.183594 C 163.769531 251.125 163.164062 250.085938 162.535156 249.03125 C 162.273438 250.597656 164.421875 252.75 164.421875 252.75 C 166.960938 253.769531 168.628906 253.210938 169.855469 251.882812 C 180.164062 226.816406 190.230469 197.640625 198.292969 164.632812 C 211.84375 109.171875 215.683594 59.476562 215.671875 19.664062 C 213.242188 14.160156 210.605469 8.386719 205.90625 4.195312 Z M 205.90625 4.195312 " fill-opacity="1" fill-rule="nonzero"/><g clip-path="url(#40d49c74f1)"><path stroke-linecap="butt" transform="matrix(0.284925, 0, 0, 0.284925, 0.95866, 0.678053)" fill="none" stroke-linejoin="miter" d="M 719.303601 12.344508 C 704.743849 24.436505 688.93651 36.775278 671.730777 49.086631 C 641.912077 70.405288 613.176446 87.994894 586.716634 102.444968 C 560.256821 87.994894 531.534901 70.405288 501.7162 49.086631 C 483.043524 35.705918 466.016018 22.284075 450.414325 9.191266 C 438.22636 28.53572 421.41821 45.947099 412.356067 67.265756 C 412.410906 206.899533 425.873878 381.068164 473.405572 575.431252 C 500.345225 685.904397 533.71475 784.121027 568.181055 869.299687 C 570.004452 873.796484 571.814138 878.293282 573.651245 882.70782 C 571.416556 878.992479 569.291545 875.345686 567.084276 871.644054 C 566.165722 877.141663 573.706084 884.695734 573.706084 884.695734 C 582.617419 888.273978 588.471481 886.313484 592.776342 881.65217 C 628.956365 793.676721 664.286384 691.278618 692.583303 575.431252 C 740.142417 380.780259 753.619098 206.364853 753.577969 66.635108 C 745.050506 47.318074 735.796427 27.055067 719.303601 12.344508 Z M 719.303601 12.344508 " stroke="#fcf8e1" stroke-width="1.89" stroke-opacity="1" stroke-miterlimit="10"/></g><path fill="#ffffff" d="M 167.335938 256.125 L 168.019531 50.296875 L 169.632812 50.300781 L 168.949219 256.128906 Z M 167.335938 256.125 " fill-opacity="1" fill-rule="nonzero"/><path fill="#000000" d="M 277.199219 418.929688 C 276.65625 418.605469 276.121094 418.269531 275.589844 417.921875 C 275.648438 418.507812 275.710938 419.085938 275.773438 419.671875 C 273.035156 422.097656 269.171875 425.28125 264.191406 428.542969 C 263.128906 429.246094 262.023438 429.953125 260.855469 430.636719 C 252.414062 435.703125 239.285156 443.574219 222.386719 443.574219 C 221.226562 443.574219 220.042969 443.535156 218.847656 443.460938 C 213.519531 443.128906 201.105469 442.144531 191.09375 433.105469 C 187.804688 430.128906 185.679688 427.089844 183.660156 423.753906 C 179.351562 416.632812 172.226562 402.585938 168.128906 379.5 C 164.03125 402.585938 156.894531 416.632812 152.617188 423.753906 C 150.59375 427.089844 148.457031 430.128906 145.152344 433.105469 C 135.15625 442.140625 122.738281 443.128906 117.414062 443.460938 C 116.214844 443.535156 115.035156 443.574219 113.871094 443.574219 C 96.976562 443.574219 83.859375 435.703125 75.390625 430.636719 C 75.148438 430.503906 74.925781 430.355469 74.699219 430.21875 C 68.445312 426.390625 63.6875 422.515625 60.488281 419.671875 C 60.566406 418.941406 60.640625 418.203125 60.71875 417.472656 C 60.203125 417.640625 59.683594 417.792969 59.164062 417.9375 C 59.113281 418.464844 59.058594 418.992188 59 419.515625 L 58.921875 420.28125 L 59.496094 420.792969 C 64 424.792969 68.855469 428.394531 73.921875 431.496094 L 74.167969 431.648438 C 74.328125 431.746094 74.488281 431.847656 74.65625 431.945312 C 83.40625 437.175781 96.597656 445.074219 113.875 445.074219 C 115.082031 445.074219 116.304688 445.03125 117.511719 444.953125 C 122.433594 444.648438 135.511719 443.84375 146.15625 434.21875 C 149.785156 430.949219 152.023438 427.628906 153.898438 424.53125 C 160.160156 414.109375 164.9375 401.558594 168.136719 387.140625 C 171.347656 401.535156 176.21875 414.347656 182.382812 424.53125 C 184.265625 427.644531 186.5 430.96875 190.09375 434.21875 C 200.753906 443.84375 213.835938 444.648438 218.757812 444.953125 C 219.960938 445.03125 221.1875 445.070312 222.394531 445.070312 C 239.726562 445.070312 252.910156 437.15625 261.628906 431.921875 C 262.703125 431.289062 263.820312 430.589844 265.023438 429.792969 C 269.105469 427.121094 272.949219 424.175781 276.769531 420.792969 L 277.34375 420.285156 L 277.265625 419.519531 L 277.203125 418.929688 Z M 277.199219 418.929688 " fill-opacity="1" fill-rule="nonzero"/><g clip-path="url(#6cf728ef0f)"><path fill="#0a1016" d="M 332.070312 239.78125 C 325.503906 162.3125 309.824219 96.394531 293.578125 44.78125 C 289.28125 42.734375 282.386719 39.542969 273.707031 36.074219 C 251.671875 27.277344 243.054688 26.527344 230.84375 19.003906 C 225.472656 15.699219 217.84375 10.117188 210.046875 0.679688 C 208.707031 1.839844 207.328125 3.015625 205.90625 4.195312 C 210.605469 8.386719 213.238281 14.160156 215.667969 19.664062 C 215.667969 19.34375 215.675781 19.011719 215.671875 18.691406 C 238.472656 41.226562 191.023438 220.125 171.5 249.191406 C 171.078125 250.15625 170.597656 251.015625 170.011719 251.707031 C 169.917969 251.867188 169.824219 252.023438 169.726562 252.1875 C 169.769531 252.085938 169.8125 251.984375 169.851562 251.886719 C 168.625 253.214844 166.957031 253.769531 164.417969 252.753906 C 164.417969 252.753906 88.53125 106.3125 118.441406 18.691406 C 118.441406 19.070312 118.449219 19.464844 118.449219 19.84375 C 121.027344 13.769531 125.820312 8.808594 129.289062 3.296875 C 128.246094 2.417969 127.203125 1.542969 126.207031 0.679688 C 118.394531 10.117188 110.765625 15.699219 105.394531 19.003906 C 93.203125 26.527344 84.597656 27.277344 62.5625 36.074219 C 53.871094 39.542969 46.972656 42.734375 42.679688 44.78125 C 26.449219 96.398438 10.753906 162.316406 4.1875 239.78125 C -0.945312 300.207031 0.625 354.140625 4.816406 399.367188 C 5.308594 399.367188 5.820312 399.382812 6.328125 399.382812 C 21.152344 399.5 35.980469 399.636719 50.804688 399.753906 C 51.75 399.769531 52.707031 399.769531 53.648438 399.785156 C 52.46875 371.417969 52.300781 345.878906 52.617188 323.75 C 52.871094 306.53125 53.320312 279.4375 56.195312 243.800781 C 58.453125 215.824219 61.550781 190.886719 64.722656 169.597656 C 66.21875 173.378906 68.253906 178.914062 70.332031 185.738281 C 78.277344 212.011719 79.160156 233 79.324219 240.078125 C 79.5625 250.265625 78.917969 257.957031 78.546875 262.132812 C 74.746094 305.308594 64.363281 385.828125 62.566406 399.785156 C 61.878906 406.414062 61.191406 413.042969 60.488281 419.667969 C 63.691406 422.511719 68.445312 426.386719 74.699219 430.21875 C 74.925781 430.351562 75.148438 430.5 75.390625 430.636719 C 84.441406 436.050781 98.804688 444.667969 117.417969 443.457031 C 122.742188 443.125 135.160156 442.140625 145.152344 433.101562 C 148.457031 430.125 150.597656 427.089844 152.617188 423.75 C 156.898438 416.632812 164.03125 402.582031 168.132812 379.496094 C 172.234375 402.582031 179.351562 416.632812 183.660156 423.75 C 185.679688 427.089844 187.804688 430.125 191.097656 433.101562 C 201.105469 442.136719 213.523438 443.125 218.847656 443.457031 C 237.460938 444.667969 251.839844 436.050781 260.859375 430.636719 C 262.027344 429.945312 263.132812 429.246094 264.195312 428.542969 C 269.179688 425.277344 273.035156 422.09375 275.773438 419.667969 C 275.085938 413.042969 274.398438 406.414062 273.707031 399.785156 C 271.882812 385.828125 261.515625 305.308594 257.714844 262.132812 C 257.355469 257.957031 256.683594 250.265625 256.9375 240.078125 C 257.101562 233 258 212.011719 265.945312 185.738281 C 268.011719 178.917969 270.042969 173.382812 271.527344 169.597656 C 274.710938 190.886719 277.808594 215.824219 280.070312 243.800781 C 282.941406 279.4375 283.390625 306.535156 283.644531 323.75 C 283.976562 345.878906 283.792969 371.417969 282.59375 399.785156 C 283.433594 399.785156 284.269531 399.769531 285.109375 399.769531 C 299.9375 399.636719 314.761719 399.5 329.570312 399.382812 C 330.199219 399.382812 330.828125 399.367188 331.457031 399.367188 C 335.644531 354.140625 337.203125 300.207031 332.070312 239.78125 Z M 332.070312 239.78125 " fill-opacity="1" fill-rule="nonzero"/></g><path fill="#0a1016" d="M 118.980469 18.691406 C 112.679688 29.089844 104.738281 45.1875 101.597656 65.890625 C 98.484375 86.449219 100.820312 106.882812 114.644531 146.007812 C 124.339844 173.460938 138.761719 210.519531 163.867188 252.183594 C 153.5 227.050781 144.460938 197.773438 136.382812 164.632812 C 122.710938 108.722656 118.921875 58.664062 118.984375 18.6875 Z M 118.980469 18.691406 " fill-opacity="1" fill-rule="nonzero"/><path fill="#0a1016" d="M 215.675781 18.691406 C 215.75 58.664062 211.953125 108.722656 198.292969 164.636719 C 190.199219 197.773438 180.085938 227.050781 169.730469 252.1875 C 194.820312 210.519531 210.320312 173.460938 220.027344 146.007812 C 233.839844 106.886719 236.171875 86.453125 233.058594 65.894531 C 229.933594 45.1875 221.972656 29.089844 215.675781 18.695312 Z M 215.675781 18.691406 " fill-opacity="1" fill-rule="nonzero"/><path fill="#0a1016" d="M 171.453125 352.722656 C 171.453125 353.011719 171.425781 353.296875 171.367188 353.578125 C 171.3125 353.863281 171.226562 354.136719 171.117188 354.402344 C 171.007812 354.671875 170.871094 354.925781 170.710938 355.164062 C 170.550781 355.402344 170.371094 355.625 170.164062 355.828125 C 169.960938 356.035156 169.738281 356.214844 169.5 356.375 C 169.257812 356.535156 169.007812 356.671875 168.738281 356.78125 C 168.472656 356.890625 168.199219 356.976562 167.914062 357.03125 C 167.632812 357.089844 167.347656 357.117188 167.058594 357.117188 C 166.769531 357.117188 166.484375 357.089844 166.203125 357.03125 C 165.917969 356.976562 165.644531 356.890625 165.378906 356.78125 C 165.109375 356.671875 164.859375 356.535156 164.617188 356.375 C 164.378906 356.214844 164.15625 356.035156 163.953125 355.828125 C 163.746094 355.625 163.566406 355.402344 163.40625 355.164062 C 163.246094 354.925781 163.109375 354.671875 163 354.402344 C 162.890625 354.136719 162.804688 353.863281 162.75 353.578125 C 162.691406 353.296875 162.664062 353.011719 162.664062 352.722656 C 162.664062 352.433594 162.691406 352.148438 162.75 351.867188 C 162.804688 351.582031 162.890625 351.308594 163 351.042969 C 163.109375 350.773438 163.246094 350.523438 163.40625 350.28125 C 163.566406 350.042969 163.746094 349.820312 163.953125 349.617188 C 164.15625 349.414062 164.378906 349.230469 164.617188 349.070312 C 164.859375 348.910156 165.109375 348.773438 165.378906 348.664062 C 165.644531 348.554688 165.917969 348.46875 166.203125 348.414062 C 166.484375 348.359375 166.769531 348.328125 167.058594 348.328125 C 167.347656 348.328125 167.632812 348.359375 167.914062 348.414062 C 168.199219 348.46875 168.472656 348.554688 168.738281 348.664062 C 169.007812 348.773438 169.257812 348.910156 169.5 349.070312 C 169.738281 349.230469 169.960938 349.414062 170.164062 349.617188 C 170.371094 349.820312 170.550781 350.042969 170.710938 350.28125 C 170.871094 350.523438 171.007812 350.773438 171.117188 351.042969 C 171.226562 351.308594 171.3125 351.582031 171.367188 351.867188 C 171.425781 352.148438 171.453125 352.433594 171.453125 352.722656 Z M 171.453125 352.722656 " fill-opacity="1" fill-rule="nonzero"/><path fill="#0a1016" d="M 172.335938 314.851562 C 172.335938 315.140625 172.308594 315.425781 172.25 315.710938 C 172.195312 315.992188 172.109375 316.269531 172 316.535156 C 171.890625 316.800781 171.753906 317.054688 171.59375 317.292969 C 171.433594 317.535156 171.253906 317.757812 171.046875 317.960938 C 170.84375 318.164062 170.621094 318.347656 170.382812 318.507812 C 170.144531 318.667969 169.890625 318.800781 169.625 318.914062 C 169.355469 319.023438 169.082031 319.105469 168.800781 319.164062 C 168.515625 319.21875 168.230469 319.246094 167.941406 319.246094 C 167.652344 319.246094 167.367188 319.21875 167.085938 319.164062 C 166.800781 319.105469 166.527344 319.023438 166.261719 318.914062 C 165.992188 318.800781 165.742188 318.667969 165.5 318.507812 C 165.261719 318.347656 165.039062 318.164062 164.835938 317.960938 C 164.632812 317.757812 164.449219 317.535156 164.289062 317.292969 C 164.128906 317.054688 163.992188 316.800781 163.882812 316.535156 C 163.773438 316.269531 163.6875 315.992188 163.632812 315.710938 C 163.578125 315.425781 163.546875 315.140625 163.546875 314.851562 C 163.546875 314.566406 163.578125 314.277344 163.632812 313.996094 C 163.6875 313.714844 163.773438 313.4375 163.882812 313.171875 C 163.992188 312.90625 164.128906 312.652344 164.289062 312.414062 C 164.449219 312.171875 164.632812 311.949219 164.835938 311.746094 C 165.039062 311.542969 165.261719 311.359375 165.5 311.199219 C 165.742188 311.039062 165.992188 310.90625 166.261719 310.792969 C 166.527344 310.683594 166.800781 310.601562 167.085938 310.542969 C 167.367188 310.488281 167.652344 310.460938 167.941406 310.460938 C 168.230469 310.460938 168.515625 310.488281 168.800781 310.542969 C 169.082031 310.601562 169.355469 310.683594 169.625 310.792969 C 169.890625 310.90625 170.144531 311.039062 170.382812 311.199219 C 170.621094 311.359375 170.84375 311.542969 171.046875 311.746094 C 171.253906 311.949219 171.433594 312.171875 171.59375 312.414062 C 171.753906 312.652344 171.890625 312.90625 172 313.171875 C 172.109375 313.4375 172.195312 313.714844 172.25 313.996094 C 172.308594 314.277344 172.335938 314.566406 172.335938 314.851562 Z M 172.335938 314.851562 " fill-opacity="1" fill-rule="nonzero"/><path fill="#0a1016" d="M 137.699219 65.277344 C 142.414062 63.109375 148.15625 59.789062 153.84375 54.71875 C 156.011719 52.789062 157.898438 50.84375 159.515625 48.972656 C 161.070312 49.617188 164.03125 50.574219 167.742188 50.289062 C 170.242188 50.09375 172.230469 49.40625 173.578125 48.808594 C 175.566406 51.171875 178.035156 53.714844 181.015625 56.257812 C 185.878906 60.433594 190.664062 63.289062 194.597656 65.277344 C 197.15625 61.808594 201.464844 54.984375 203.214844 45.320312 C 204.769531 36.792969 203.648438 29.730469 202.675781 25.675781 C 198.726562 25.464844 191.753906 25.675781 184.050781 29.015625 C 179.324219 31.078125 175.824219 33.667969 173.414062 35.773438 C 172.382812 35.144531 169.390625 33.546875 165.335938 33.90625 C 162.0625 34.207031 159.757812 35.671875 158.738281 36.40625 C 156.597656 34.25 153.457031 31.585938 149.195312 29.359375 C 141.96875 25.574219 135.203125 24.960938 131.390625 24.898438 C 130.164062 29.160156 128.445312 37.347656 130.359375 47.371094 C 131.945312 55.6875 135.371094 61.78125 137.707031 65.277344 Z M 137.699219 65.277344 " fill-opacity="1" fill-rule="nonzero"/></g></g></svg>