<svg xmlns="http://www.w3.org/2000/svg" xmlns:xlink="http://www.w3.org/1999/xlink" width="800" zoomAndPan="magnify" viewBox="0 0 600 299.999988" height="400" preserveAspectRatio="xMidYMid meet" version="1.0"><defs><clipPath id="eb5ef6ad8c"><path d="M 83.75 10.421875 L 516.5 10.421875 L 516.5 289.421875 L 83.75 289.421875 Z M 83.75 10.421875 " clip-rule="nonzero"/></clipPath></defs><g clip-path="url(#eb5ef6ad8c)"><path fill="#b79251" d="M 515.601562 23.546875 C 513.597656 16.144531 506.84375 10.679688 498.8125 10.679688 L 101.175781 10.679688 C 93.144531 10.679688 86.390625 16.144531 84.386719 23.546875 L 83.765625 23.203125 L 83.765625 271.910156 C 83.765625 272.886719 83.851562 273.863281 84.007812 274.828125 C 85.425781 283.222656 92.644531 289.3125 101.175781 289.3125 L 498.8125 289.3125 C 507.335938 289.3125 514.558594 283.222656 515.980469 274.828125 C 516.144531 273.871094 516.222656 272.886719 516.222656 271.910156 L 516.222656 23.203125 Z M 94.128906 28.082031 C 94.128906 24.203125 97.289062 21.042969 101.175781 21.042969 L 498.8125 21.042969 C 502.699219 21.042969 505.859375 24.203125 505.859375 28.082031 L 505.859375 28.996094 L 306.59375 140.367188 C 302.457031 142.671875 297.527344 142.671875 293.390625 140.367188 L 94.128906 28.996094 Z M 94.128906 263.578125 L 94.128906 40.871094 L 261.894531 134.640625 Z M 498.8125 278.949219 L 101.175781 278.949219 C 98.722656 278.949219 96.539062 277.707031 95.277344 275.761719 L 271.738281 140.132812 L 288.335938 149.410156 C 288.792969 149.660156 289.253906 149.902344 289.71875 150.125 C 289.777344 150.160156 289.847656 150.175781 289.917969 150.210938 C 293.128906 151.714844 296.558594 152.464844 299.996094 152.464844 C 302 152.464844 304.003906 152.214844 305.953125 151.699219 C 306.058594 151.671875 306.160156 151.636719 306.265625 151.601562 C 306.644531 151.5 307.035156 151.386719 307.414062 151.265625 C 308.3125 150.972656 309.203125 150.609375 310.074219 150.203125 C 310.132812 150.175781 310.203125 150.152344 310.273438 150.117188 C 310.738281 149.890625 311.195312 149.660156 311.652344 149.398438 L 328.253906 140.125 L 504.710938 275.753906 C 503.453125 277.707031 501.265625 278.949219 498.8125 278.949219 Z M 505.859375 263.578125 L 338.097656 134.632812 L 505.859375 40.863281 Z M 505.859375 263.578125 " fill-opacity="1" fill-rule="nonzero"/></g></svg>