<svg xmlns="http://www.w3.org/2000/svg" xmlns:xlink="http://www.w3.org/1999/xlink" width="800" zoomAndPan="magnify" viewBox="0 0 600 135.000003" height="180" preserveAspectRatio="xMidYMid meet" version="1.0"><defs><clipPath id="2aaaf461c5"><path d="M 2.207031 13.417969 L 337 13.417969 L 337 115.378906 L 2.207031 115.378906 Z M 2.207031 13.417969 " clip-rule="nonzero"/></clipPath><clipPath id="d824ce6c7f"><path d="M 263 13.417969 L 597.792969 13.417969 L 597.792969 115.378906 L 263 115.378906 Z M 263 13.417969 " clip-rule="nonzero"/></clipPath></defs><g clip-path="url(#2aaaf461c5)"><path fill="#caa66c" d="M 4.949219 62.324219 C 6.945312 63.28125 7.46875 64.324219 8.25 69.191406 C 8.769531 72.324219 9.464844 75.367188 9.8125 75.886719 C 11.117188 77.976562 13.984375 76.757812 18.5 72.234375 C 21.453125 69.28125 24.578125 67.105469 26.925781 66.324219 C 30.398438 65.191406 31.355469 65.191406 37.519531 66.757812 C 41.257812 67.714844 44.035156 68.757812 43.601562 69.105469 C 43.253906 69.453125 39.777344 70.757812 35.957031 72.0625 C 32.136719 73.28125 28.402344 74.671875 27.707031 75.191406 C 25.449219 76.582031 27.359375 76.933594 32.570312 75.976562 C 35.347656 75.453125 39.691406 75.191406 42.039062 75.453125 C 46.816406 75.976562 51.332031 74.496094 52.722656 72.148438 C 53.414062 70.757812 53.9375 70.757812 61.234375 72.234375 C 66.878906 73.367188 72.960938 73.800781 83.816406 73.886719 L 98.667969 73.886719 L 92.9375 79.191406 C 89.808594 82.148438 87.464844 84.84375 87.726562 85.105469 C 88.160156 85.539062 91.113281 84.582031 100.839844 80.582031 C 104.054688 79.28125 107.960938 75.800781 108.65625 73.539062 C 108.832031 72.84375 111.089844 71.800781 113.609375 71.191406 C 118.125 69.976562 132.628906 63.28125 143.054688 57.453125 L 148.4375 54.5 L 153.476562 56.410156 C 156.167969 57.542969 159.816406 59.019531 161.46875 59.714844 L 164.507812 61.019531 L 161.46875 61.542969 C 159.816406 61.800781 156.601562 62.324219 154.257812 62.585938 C 150.4375 63.105469 148.351562 64.757812 151.652344 64.757812 C 152.519531 64.757812 156.082031 65.367188 159.558594 66.238281 C 165.375 67.539062 166.332031 67.628906 170.847656 66.410156 C 173.800781 65.628906 176.667969 65.28125 177.972656 65.714844 C 179.1875 66.0625 185.441406 67.890625 191.867188 69.886719 C 198.296875 71.800781 205.503906 73.628906 207.9375 73.976562 C 210.28125 74.324219 213.0625 74.84375 214.015625 75.191406 C 215.753906 75.800781 215.753906 75.800781 214.015625 76.324219 C 209.238281 77.714844 190.21875 82.148438 188.914062 82.148438 C 188.132812 82.148438 186.308594 81.277344 184.917969 80.234375 C 182.402344 78.410156 168.851562 75.191406 163.640625 75.28125 L 161.035156 75.28125 L 163.203125 76.324219 C 175.710938 82.0625 180.75 84.757812 179.707031 85.105469 C 170.328125 88.410156 158.515625 91.714844 156.257812 91.714844 C 154.519531 91.714844 152.347656 90.84375 150.261719 89.191406 C 144.789062 84.84375 136.191406 81.714844 133.585938 83.105469 C 131.847656 83.972656 131.328125 86.929688 132.804688 87.800781 C 134.542969 88.84375 133.585938 90.757812 130.980469 91.277344 C 127.332031 92.148438 126.03125 95.625 128.460938 98.234375 C 129.589844 99.453125 130.199219 101.277344 130.199219 103.539062 C 130.199219 108.582031 131.761719 110.320312 135.929688 109.800781 C 140.011719 109.277344 143.226562 110.582031 143.226562 112.667969 C 143.226562 114.40625 145.921875 115.539062 148.351562 114.753906 C 149.65625 114.40625 150.261719 112.84375 151.042969 108.058594 C 153.042969 96.582031 154.34375 94.757812 163.898438 91.367188 C 171.628906 88.582031 172.5 88.582031 170.152344 91.019531 C 169.109375 92.148438 166.941406 95.015625 165.289062 97.539062 C 163.640625 100.0625 161.902344 102.320312 161.46875 102.582031 C 160.945312 102.84375 160.597656 103.625 160.597656 104.320312 C 160.597656 106.234375 174.324219 96.320312 177.1875 92.320312 C 178.578125 90.410156 179.707031 88.320312 179.707031 87.625 C 179.707031 87.019531 180.75 86.0625 182.054688 85.539062 C 183.964844 84.84375 201.507812 80.410156 202.464844 80.410156 C 202.636719 80.410156 199.859375 83.367188 196.382812 87.019531 C 190.566406 93.105469 188.828125 96.0625 191 96.0625 C 191.433594 96.0625 191.867188 95.800781 191.867188 95.363281 C 191.867188 95.015625 193.519531 93.714844 195.601562 92.410156 C 197.6875 91.105469 201.855469 87.453125 204.898438 84.234375 C 209.933594 79.019531 210.804688 78.496094 215.234375 77.714844 C 217.925781 77.28125 224.789062 76.933594 230.519531 76.933594 C 236.253906 76.933594 247.632812 76.496094 255.882812 75.976562 C 268.824219 75.105469 271.863281 75.105469 279.335938 76.410156 C 284.023438 77.191406 291.058594 77.800781 294.882812 77.800781 C 301.570312 77.800781 321.460938 76.410156 325.195312 75.628906 C 326.152344 75.453125 328.324219 75.28125 330.058594 75.28125 C 333.621094 75.191406 337.53125 72.585938 336.574219 71.019531 C 336.140625 70.238281 335.359375 70.410156 333.792969 71.367188 C 330.667969 73.453125 314.25 75.28125 297.835938 75.453125 C 285.414062 75.539062 282.460938 75.28125 275.6875 73.539062 C 264.828125 70.757812 256.925781 67.453125 242.246094 59.800781 C 223.660156 49.976562 220.097656 48.324219 212.019531 45.628906 C 206.113281 43.628906 204.375 42.671875 203.074219 40.5 C 201.335938 37.71875 196.125 33.457031 190.824219 30.761719 C 187.4375 29.023438 183.183594 28.585938 183.183594 29.890625 C 183.183594 30.933594 189.175781 35.804688 194.910156 39.457031 L 199.25 42.238281 L 192.648438 41.714844 C 181.269531 40.847656 167.894531 43.457031 155.386719 49.019531 C 145.660156 53.367188 143.574219 53.105469 142.183594 47.542969 C 141.402344 44.414062 139.839844 42.0625 135.0625 37.195312 C 129.417969 31.28125 126.722656 29.542969 126.722656 31.71875 C 126.722656 32.152344 127.160156 32.585938 127.59375 32.585938 C 128.113281 32.585938 130.199219 36.152344 132.371094 40.414062 L 136.191406 48.324219 L 132.976562 47.714844 C 131.242188 47.457031 126.464844 45.714844 122.382812 43.890625 C 118.300781 42.0625 113.871094 40.238281 112.566406 39.890625 C 108.917969 39.019531 106.3125 34.066406 104.316406 24.414062 C 103.359375 19.804688 102.058594 15.371094 101.535156 14.675781 C 100.058594 12.9375 97.539062 13.109375 94.671875 15.285156 C 92.503906 16.847656 91.980469 16.9375 90.332031 15.890625 C 88.765625 14.9375 88.160156 14.9375 86.074219 16.066406 C 83.988281 17.285156 83.730469 17.980469 83.640625 22.152344 C 83.554688 26.066406 83.121094 27.109375 81.210938 28.761719 C 78.429688 31.28125 78.34375 32.324219 81.125 34.847656 C 83.296875 36.847656 84.078125 40.414062 82.425781 40.414062 C 80.949219 40.414062 81.382812 47.976562 82.949219 48.585938 C 86.421875 49.976562 91.808594 48.324219 95.890625 44.761719 C 97.972656 42.933594 107.269531 40.066406 108.570312 40.933594 C 109.09375 41.195312 111.4375 42.152344 113.871094 43.019531 L 118.210938 44.585938 L 111.4375 45.714844 C 107.789062 46.410156 104.574219 47.367188 104.402344 47.890625 C 104.054688 49.019531 113.433594 50.847656 119.429688 50.847656 C 121.773438 50.847656 125.160156 50.410156 126.898438 49.976562 C 129.589844 49.195312 131.414062 49.457031 137.667969 51.367188 L 145.136719 53.628906 L 142.359375 55.28125 C 140.796875 56.238281 136.453125 58.671875 132.628906 60.585938 C 126.898438 63.542969 125.421875 63.976562 124.207031 63.195312 C 119.429688 59.628906 116.996094 58.671875 110.308594 57.453125 C 101.535156 55.800781 101.535156 55.800781 101.535156 56.933594 C 101.535156 57.367188 102.058594 57.800781 102.75 57.800781 C 103.445312 57.800781 105.878906 59.105469 108.222656 60.757812 C 110.65625 62.410156 114.21875 64.324219 116.300781 65.019531 C 119.863281 66.238281 119.949219 66.324219 118.125 67.28125 C 115.347656 68.84375 102.058594 71.539062 93.980469 72.234375 C 90.070312 72.496094 83.207031 72.496094 78.605469 72.148438 C 70.613281 71.539062 70.355469 71.539062 69.398438 69.019531 C 67.921875 65.542969 62.625 60.585938 56.195312 56.847656 C 53.15625 55.019531 50.636719 53.714844 50.464844 53.890625 C 50.117188 54.238281 57.585938 64.238281 60.625 67.539062 C 61.753906 68.933594 62.449219 69.976562 61.929688 69.976562 C 59.929688 69.976562 30.398438 63.453125 29.964844 62.847656 C 28.140625 60.757812 25.011719 53.542969 23.882812 49.019531 C 22.839844 45.019531 21.539062 42.410156 19.800781 40.761719 L 17.28125 38.414062 L 15.199219 40.671875 C 12.765625 43.28125 12.332031 43.367188 9.03125 42.152344 C 7.121094 41.457031 6.425781 41.628906 4.601562 43.628906 C 2.34375 46.0625 1.910156 49.457031 3.472656 52.847656 C 4.082031 54.324219 4.167969 55.890625 3.558594 58.0625 C 2.691406 61.019531 2.777344 61.367188 4.949219 62.324219 Z M 5.644531 45.28125 C 7.816406 43.109375 9.988281 43.628906 13.546875 47.28125 C 18.5 52.324219 22.753906 57.800781 21.625 57.800781 C 21.105469 57.800781 17.890625 55.800781 14.503906 53.457031 C 11.117188 51.019531 7.726562 49.105469 6.945312 49.105469 C 6.164062 49.195312 6.6875 49.804688 8.25 50.671875 C 11.203125 52.238281 19.976562 58.847656 19.628906 59.195312 C 19.542969 59.28125 16.414062 58.585938 12.765625 57.542969 C 6.859375 55.890625 6.078125 55.367188 5.296875 53.019531 C 3.992188 49.105469 4.082031 46.761719 5.644531 45.28125 Z M 8.769531 57.976562 C 10.855469 58.238281 13.894531 59.019531 15.546875 59.800781 L 18.585938 61.105469 L 12.417969 61.195312 C 6.078125 61.28125 5.121094 61.019531 5.121094 58.847656 C 5.121094 57.890625 5.992188 57.714844 8.769531 57.976562 Z M 14.417969 66.496094 C 17.195312 65.976562 20.410156 65.28125 21.625 65.019531 C 23.535156 64.585938 23.363281 64.84375 20.582031 67.019531 C 18.757812 68.410156 17.109375 70.238281 16.847656 71.105469 C 16.5 71.976562 15.371094 73.28125 14.15625 73.976562 C 11.375 75.800781 9.464844 74.324219 9.464844 70.324219 C 9.464844 67.539062 9.550781 67.453125 14.417969 66.496094 Z M 15.546875 63.28125 C 20.148438 63.105469 20.757812 63.28125 19.019531 63.976562 C 17.804688 64.496094 15.199219 65.191406 13.113281 65.542969 C 9.898438 66.148438 9.378906 66.0625 9.640625 64.84375 C 9.898438 63.800781 11.117188 63.453125 15.546875 63.28125 Z M 17.28125 41.28125 C 18.847656 41.28125 20.929688 45.019531 22.40625 50.5 L 24.058594 56.5 L 19.019531 50.847656 C 14.242188 45.542969 14.070312 45.195312 15.285156 43.28125 C 16.066406 42.152344 16.933594 41.28125 17.28125 41.28125 Z M 44.816406 70.933594 C 50.289062 69.628906 51.417969 69.886719 49.769531 72.148438 C 48.726562 73.539062 47.25 73.886719 41.777344 74.148438 C 35.523438 74.324219 35.261719 74.324219 37.695312 73.191406 C 39.085938 72.496094 42.296875 71.539062 44.816406 70.933594 Z M 58.105469 59.542969 C 60.453125 60.84375 68.527344 68.84375 68.527344 69.976562 C 68.527344 72.324219 63.230469 68.84375 59.234375 63.800781 C 55.933594 59.628906 55.585938 58.148438 58.105469 59.542969 Z M 82.949219 29.195312 C 84.597656 27.804688 85.121094 26.585938 84.859375 24.585938 C 84.683594 23.195312 84.859375 21.980469 85.207031 22.066406 C 85.640625 22.152344 86.160156 22.152344 86.597656 22.152344 C 87.550781 22.152344 96.238281 29.457031 97.714844 31.542969 C 98.929688 33.371094 98.84375 33.371094 92.675781 31.195312 C 83.816406 28.238281 83.296875 28.675781 91.894531 32.152344 C 101.101562 35.804688 101.796875 36.585938 97.019531 37.28125 C 91.371094 38.152344 80.691406 34.5 80.691406 31.71875 C 80.691406 31.457031 81.730469 30.324219 82.949219 29.195312 Z M 84.335938 39.804688 C 85.121094 37.71875 85.8125 37.019531 86.769531 37.457031 C 87.464844 37.71875 91.371094 38.238281 95.457031 38.585938 L 102.839844 39.195312 L 95.367188 39.890625 C 91.199219 40.238281 87.378906 40.933594 86.769531 41.28125 C 86.160156 41.628906 88.332031 41.714844 91.632812 41.457031 L 97.625 41.019531 L 94.847656 43.367188 C 91.460938 46.238281 87.03125 48.152344 84.945312 47.628906 C 83.035156 47.109375 82.773438 44.066406 84.335938 39.804688 Z M 86.074219 17.980469 C 88.765625 15.285156 92.242188 17.890625 98.0625 26.847656 C 100.492188 30.5 102.402344 33.628906 102.402344 33.71875 C 102.402344 33.804688 99.886719 31.542969 96.84375 28.675781 C 93.71875 25.71875 89.808594 22.585938 88.160156 21.71875 C 84.683594 19.890625 84.511719 19.542969 86.074219 17.980469 Z M 98.582031 76.933594 C 102.058594 74.757812 106.746094 73.28125 106.746094 74.324219 C 106.746094 76.148438 97.972656 81.277344 94.847656 81.277344 C 93.023438 81.277344 94.761719 79.28125 98.582031 76.933594 Z M 96.0625 16.414062 C 98.234375 14.761719 100.492188 14.9375 101.015625 16.675781 C 102.058594 20.152344 104.140625 31.109375 103.792969 31.457031 C 103.359375 31.890625 94.671875 19.457031 94.671875 18.328125 C 94.585938 17.890625 95.28125 17.023438 96.0625 16.414062 Z M 114.128906 59.890625 C 118.558594 60.933594 123.25 63.28125 123.25 64.496094 C 123.25 65.542969 115.867188 63.800781 112.652344 61.976562 C 108.050781 59.367188 108.570312 58.671875 114.128906 59.890625 Z M 122.816406 46.933594 C 125.769531 47.367188 126.636719 47.804688 126.03125 48.410156 C 124.898438 49.542969 112.652344 49.628906 110.917969 48.585938 C 109.179688 47.457031 118.039062 46.152344 122.816406 46.933594 Z M 128.984375 94.757812 C 129.332031 93.972656 130.546875 92.929688 131.761719 92.496094 C 134.105469 91.625 146.703125 92.410156 146.703125 93.453125 C 146.703125 93.800781 144.617188 94.667969 142.097656 95.453125 C 138.625 96.582031 138.277344 96.757812 140.621094 96.496094 C 142.273438 96.320312 145.050781 95.886719 146.703125 95.625 L 149.742188 95.105469 L 146.265625 97.277344 C 139.320312 101.625 139.320312 101.625 148.4375 97.972656 C 149.914062 97.363281 144.703125 103.539062 142.011719 105.710938 C 140.96875 106.496094 138.882812 107.539062 137.234375 108.058594 C 133.414062 109.363281 131.9375 108.234375 131.9375 103.886719 C 131.9375 101.886719 131.242188 99.800781 130.199219 98.582031 C 128.199219 96.148438 128.375 96.496094 128.984375 94.757812 Z M 135.757812 39.457031 C 139.667969 43.28125 142.183594 47.804688 141.144531 48.847656 C 140.011719 49.976562 137.667969 47.628906 134.800781 42.5 C 133.238281 39.714844 131.9375 37.019531 131.9375 36.5 C 131.9375 36.066406 133.671875 37.371094 135.757812 39.457031 Z M 136.019531 84.84375 C 137.40625 84.84375 140.1875 85.625 142.359375 86.582031 L 146.265625 88.234375 L 142.359375 87.800781 L 138.449219 87.367188 L 141.835938 88.671875 C 146.789062 90.582031 146.703125 90.84375 140.96875 90.84375 C 136.539062 90.84375 135.671875 90.582031 134.890625 88.84375 C 133.238281 85.625 133.5 84.757812 136.019531 84.84375 Z M 145.050781 104.84375 C 148.960938 101.015625 150.175781 100.667969 148.265625 104.058594 C 146.265625 107.625 143.921875 109.886719 142.707031 109.363281 C 142.011719 109.101562 141.492188 108.84375 141.492188 108.667969 C 141.492188 108.582031 143.140625 106.84375 145.050781 104.84375 Z M 147.222656 107.363281 C 148.527344 105.453125 149.65625 103.886719 149.742188 103.886719 C 150.351562 103.886719 148.960938 111.363281 148.179688 112.320312 C 147.050781 113.886719 144.964844 113.710938 144.964844 112.148438 C 144.964844 111.363281 146.007812 109.277344 147.222656 107.363281 Z M 150.351562 91.105469 C 150.957031 91.367188 150.523438 91.539062 149.308594 91.539062 C 148.089844 91.539062 147.65625 91.367188 148.179688 91.105469 C 148.785156 90.929688 149.828125 90.929688 150.351562 91.105469 Z M 159.816406 49.28125 C 163.988281 47.367188 171.804688 45.28125 172.5 45.976562 C 172.671875 46.152344 170.675781 47.542969 168.070312 49.105469 C 162.597656 52.238281 161.640625 53.28125 163.292969 54.410156 C 165.722656 56.0625 170.328125 54.5 174.0625 50.847656 C 178.230469 46.761719 185.960938 43.890625 192.738281 43.890625 C 198.296875 43.890625 207.589844 45.890625 214.972656 48.671875 C 220.269531 50.671875 223.746094 52.585938 222.007812 52.585938 C 221.660156 52.585938 218.535156 53.28125 215.058594 54.238281 C 211.671875 55.105469 207.675781 56.152344 206.285156 56.410156 C 201.597656 57.542969 204.898438 58.0625 215.839844 57.976562 C 222.441406 57.976562 227.21875 57.542969 227.742188 57.019531 C 229.304688 55.453125 231.476562 55.890625 236.253906 58.757812 C 242.941406 62.671875 256.75 69.453125 261.789062 71.28125 C 264.132812 72.148438 266.480469 73.191406 266.828125 73.539062 C 268.5625 74.933594 233.996094 75.886719 221.398438 74.757812 C 216.882812 74.410156 200.726562 71.105469 195.601562 69.539062 C 191.695312 68.410156 191.085938 67.890625 190.566406 65.367188 C 189.523438 60.757812 187.871094 58.238281 183.183594 54.324219 C 178.664062 50.585938 176.234375 50.152344 179.449219 53.714844 C 180.402344 54.757812 181.878906 57.453125 182.660156 59.714844 C 183.53125 61.976562 184.570312 64.0625 185.007812 64.410156 C 185.441406 64.671875 185.613281 65.191406 185.355469 65.628906 C 184.570312 66.933594 168.765625 61.800781 156.257812 56.152344 C 150.957031 53.804688 150.609375 53.28125 153.390625 52.152344 C 154.78125 51.542969 157.644531 50.238281 159.816406 49.28125 Z M 164.679688 63.105469 C 169.980469 63.019531 172.585938 63.714844 170.847656 64.84375 C 169.457031 65.714844 163.640625 65.890625 159.644531 65.019531 C 157.210938 64.585938 157.039062 64.410156 158.429688 63.800781 C 159.382812 63.453125 162.164062 63.105469 164.679688 63.105469 Z M 165.722656 51.714844 C 166.15625 51.714844 168.765625 50.324219 171.542969 48.671875 C 178.316406 44.585938 179.011719 44.847656 173.542969 49.542969 C 169.285156 53.105469 164.941406 54.671875 164.941406 52.585938 C 164.941406 52.0625 165.289062 51.714844 165.722656 51.714844 Z M 175.019531 89.191406 C 176.320312 88.671875 177.535156 88.410156 177.796875 88.671875 C 178.40625 89.277344 167.894531 99.539062 166.679688 99.539062 C 165.117188 99.539062 172.585938 90.320312 175.019531 89.191406 Z M 175.539062 78.671875 C 178.058594 79.191406 181.183594 80.0625 182.488281 80.582031 C 185.007812 81.539062 185.007812 83.019531 182.488281 83.019531 C 180.75 83.019531 170.066406 78.496094 170.585938 77.976562 C 170.761719 77.800781 173.019531 78.0625 175.539062 78.671875 Z M 184.3125 57.453125 C 185.699219 57.976562 189.609375 64.671875 189 65.367188 C 188.21875 66.0625 186.65625 64.757812 184.832031 61.800781 C 182.921875 58.671875 182.660156 56.757812 184.3125 57.453125 Z M 189.4375 31.71875 C 193.519531 33.890625 199.425781 38.152344 200.988281 40.324219 C 202.550781 42.410156 202.464844 42.410156 197.949219 39.804688 C 192.214844 36.5 185.699219 31.371094 186.742188 31.023438 C 187.089844 30.847656 188.308594 31.195312 189.4375 31.71875 Z M 204.460938 81.976562 C 205.417969 81.453125 204.636719 82.671875 202.726562 84.757812 C 200.8125 86.757812 198.46875 88.757812 197.515625 89.277344 C 196.558594 89.800781 197.339844 88.582031 199.25 86.496094 C 201.160156 84.496094 203.507812 82.496094 204.460938 81.976562 Z M 224.007812 54.5 C 227.914062 54.757812 227.914062 54.847656 225.480469 55.890625 C 224.09375 56.410156 220.617188 56.933594 217.664062 56.847656 L 212.28125 56.757812 L 216.1875 55.542969 C 218.359375 54.847656 221.835938 54.410156 224.007812 54.5 Z M 224.007812 54.5 " fill-opacity="1" fill-rule="evenodd"/></g><g clip-path="url(#d824ce6c7f)"><path fill="#caa66c" d="M 595.050781 62.324219 C 593.054688 63.28125 592.53125 64.320312 591.75 69.195312 C 591.226562 72.320312 590.535156 75.367188 590.183594 75.886719 C 588.882812 77.976562 586.015625 76.757812 581.503906 72.234375 C 578.546875 69.28125 575.421875 67.105469 573.078125 66.324219 C 569.601562 65.191406 568.648438 65.191406 562.480469 66.757812 C 558.742188 67.710938 555.964844 68.757812 556.398438 69.105469 C 556.746094 69.457031 560.222656 70.757812 564.042969 72.0625 C 567.867188 73.277344 571.597656 74.671875 572.296875 75.191406 C 574.554688 76.582031 572.640625 76.929688 567.429688 75.972656 C 564.652344 75.453125 560.308594 75.191406 557.960938 75.453125 C 553.183594 75.972656 548.667969 74.496094 547.277344 72.152344 C 546.585938 70.757812 546.0625 70.757812 538.765625 72.234375 C 533.121094 73.367188 527.042969 73.804688 516.179688 73.890625 L 501.332031 73.890625 L 507.0625 79.195312 C 510.191406 82.148438 512.535156 84.84375 512.273438 85.105469 C 511.84375 85.539062 508.886719 84.582031 499.160156 80.582031 C 495.945312 79.277344 492.039062 75.800781 491.34375 73.539062 C 491.167969 72.847656 488.910156 71.800781 486.394531 71.195312 C 481.875 69.976562 467.371094 63.28125 456.945312 57.453125 L 451.5625 54.5 L 446.527344 56.410156 C 443.832031 57.542969 440.183594 59.023438 438.53125 59.714844 L 435.492188 61.019531 L 438.53125 61.542969 C 440.183594 61.800781 443.394531 62.324219 445.738281 62.582031 C 449.5625 63.105469 451.644531 64.757812 448.347656 64.757812 C 447.476562 64.757812 443.914062 65.367188 440.445312 66.234375 C 434.621094 67.542969 433.667969 67.628906 429.152344 66.410156 C 426.195312 65.628906 423.332031 65.277344 422.027344 65.714844 C 420.8125 66.0625 414.558594 67.886719 408.132812 69.886719 C 401.703125 71.800781 394.496094 73.628906 392.066406 73.972656 C 389.71875 74.324219 386.941406 74.84375 385.984375 75.191406 C 384.246094 75.800781 384.246094 75.800781 385.984375 76.324219 C 390.761719 77.714844 409.785156 82.148438 411.085938 82.148438 C 411.867188 82.148438 413.691406 81.277344 415.078125 80.234375 C 417.597656 78.410156 431.152344 75.191406 436.359375 75.28125 L 438.964844 75.28125 L 436.796875 76.324219 C 424.289062 82.0625 419.246094 84.757812 420.289062 85.105469 C 429.671875 88.410156 441.484375 91.710938 443.746094 91.710938 C 445.480469 91.710938 447.652344 90.84375 449.738281 89.191406 C 455.207031 84.84375 463.808594 81.714844 466.414062 83.105469 C 468.152344 83.972656 468.671875 86.933594 467.195312 87.800781 C 465.457031 88.847656 466.414062 90.753906 469.019531 91.28125 C 472.667969 92.148438 473.96875 95.625 471.539062 98.234375 C 470.40625 99.449219 469.800781 101.277344 469.800781 103.539062 C 469.800781 108.582031 468.238281 110.320312 464.070312 109.800781 C 459.988281 109.277344 456.769531 110.582031 456.769531 112.667969 C 456.769531 114.40625 454.082031 115.539062 451.644531 114.753906 C 450.34375 114.40625 449.738281 112.839844 448.957031 108.0625 C 446.957031 96.582031 445.652344 94.757812 436.101562 91.367188 C 428.371094 88.582031 427.503906 88.582031 429.847656 91.015625 C 430.890625 92.148438 433.058594 95.015625 434.710938 97.539062 C 436.359375 100.0625 438.097656 102.320312 438.53125 102.582031 C 439.050781 102.84375 439.402344 103.625 439.402344 104.320312 C 439.402344 106.234375 425.675781 96.320312 422.808594 92.324219 C 421.421875 90.410156 420.289062 88.320312 420.289062 87.628906 C 420.289062 87.019531 419.246094 86.0625 417.945312 85.539062 C 416.035156 84.84375 398.492188 80.410156 397.535156 80.410156 C 397.359375 80.410156 400.140625 83.367188 403.617188 87.019531 C 409.433594 93.105469 411.171875 96.058594 409.003906 96.058594 C 408.566406 96.058594 408.132812 95.800781 408.132812 95.363281 C 408.132812 95.015625 406.484375 93.714844 404.398438 92.40625 C 402.316406 91.105469 398.140625 87.453125 395.101562 84.238281 C 390.066406 79.019531 389.195312 78.496094 384.765625 77.714844 C 382.074219 77.28125 375.210938 76.929688 369.480469 76.929688 C 363.746094 76.929688 352.367188 76.5 344.117188 75.972656 C 331.175781 75.105469 328.136719 75.105469 320.664062 76.410156 C 315.976562 77.195312 308.9375 77.800781 305.117188 77.800781 C 298.429688 77.800781 278.539062 76.410156 274.800781 75.628906 C 273.851562 75.453125 271.675781 75.28125 269.941406 75.28125 C 266.378906 75.191406 262.472656 72.585938 263.425781 71.019531 C 263.859375 70.238281 264.640625 70.414062 266.207031 71.363281 C 269.332031 73.453125 285.75 75.28125 302.164062 75.453125 C 314.585938 75.542969 317.539062 75.28125 324.3125 73.539062 C 335.167969 70.757812 343.074219 67.453125 357.753906 59.804688 C 376.339844 49.976562 379.902344 48.328125 387.980469 45.628906 C 393.886719 43.628906 395.625 42.671875 396.929688 40.5 C 398.664062 37.71875 403.878906 33.457031 409.171875 30.761719 C 412.558594 29.023438 416.816406 28.585938 416.816406 29.890625 C 416.816406 30.933594 410.828125 35.804688 405.089844 39.457031 L 400.746094 42.238281 L 407.351562 41.714844 C 418.726562 40.847656 432.101562 43.453125 444.613281 49.019531 C 454.339844 53.367188 456.425781 53.105469 457.8125 47.542969 C 458.59375 44.410156 460.164062 42.066406 464.9375 37.195312 C 470.582031 31.28125 473.277344 29.542969 473.277344 31.71875 C 473.277344 32.152344 472.84375 32.589844 472.40625 32.589844 C 471.886719 32.589844 469.800781 36.148438 467.632812 40.414062 L 463.808594 48.328125 L 467.019531 47.714844 C 468.757812 47.457031 473.539062 45.71875 477.617188 43.890625 C 481.699219 42.066406 486.132812 40.238281 487.433594 39.890625 C 491.082031 39.019531 493.6875 34.066406 495.6875 24.414062 C 496.636719 19.804688 497.945312 15.371094 498.464844 14.675781 C 499.941406 12.9375 502.460938 13.109375 505.324219 15.28125 C 507.5 16.851562 508.019531 16.933594 509.667969 15.894531 C 511.230469 14.9375 511.84375 14.9375 513.925781 16.066406 C 516.011719 17.285156 516.269531 17.976562 516.355469 22.15625 C 516.445312 26.066406 516.878906 27.109375 518.792969 28.761719 C 521.566406 31.28125 521.65625 32.328125 518.875 34.847656 C 516.707031 36.847656 515.921875 40.414062 517.574219 40.414062 C 519.050781 40.414062 518.617188 47.976562 517.054688 48.585938 C 513.578125 49.976562 508.191406 48.328125 504.113281 44.761719 C 502.023438 42.933594 492.730469 40.0625 491.429688 40.933594 C 490.90625 41.195312 488.5625 42.152344 486.132812 43.023438 L 481.789062 44.585938 L 488.5625 45.71875 C 492.210938 46.414062 495.425781 47.371094 495.597656 47.890625 C 495.945312 49.019531 486.5625 50.847656 480.570312 50.847656 C 478.226562 50.847656 474.839844 50.410156 473.101562 49.976562 C 470.40625 49.195312 468.582031 49.453125 462.332031 51.367188 L 454.863281 53.628906 L 457.640625 55.28125 C 459.207031 56.238281 463.546875 58.671875 467.371094 60.585938 C 473.101562 63.539062 474.582031 63.976562 475.792969 63.195312 C 480.570312 59.628906 483 58.671875 489.691406 57.453125 C 498.464844 55.800781 498.464844 55.800781 498.464844 56.933594 C 498.464844 57.367188 497.945312 57.804688 497.25 57.804688 C 496.554688 57.804688 494.125 59.105469 491.777344 60.761719 C 489.34375 62.414062 485.78125 64.320312 483.699219 65.019531 C 480.136719 66.234375 480.050781 66.324219 481.875 67.28125 C 484.65625 68.84375 497.945312 71.539062 506.019531 72.234375 C 509.929688 72.496094 516.792969 72.496094 521.394531 72.152344 C 529.386719 71.539062 529.648438 71.539062 530.605469 69.019531 C 532.078125 65.539062 537.378906 60.585938 543.804688 56.847656 C 546.847656 55.019531 549.367188 53.71875 549.535156 53.886719 C 549.886719 54.238281 542.417969 64.238281 539.375 67.542969 C 538.246094 68.929688 537.550781 69.976562 538.074219 69.976562 C 540.066406 69.976562 569.601562 63.453125 570.035156 62.84375 C 571.859375 60.761719 574.984375 53.542969 576.117188 49.019531 C 577.160156 45.019531 578.460938 42.410156 580.199219 40.757812 L 582.714844 38.414062 L 584.800781 40.671875 C 587.234375 43.28125 587.671875 43.367188 590.96875 42.152344 C 592.878906 41.453125 593.578125 41.628906 595.398438 43.628906 C 597.65625 46.0625 598.089844 49.453125 596.527344 52.84375 C 595.921875 54.324219 595.832031 55.890625 596.441406 58.066406 C 597.308594 61.019531 597.222656 61.367188 595.050781 62.324219 Z M 594.359375 45.28125 C 592.183594 43.109375 590.015625 43.628906 586.453125 47.28125 C 581.503906 52.324219 577.246094 57.804688 578.371094 57.804688 C 578.894531 57.804688 582.109375 55.800781 585.496094 53.457031 C 588.882812 51.023438 592.269531 49.109375 593.054688 49.109375 C 593.835938 49.195312 593.316406 49.804688 591.75 50.671875 C 588.796875 52.238281 580.023438 58.847656 580.371094 59.191406 C 580.460938 59.28125 583.585938 58.585938 587.234375 57.542969 C 593.140625 55.890625 593.921875 55.371094 594.703125 53.019531 C 596.007812 49.109375 595.921875 46.757812 594.359375 45.28125 Z M 591.226562 57.976562 C 589.144531 58.234375 586.101562 59.023438 584.453125 59.804688 L 581.414062 61.105469 L 587.582031 61.195312 C 593.921875 61.28125 594.878906 61.019531 594.878906 58.847656 C 594.878906 57.890625 594.007812 57.714844 591.226562 57.976562 Z M 585.582031 66.496094 C 582.804688 65.976562 579.589844 65.277344 578.371094 65.019531 C 576.464844 64.585938 576.636719 64.847656 579.414062 67.019531 C 581.242188 68.410156 582.890625 70.238281 583.152344 71.105469 C 583.496094 71.976562 584.628906 73.277344 585.84375 73.972656 C 588.621094 75.800781 590.535156 74.324219 590.535156 70.324219 C 590.535156 67.542969 590.445312 67.453125 585.582031 66.496094 Z M 584.453125 63.28125 C 579.851562 63.105469 579.242188 63.28125 580.980469 63.976562 C 582.195312 64.496094 584.800781 65.191406 586.886719 65.539062 C 590.101562 66.148438 590.621094 66.0625 590.359375 64.847656 C 590.101562 63.800781 588.882812 63.453125 584.453125 63.28125 Z M 582.714844 41.28125 C 581.152344 41.28125 579.070312 45.019531 577.589844 50.496094 L 575.941406 56.496094 L 580.980469 50.847656 C 585.757812 45.542969 585.933594 45.195312 584.714844 43.28125 C 583.933594 42.152344 583.066406 41.28125 582.714844 41.28125 Z M 555.183594 70.933594 C 549.710938 69.625 548.585938 69.886719 550.234375 72.152344 C 551.273438 73.539062 552.753906 73.890625 558.222656 74.148438 C 564.476562 74.324219 564.734375 74.324219 562.304688 73.191406 C 560.917969 72.496094 557.703125 71.539062 555.183594 70.933594 Z M 541.894531 59.542969 C 539.546875 60.84375 531.472656 68.84375 531.472656 69.976562 C 531.472656 72.320312 536.769531 68.84375 540.765625 63.800781 C 544.066406 59.628906 544.410156 58.148438 541.894531 59.542969 Z M 517.054688 29.199219 C 515.398438 27.804688 514.878906 26.585938 515.140625 24.589844 C 515.316406 23.195312 515.140625 21.980469 514.792969 22.066406 C 514.359375 22.15625 513.835938 22.15625 513.40625 22.15625 C 512.449219 22.15625 503.761719 29.457031 502.285156 31.542969 C 501.070312 33.371094 501.15625 33.371094 507.324219 31.195312 C 516.179688 28.242188 516.707031 28.671875 508.105469 32.152344 C 498.898438 35.804688 498.207031 36.585938 502.980469 37.28125 C 508.625 38.152344 519.3125 34.496094 519.3125 31.71875 C 519.3125 31.457031 518.269531 30.324219 517.054688 29.199219 Z M 515.660156 39.800781 C 514.878906 37.71875 514.1875 37.023438 513.230469 37.457031 C 512.535156 37.71875 508.625 38.238281 504.542969 38.585938 L 497.160156 39.195312 L 504.632812 39.890625 C 508.800781 40.238281 512.625 40.933594 513.230469 41.28125 C 513.835938 41.628906 511.667969 41.714844 508.367188 41.453125 L 502.375 41.019531 L 505.15625 43.367188 C 508.542969 46.238281 512.96875 48.152344 515.054688 47.632812 C 516.96875 47.105469 517.226562 44.066406 515.660156 39.800781 Z M 513.925781 17.976562 C 511.230469 15.28125 507.757812 17.890625 501.9375 26.847656 C 499.507812 30.5 497.59375 33.628906 497.59375 33.714844 C 497.59375 33.804688 500.113281 31.542969 503.15625 28.671875 C 506.28125 25.714844 510.191406 22.585938 511.84375 21.71875 C 515.316406 19.890625 515.488281 19.542969 513.925781 17.976562 Z M 501.417969 76.929688 C 497.945312 74.753906 493.25 73.277344 493.25 74.324219 C 493.25 76.148438 502.023438 81.277344 505.15625 81.277344 C 506.976562 81.277344 505.238281 79.277344 501.417969 76.929688 Z M 503.9375 16.414062 C 501.761719 14.761719 499.507812 14.9375 498.988281 16.675781 C 497.945312 20.152344 495.855469 31.109375 496.207031 31.457031 C 496.636719 31.890625 505.324219 19.453125 505.324219 18.328125 C 505.414062 17.890625 504.71875 17.019531 503.9375 16.414062 Z M 485.871094 59.886719 C 481.4375 60.929688 476.75 63.28125 476.75 64.496094 C 476.75 65.539062 484.132812 63.800781 487.34375 61.976562 C 491.949219 59.367188 491.429688 58.671875 485.871094 59.886719 Z M 477.183594 46.933594 C 474.230469 47.371094 473.363281 47.800781 473.96875 48.414062 C 475.101562 49.542969 487.34375 49.628906 489.082031 48.585938 C 490.820312 47.457031 481.960938 46.152344 477.183594 46.933594 Z M 471.019531 94.757812 C 470.667969 93.976562 469.457031 92.929688 468.238281 92.496094 C 465.894531 91.625 453.300781 92.40625 453.300781 93.453125 C 453.300781 93.800781 455.382812 94.671875 457.902344 95.453125 C 461.375 96.582031 461.726562 96.753906 459.375 96.496094 C 457.726562 96.320312 454.949219 95.890625 453.300781 95.625 L 450.257812 95.101562 L 453.734375 97.277344 C 460.683594 101.625 460.683594 101.625 451.5625 97.972656 C 450.082031 97.367188 455.296875 103.539062 457.988281 105.710938 C 459.03125 106.492188 461.113281 107.539062 462.765625 108.0625 C 466.589844 109.363281 468.0625 108.230469 468.0625 103.886719 C 468.0625 101.886719 468.757812 99.800781 469.800781 98.582031 C 471.800781 96.148438 471.625 96.496094 471.019531 94.757812 Z M 464.242188 39.457031 C 460.332031 43.28125 457.8125 47.800781 458.855469 48.847656 C 459.988281 49.976562 462.332031 47.632812 465.195312 42.496094 C 466.761719 39.714844 468.0625 37.023438 468.0625 36.5 C 468.0625 36.066406 466.328125 37.367188 464.242188 39.457031 Z M 463.980469 84.84375 C 462.59375 84.84375 459.8125 85.625 457.640625 86.582031 L 453.734375 88.234375 L 457.640625 87.800781 L 461.550781 87.363281 L 458.164062 88.671875 C 453.214844 90.585938 453.300781 90.84375 459.03125 90.84375 C 463.457031 90.84375 464.332031 90.585938 465.113281 88.847656 C 466.761719 85.625 466.5 84.757812 463.980469 84.84375 Z M 454.949219 104.839844 C 451.039062 101.019531 449.824219 100.667969 451.734375 104.058594 C 453.734375 107.625 456.078125 109.882812 457.292969 109.363281 C 457.988281 109.101562 458.507812 108.84375 458.507812 108.667969 C 458.507812 108.582031 456.859375 106.84375 454.949219 104.839844 Z M 452.777344 107.363281 C 451.476562 105.453125 450.34375 103.886719 450.257812 103.886719 C 449.652344 103.886719 451.039062 111.363281 451.820312 112.320312 C 452.953125 113.886719 455.039062 113.710938 455.039062 112.148438 C 455.039062 111.363281 453.996094 109.277344 452.777344 107.363281 Z M 449.652344 91.105469 C 449.039062 91.367188 449.476562 91.539062 450.695312 91.539062 C 451.90625 91.539062 452.34375 91.367188 451.820312 91.105469 C 451.214844 90.929688 450.171875 90.929688 449.652344 91.105469 Z M 440.183594 49.277344 C 436.015625 47.371094 428.195312 45.28125 427.503906 45.976562 C 427.328125 46.152344 429.328125 47.542969 431.933594 49.109375 C 437.402344 52.238281 438.359375 53.28125 436.707031 54.414062 C 434.277344 56.0625 429.671875 54.5 425.9375 50.847656 C 421.769531 46.757812 414.039062 43.890625 407.265625 43.890625 C 401.703125 43.890625 392.410156 45.886719 385.027344 48.671875 C 379.730469 50.671875 376.253906 52.585938 377.992188 52.585938 C 378.339844 52.585938 381.464844 53.28125 384.941406 54.238281 C 388.328125 55.105469 392.324219 56.152344 393.714844 56.410156 C 398.402344 57.542969 395.101562 58.066406 384.160156 57.976562 C 377.558594 57.976562 372.78125 57.542969 372.261719 57.019531 C 370.699219 55.457031 368.523438 55.890625 363.746094 58.761719 C 357.058594 62.671875 343.25 69.457031 338.210938 71.277344 C 335.867188 72.152344 333.519531 73.191406 333.175781 73.539062 C 331.4375 74.929688 366.003906 75.886719 378.597656 74.753906 C 383.117188 74.410156 399.273438 71.105469 404.398438 69.539062 C 408.304688 68.410156 408.914062 67.886719 409.433594 65.367188 C 410.476562 60.761719 412.128906 58.234375 416.816406 54.324219 C 421.335938 50.585938 423.765625 50.152344 420.550781 53.71875 C 419.597656 54.757812 418.121094 57.453125 417.339844 59.714844 C 416.472656 61.976562 415.429688 64.0625 414.996094 64.410156 C 414.558594 64.671875 414.386719 65.191406 414.644531 65.628906 C 415.429688 66.929688 431.234375 61.800781 443.746094 56.152344 C 449.039062 53.800781 449.390625 53.28125 446.609375 52.148438 C 445.21875 51.542969 442.351562 50.234375 440.183594 49.277344 Z M 435.320312 63.105469 C 430.019531 63.019531 427.414062 63.714844 429.152344 64.847656 C 430.539062 65.714844 436.359375 65.890625 440.359375 65.019531 C 442.789062 64.585938 442.964844 64.410156 441.570312 63.800781 C 440.617188 63.453125 437.839844 63.105469 435.320312 63.105469 Z M 434.277344 51.714844 C 433.839844 51.714844 431.234375 50.324219 428.457031 48.671875 C 421.683594 44.585938 420.984375 44.847656 426.457031 49.542969 C 430.714844 53.105469 435.058594 54.671875 435.058594 52.585938 C 435.058594 52.0625 434.710938 51.714844 434.277344 51.714844 Z M 424.984375 89.191406 C 423.679688 88.671875 422.464844 88.410156 422.203125 88.671875 C 421.597656 89.277344 432.101562 99.539062 433.320312 99.539062 C 434.882812 99.539062 427.414062 90.324219 424.984375 89.191406 Z M 424.460938 78.671875 C 421.941406 79.195312 418.816406 80.058594 417.515625 80.582031 C 414.996094 81.539062 414.996094 83.019531 417.515625 83.019531 C 419.246094 83.019531 429.933594 78.496094 429.414062 77.976562 C 429.238281 77.800781 426.976562 78.0625 424.460938 78.671875 Z M 415.691406 57.453125 C 414.296875 57.976562 410.390625 64.671875 410.996094 65.367188 C 411.777344 66.0625 413.339844 64.757812 415.167969 61.800781 C 417.078125 58.671875 417.339844 56.757812 415.691406 57.453125 Z M 410.566406 31.71875 C 406.484375 33.890625 400.578125 38.152344 399.011719 40.328125 C 397.449219 42.410156 397.535156 42.410156 402.054688 39.800781 C 407.785156 36.5 414.296875 31.371094 413.257812 31.019531 C 412.910156 30.847656 411.691406 31.195312 410.566406 31.71875 Z M 395.535156 81.972656 C 394.578125 81.453125 395.363281 82.671875 397.273438 84.757812 C 399.183594 86.757812 401.527344 88.757812 402.484375 89.277344 C 403.441406 89.796875 402.660156 88.582031 400.746094 86.496094 C 398.839844 84.5 396.492188 82.496094 395.535156 81.972656 Z M 375.992188 54.5 C 372.085938 54.757812 372.085938 54.84375 374.515625 55.890625 C 375.910156 56.410156 379.378906 56.933594 382.335938 56.847656 L 387.722656 56.757812 L 383.8125 55.539062 C 381.640625 54.84375 378.167969 54.414062 375.992188 54.5 Z M 375.992188 54.5 " fill-opacity="1" fill-rule="evenodd"/></g></svg>